<ttFont>
    <TTGlyph name=".notdef" xMin="20" yMin="0" xMax="494" yMax="698">
      <contour>
        <pt x="441" y="698" on="1"/>
        <pt x="463" y="698" on="0"/>
        <pt x="494" y="667" on="0"/>
        <pt x="494" y="645" on="1"/>
        <pt x="494" y="52" on="1"/>
        <pt x="494" y="30" on="0"/>
        <pt x="463" y="0" on="0"/>
        <pt x="441" y="0" on="1"/>
        <pt x="72" y="0" on="1"/>
        <pt x="50" y="0" on="0"/>
        <pt x="20" y="30" on="0"/>
        <pt x="20" y="52" on="1"/>
        <pt x="20" y="645" on="1"/>
        <pt x="20" y="667" on="0"/>
        <pt x="50" y="698" on="0"/>
        <pt x="72" y="698" on="1"/>
      </contour>
      <contour>
        <pt x="444" y="602" on="1"/>
        <pt x="286" y="349" on="1"/>
        <pt x="444" y="96" on="1"/>
      </contour>
      <contour>
        <pt x="100" y="648" on="1"/>
        <pt x="257" y="397" on="1"/>
        <pt x="413" y="648" on="1"/>
      </contour>
      <contour>
        <pt x="227" y="349" on="1"/>
        <pt x="70" y="602" on="1"/>
        <pt x="70" y="96" on="1"/>
      </contour>
      <contour>
        <pt x="413" y="50" on="1"/>
        <pt x="257" y="302" on="1"/>
        <pt x="100" y="50" on="1"/>
      </contour>
    </TTGlyph>
    <TTGlyph name="A" xMin="26" yMin="-5" xMax="672" yMax="703">
      <contour>
        <pt x="667" y="60" on="1"/>
        <pt x="672" y="48" on="0"/>
        <pt x="672" y="21" on="0"/>
        <pt x="648" y="-5" on="0"/>
        <pt x="596" y="-5" on="0"/>
        <pt x="584" y="23" on="1"/>
        <pt x="519" y="179" on="1"/>
        <pt x="179" y="179" on="1"/>
        <pt x="114" y="23" on="1"/>
        <pt x="102" y="-5" on="0"/>
        <pt x="50" y="-5" on="0"/>
        <pt x="26" y="21" on="0"/>
        <pt x="26" y="48" on="0"/>
        <pt x="31" y="60" on="1"/>
        <pt x="286" y="662" on="1"/>
        <pt x="304" y="703" on="0"/>
        <pt x="344" y="703" on="1"/>
        <pt x="354" y="703" on="1"/>
        <pt x="394" y="703" on="0"/>
        <pt x="412" y="662" on="1"/>
      </contour>
      <contour>
        <pt x="484" y="262" on="1"/>
        <pt x="349" y="587" on="1"/>
        <pt x="214" y="262" on="1"/>
      </contour>
    </TTGlyph>
    <TTGlyph name="AE" xMin="2" yMin="-5" xMax="988" yMax="698">
      <contour>
        <pt x="945" y="85" on="1"/>
        <pt x="963" y="85" on="0"/>
        <pt x="988" y="60" on="0"/>
        <pt x="988" y="42" on="1"/>
        <pt x="988" y="24" on="0"/>
        <pt x="963" y="0" on="0"/>
        <pt x="945" y="0" on="1"/>
        <pt x="544" y="0" on="1"/>
        <pt x="525" y="0" on="0"/>
        <pt x="499" y="26" on="0"/>
        <pt x="499" y="45" on="1"/>
        <pt x="499" y="179" on="1"/>
        <pt x="191" y="179" on="1"/>
        <pt x="89" y="21" on="1"/>
        <pt x="72" y="-5" on="0"/>
        <pt x="28" y="-5" on="0"/>
        <pt x="2" y="21" on="0"/>
        <pt x="2" y="34" on="1"/>
        <pt x="2" y="54" on="0"/>
        <pt x="12" y="68" on="1"/>
        <pt x="411" y="673" on="1"/>
        <pt x="429" y="698" on="0"/>
        <pt x="457" y="698" on="1"/>
        <pt x="945" y="698" on="1"/>
        <pt x="963" y="698" on="0"/>
        <pt x="988" y="673" on="0"/>
        <pt x="988" y="655" on="1"/>
        <pt x="988" y="637" on="0"/>
        <pt x="963" y="613" on="0"/>
        <pt x="945" y="613" on="1"/>
        <pt x="590" y="613" on="1"/>
        <pt x="590" y="392" on="1"/>
        <pt x="909" y="392" on="1"/>
        <pt x="927" y="392" on="0"/>
        <pt x="952" y="367" on="0"/>
        <pt x="952" y="349" on="1"/>
        <pt x="952" y="331" on="0"/>
        <pt x="927" y="307" on="0"/>
        <pt x="909" y="307" on="1"/>
        <pt x="590" y="307" on="1"/>
        <pt x="590" y="85" on="1"/>
      </contour>
      <contour>
        <pt x="499" y="613" on="1"/>
        <pt x="474" y="613" on="1"/>
        <pt x="245" y="262" on="1"/>
        <pt x="499" y="262" on="1"/>
      </contour>
    </TTGlyph>
    <TTGlyph name="AEacute" xMin="2" yMin="-5" xMax="988" yMax="894">
      <component glyphName="AE" x="0" y="0" flags="0x1204"/>
      <component glyphName="acute" x="438" y="172" flags="0x1004"/>
    </TTGlyph>
    <TTGlyph name="Aacute" xMin="26" yMin="-5" xMax="672" yMax="894">
      <component glyphName="acute" x="264" y="172" flags="0x1004"/>
      <component glyphName="A" x="0" y="0" flags="0x1004"/>
    </TTGlyph>
    <TTGlyph name="Acircumflex" xMin="26" yMin="-5" xMax="672" yMax="877">
      <component glyphName="circumflex" x="146" y="172" flags="0x1004"/>
      <component glyphName="A" x="0" y="0" flags="0x1004"/>
    </TTGlyph>
    <TTGlyph name="Adieresis" xMin="26" yMin="-5" xMax="672" yMax="849">
      <component glyphName="A" x="0" y="0" flags="0x1204"/>
      <component glyphName="dieresis" x="151" y="172" flags="0x1004"/>
    </TTGlyph>
    <TTGlyph name="Agrave" xMin="26" yMin="-5" xMax="672" yMax="894">
      <component glyphName="grave" x="188" y="172" flags="0x1004"/>
      <component glyphName="A" x="0" y="0" flags="0x1004"/>
    </TTGlyph>
    <TTGlyph name="Aring" xMin="26" yMin="-5" xMax="672" yMax="918">
      <component glyphName="ring" x="212" y="179" flags="0x1004"/>
      <component glyphName="A" x="0" y="0" flags="0x1004"/>
    </TTGlyph>
    <TTGlyph name="Atilde" xMin="26" yMin="-5" xMax="672" yMax="862">
      <component glyphName="tilde" x="134" y="172" flags="0x1004"/>
      <component glyphName="A" x="0" y="0" flags="0x1004"/>
    </TTGlyph>
    <TTGlyph name="B" xMin="97" yMin="0" xMax="641" yMax="698">
      <contour>
        <pt x="602" y="517" on="1"/>
        <pt x="602" y="409" on="0"/>
        <pt x="504" y="363" on="1"/>
        <pt x="599" y="331" on="0"/>
        <pt x="630" y="258" on="1"/>
        <pt x="641" y="230" on="0"/>
        <pt x="641" y="152" on="0"/>
        <pt x="613" y="80" on="0"/>
        <pt x="582" y="54" on="1"/>
        <pt x="518" y="0" on="0"/>
        <pt x="384" y="0" on="1"/>
        <pt x="142" y="0" on="1"/>
        <pt x="123" y="0" on="0"/>
        <pt x="97" y="26" on="0"/>
        <pt x="97" y="45" on="1"/>
        <pt x="97" y="652" on="1"/>
        <pt x="97" y="671" on="0"/>
        <pt x="123" y="698" on="0"/>
        <pt x="142" y="698" on="1"/>
        <pt x="378" y="698" on="1"/>
        <pt x="488" y="698" on="0"/>
        <pt x="602" y="598" on="0"/>
      </contour>
      <contour>
        <pt x="515" y="510" on="1"/>
        <pt x="515" y="557" on="0"/>
        <pt x="440" y="613" on="0"/>
        <pt x="371" y="613" on="1"/>
        <pt x="188" y="613" on="1"/>
        <pt x="188" y="396" on="1"/>
        <pt x="354" y="396" on="1"/>
        <pt x="483" y="396" on="0"/>
        <pt x="508" y="465" on="1"/>
        <pt x="515" y="486" on="0"/>
      </contour>
      <contour>
        <pt x="375" y="85" on="1"/>
        <pt x="517" y="85" on="0"/>
        <pt x="544" y="153" on="1"/>
        <pt x="553" y="174" on="0"/>
        <pt x="553" y="200" on="1"/>
        <pt x="553" y="260" on="0"/>
        <pt x="463" y="314" on="0"/>
        <pt x="376" y="314" on="1"/>
        <pt x="188" y="314" on="1"/>
        <pt x="188" y="85" on="1"/>
      </contour>
    </TTGlyph>
    <TTGlyph name="C" xMin="56" yMin="-10" xMax="656" yMax="708">
      <contour>
        <pt x="598" y="124" on="1"/>
        <pt x="606" y="128" on="0"/>
        <pt x="635" y="128" on="0"/>
        <pt x="656" y="105" on="0"/>
        <pt x="656" y="90" on="1"/>
        <pt x="656" y="63" on="0"/>
        <pt x="634" y="52" on="1"/>
        <pt x="587" y="26" on="0"/>
        <pt x="480" y="-10" on="0"/>
        <pt x="331" y="-10" on="0"/>
        <pt x="203" y="39" on="0"/>
        <pt x="156" y="86" on="1"/>
        <pt x="56" y="184" on="0"/>
        <pt x="56" y="349" on="1"/>
        <pt x="56" y="514" on="0"/>
        <pt x="156" y="612" on="1"/>
        <pt x="253" y="708" on="0"/>
        <pt x="406" y="708" on="1"/>
        <pt x="480" y="708" on="0"/>
        <pt x="587" y="672" on="0"/>
        <pt x="644" y="641" on="0"/>
        <pt x="656" y="622" on="0"/>
        <pt x="656" y="593" on="0"/>
        <pt x="635" y="570" on="0"/>
        <pt x="606" y="570" on="0"/>
        <pt x="598" y="574" on="1"/>
        <pt x="558" y="595" on="0"/>
        <pt x="474" y="621" on="0"/>
        <pt x="349" y="621" on="0"/>
        <pt x="248" y="579" on="0"/>
        <pt x="214" y="542" on="1"/>
        <pt x="147" y="469" on="0"/>
        <pt x="147" y="349" on="1"/>
        <pt x="147" y="229" on="0"/>
        <pt x="214" y="156" on="1"/>
        <pt x="287" y="77" on="0"/>
        <pt x="415" y="77" on="1"/>
        <pt x="474" y="77" on="0"/>
        <pt x="558" y="103" on="0"/>
      </contour>
    </TTGlyph>
    <TTGlyph name="Ccedilla" xMin="56" yMin="-221" xMax="656" yMax="708">
      <contour>
        <pt x="368" y="-178" on="1"/>
        <pt x="425" y="-178" on="0"/>
        <pt x="425" y="-132" on="1"/>
        <pt x="425" y="-117" on="0"/>
        <pt x="404" y="-101" on="0"/>
        <pt x="391" y="-101" on="1"/>
        <pt x="367" y="-101" on="0"/>
        <pt x="355" y="-107" on="1"/>
        <pt x="339" y="-115" on="0"/>
        <pt x="328" y="-115" on="0"/>
        <pt x="317" y="-106" on="0"/>
        <pt x="317" y="-91" on="0"/>
        <pt x="321" y="-85" on="1"/>
        <pt x="369" y="-8" on="1"/>
        <pt x="229" y="4" on="0"/>
        <pt x="144" y="98" on="1"/>
        <pt x="56" y="196" on="0"/>
        <pt x="56" y="349" on="1"/>
        <pt x="56" y="514" on="0"/>
        <pt x="156" y="612" on="1"/>
        <pt x="253" y="708" on="0"/>
        <pt x="406" y="708" on="1"/>
        <pt x="480" y="708" on="0"/>
        <pt x="587" y="672" on="0"/>
        <pt x="644" y="641" on="0"/>
        <pt x="656" y="622" on="0"/>
        <pt x="656" y="593" on="0"/>
        <pt x="635" y="570" on="0"/>
        <pt x="606" y="570" on="0"/>
        <pt x="598" y="574" on="1"/>
        <pt x="558" y="595" on="0"/>
        <pt x="474" y="621" on="0"/>
        <pt x="349" y="621" on="0"/>
        <pt x="248" y="579" on="0"/>
        <pt x="214" y="542" on="1"/>
        <pt x="147" y="469" on="0"/>
        <pt x="147" y="349" on="1"/>
        <pt x="147" y="229" on="0"/>
        <pt x="214" y="156" on="1"/>
        <pt x="287" y="77" on="0"/>
        <pt x="415" y="77" on="1"/>
        <pt x="474" y="77" on="0"/>
        <pt x="558" y="103" on="0"/>
        <pt x="606" y="128" on="0"/>
        <pt x="635" y="128" on="0"/>
        <pt x="656" y="105" on="0"/>
        <pt x="656" y="90" on="1"/>
        <pt x="656" y="63" on="0"/>
        <pt x="634" y="52" on="1"/>
        <pt x="588" y="26" on="0"/>
        <pt x="483" y="-9" on="0"/>
        <pt x="411" y="-10" on="1"/>
        <pt x="381" y="-63" on="1"/>
        <pt x="397" y="-59" on="0"/>
        <pt x="449" y="-59" on="0"/>
        <pt x="492" y="-97" on="0"/>
        <pt x="492" y="-129" on="1"/>
        <pt x="492" y="-221" on="0"/>
        <pt x="381" y="-221" on="1"/>
        <pt x="333" y="-221" on="0"/>
        <pt x="291" y="-195" on="1"/>
        <pt x="280" y="-190" on="0"/>
        <pt x="280" y="-178" on="1"/>
        <pt x="280" y="-158" on="0"/>
        <pt x="299" y="-158" on="1"/>
        <pt x="303" y="-158" on="0"/>
        <pt x="309" y="-161" on="1"/>
        <pt x="340" y="-178" on="0"/>
      </contour>
    </TTGlyph>
    <TTGlyph name="D" xMin="97" yMin="0" xMax="696" yMax="698">
      <contour>
        <pt x="343" y="698" on="1"/>
        <pt x="510" y="698" on="0"/>
        <pt x="609" y="586" on="1"/>
        <pt x="653" y="537" on="0"/>
        <pt x="696" y="412" on="0"/>
        <pt x="696" y="349" on="1"/>
        <pt x="696" y="286" on="0"/>
        <pt x="653" y="161" on="0"/>
        <pt x="609" y="112" on="1"/>
        <pt x="510" y="0" on="0"/>
        <pt x="343" y="0" on="1"/>
        <pt x="142" y="0" on="1"/>
        <pt x="123" y="0" on="0"/>
        <pt x="97" y="26" on="0"/>
        <pt x="97" y="45" on="1"/>
        <pt x="97" y="652" on="1"/>
        <pt x="97" y="671" on="0"/>
        <pt x="123" y="698" on="0"/>
        <pt x="142" y="698" on="1"/>
      </contour>
      <contour>
        <pt x="332" y="85" on="1"/>
        <pt x="456" y="85" on="0"/>
        <pt x="532" y="158" on="1"/>
        <pt x="606" y="231" on="0"/>
        <pt x="606" y="467" on="0"/>
        <pt x="532" y="540" on="1"/>
        <pt x="456" y="613" on="0"/>
        <pt x="332" y="613" on="1"/>
        <pt x="188" y="613" on="1"/>
        <pt x="188" y="85" on="1"/>
      </contour>
    </TTGlyph>
    <TTGlyph name="Delta" xMin="68" yMin="0" xMax="654" yMax="698">
      <contour>
        <pt x="646" y="106" on="1"/>
        <pt x="654" y="85" on="0"/>
        <pt x="654" y="70" on="1"/>
        <pt x="654" y="39" on="0"/>
        <pt x="611" y="0" on="0"/>
        <pt x="580" y="0" on="1"/>
        <pt x="142" y="0" on="1"/>
        <pt x="111" y="0" on="0"/>
        <pt x="68" y="39" on="0"/>
        <pt x="68" y="70" on="1"/>
        <pt x="68" y="85" on="0"/>
        <pt x="76" y="106" on="1"/>
        <pt x="291" y="646" on="1"/>
        <pt x="311" y="698" on="0"/>
        <pt x="411" y="698" on="0"/>
        <pt x="431" y="646" on="1"/>
      </contour>
      <contour>
        <pt x="576" y="71" on="1"/>
        <pt x="361" y="610" on="1"/>
        <pt x="146" y="71" on="1"/>
      </contour>
    </TTGlyph>
    <TTGlyph name="E" xMin="97" yMin="0" xMax="586" yMax="698">
      <contour>
        <pt x="561" y="85" on="0"/>
        <pt x="586" y="60" on="0"/>
        <pt x="586" y="42" on="1"/>
        <pt x="586" y="24" on="0"/>
        <pt x="561" y="0" on="0"/>
        <pt x="543" y="0" on="1"/>
        <pt x="142" y="0" on="1"/>
        <pt x="123" y="0" on="0"/>
        <pt x="97" y="26" on="0"/>
        <pt x="97" y="45" on="1"/>
        <pt x="97" y="652" on="1"/>
        <pt x="97" y="671" on="0"/>
        <pt x="123" y="698" on="0"/>
        <pt x="142" y="698" on="1"/>
        <pt x="543" y="698" on="1"/>
        <pt x="561" y="698" on="0"/>
        <pt x="586" y="673" on="0"/>
        <pt x="586" y="655" on="1"/>
        <pt x="586" y="637" on="0"/>
        <pt x="561" y="613" on="0"/>
        <pt x="543" y="613" on="1"/>
        <pt x="188" y="613" on="1"/>
        <pt x="188" y="392" on="1"/>
        <pt x="507" y="392" on="1"/>
        <pt x="525" y="392" on="0"/>
        <pt x="550" y="367" on="0"/>
        <pt x="550" y="349" on="1"/>
        <pt x="550" y="331" on="0"/>
        <pt x="525" y="307" on="0"/>
        <pt x="507" y="307" on="1"/>
        <pt x="188" y="307" on="1"/>
        <pt x="188" y="85" on="1"/>
        <pt x="543" y="85" on="1"/>
      </contour>
    </TTGlyph>
    <TTGlyph name="Eacute" xMin="97" yMin="0" xMax="586" yMax="894">
      <component glyphName="E" x="0" y="0" flags="0x1204"/>
      <component glyphName="acute" x="254" y="172" flags="0x1004"/>
    </TTGlyph>
    <TTGlyph name="Ecircumflex" xMin="97" yMin="0" xMax="586" yMax="877">
      <component glyphName="E" x="0" y="0" flags="0x1204"/>
      <component glyphName="circumflex" x="146" y="172" flags="0x1004"/>
    </TTGlyph>
    <TTGlyph name="Edieresis" xMin="97" yMin="0" xMax="586" yMax="849">
      <component glyphName="E" x="0" y="0" flags="0x1204"/>
      <component glyphName="dieresis" x="140" y="172" flags="0x1004"/>
    </TTGlyph>
    <TTGlyph name="Egrave" xMin="97" yMin="0" xMax="586" yMax="894">
      <component glyphName="E" x="0" y="0" flags="0x1204"/>
      <component glyphName="grave" x="183" y="172" flags="0x1004"/>
    </TTGlyph>
    <TTGlyph name="Eth" xMin="17" yMin="0" xMax="703" yMax="698">
      <contour>
        <pt x="350" y="698" on="1"/>
        <pt x="517" y="698" on="0"/>
        <pt x="616" y="586" on="1"/>
        <pt x="660" y="537" on="0"/>
        <pt x="703" y="412" on="0"/>
        <pt x="703" y="349" on="1"/>
        <pt x="703" y="286" on="0"/>
        <pt x="660" y="161" on="0"/>
        <pt x="616" y="112" on="1"/>
        <pt x="517" y="0" on="0"/>
        <pt x="350" y="0" on="1"/>
        <pt x="149" y="0" on="1"/>
        <pt x="130" y="0" on="0"/>
        <pt x="104" y="26" on="0"/>
        <pt x="104" y="45" on="1"/>
        <pt x="104" y="315" on="1"/>
        <pt x="50" y="315" on="1"/>
        <pt x="36" y="315" on="0"/>
        <pt x="17" y="334" on="0"/>
        <pt x="17" y="348" on="1"/>
        <pt x="17" y="362" on="0"/>
        <pt x="36" y="382" on="0"/>
        <pt x="50" y="382" on="1"/>
        <pt x="104" y="382" on="1"/>
        <pt x="104" y="652" on="1"/>
        <pt x="104" y="671" on="0"/>
        <pt x="130" y="698" on="0"/>
        <pt x="149" y="698" on="1"/>
      </contour>
      <contour>
        <pt x="339" y="85" on="1"/>
        <pt x="463" y="85" on="0"/>
        <pt x="538" y="158" on="1"/>
        <pt x="613" y="231" on="0"/>
        <pt x="613" y="467" on="0"/>
        <pt x="538" y="540" on="1"/>
        <pt x="463" y="613" on="0"/>
        <pt x="339" y="613" on="1"/>
        <pt x="195" y="613" on="1"/>
        <pt x="195" y="382" on="1"/>
        <pt x="312" y="382" on="1"/>
        <pt x="326" y="382" on="0"/>
        <pt x="346" y="362" on="0"/>
        <pt x="346" y="348" on="1"/>
        <pt x="346" y="334" on="0"/>
        <pt x="326" y="315" on="0"/>
        <pt x="312" y="315" on="1"/>
        <pt x="195" y="315" on="1"/>
        <pt x="195" y="85" on="1"/>
      </contour>
    </TTGlyph>
    <TTGlyph name="Euro" xMin="42" yMin="-10" xMax="637" yMax="708">
      <contour>
        <pt x="129" y="349" on="1"/>
        <pt x="129" y="372" on="0"/>
        <pt x="133" y="396" on="1"/>
        <pt x="78" y="396" on="1"/>
        <pt x="63" y="396" on="0"/>
        <pt x="42" y="417" on="0"/>
        <pt x="42" y="432" on="1"/>
        <pt x="42" y="447" on="0"/>
        <pt x="63" y="468" on="0"/>
        <pt x="78" y="468" on="1"/>
        <pt x="149" y="468" on="1"/>
        <pt x="182" y="574" on="0"/>
        <pt x="266" y="640" on="1"/>
        <pt x="352" y="708" on="0"/>
        <pt x="468" y="708" on="1"/>
        <pt x="548" y="708" on="0"/>
        <pt x="614" y="676" on="1"/>
        <pt x="637" y="664" on="0"/>
        <pt x="637" y="623" on="0"/>
        <pt x="613" y="600" on="0"/>
        <pt x="602" y="600" on="1"/>
        <pt x="587" y="600" on="0"/>
        <pt x="570" y="606" on="1"/>
        <pt x="531" y="622" on="0"/>
        <pt x="431" y="622" on="0"/>
        <pt x="363" y="601" on="0"/>
        <pt x="334" y="581" on="1"/>
        <pt x="274" y="539" on="0"/>
        <pt x="244" y="468" on="1"/>
        <pt x="531" y="468" on="1"/>
        <pt x="546" y="468" on="0"/>
        <pt x="567" y="447" on="0"/>
        <pt x="567" y="418" on="0"/>
        <pt x="546" y="396" on="0"/>
        <pt x="531" y="396" on="1"/>
        <pt x="223" y="396" on="1"/>
        <pt x="220" y="373" on="0"/>
        <pt x="220" y="324" on="0"/>
        <pt x="223" y="302" on="1"/>
        <pt x="481" y="302" on="1"/>
        <pt x="496" y="302" on="0"/>
        <pt x="518" y="280" on="0"/>
        <pt x="518" y="249" on="0"/>
        <pt x="498" y="229" on="0"/>
        <pt x="481" y="229" on="1"/>
        <pt x="244" y="229" on="1"/>
        <pt x="274" y="158" on="0"/>
        <pt x="393" y="76" on="0"/>
        <pt x="468" y="76" on="1"/>
        <pt x="528" y="76" on="0"/>
        <pt x="577" y="93" on="1"/>
        <pt x="587" y="98" on="0"/>
        <pt x="613" y="98" on="0"/>
        <pt x="637" y="75" on="0"/>
        <pt x="637" y="33" on="0"/>
        <pt x="614" y="22" on="1"/>
        <pt x="548" y="-10" on="0"/>
        <pt x="408" y="-10" on="0"/>
        <pt x="306" y="26" on="0"/>
        <pt x="266" y="58" on="1"/>
        <pt x="181" y="125" on="0"/>
        <pt x="149" y="229" on="1"/>
        <pt x="78" y="229" on="1"/>
        <pt x="63" y="229" on="0"/>
        <pt x="42" y="250" on="0"/>
        <pt x="42" y="265" on="1"/>
        <pt x="42" y="280" on="0"/>
        <pt x="63" y="302" on="0"/>
        <pt x="78" y="302" on="1"/>
        <pt x="133" y="302" on="1"/>
        <pt x="129" y="324" on="0"/>
      </contour>
    </TTGlyph>
    <TTGlyph name="F" xMin="97" yMin="-5" xMax="574" yMax="698">
      <contour>
        <pt x="188" y="613" on="1"/>
        <pt x="188" y="392" on="1"/>
        <pt x="496" y="392" on="1"/>
        <pt x="514" y="392" on="0"/>
        <pt x="539" y="367" on="0"/>
        <pt x="539" y="349" on="1"/>
        <pt x="539" y="331" on="0"/>
        <pt x="514" y="307" on="0"/>
        <pt x="496" y="307" on="1"/>
        <pt x="188" y="307" on="1"/>
        <pt x="188" y="40" on="1"/>
        <pt x="188" y="21" on="0"/>
        <pt x="161" y="-5" on="0"/>
        <pt x="142" y="-5" on="1"/>
        <pt x="123" y="-5" on="0"/>
        <pt x="97" y="21" on="0"/>
        <pt x="97" y="40" on="1"/>
        <pt x="97" y="652" on="1"/>
        <pt x="97" y="671" on="0"/>
        <pt x="123" y="698" on="0"/>
        <pt x="142" y="698" on="1"/>
        <pt x="531" y="698" on="1"/>
        <pt x="549" y="698" on="0"/>
        <pt x="574" y="673" on="0"/>
        <pt x="574" y="655" on="1"/>
        <pt x="574" y="637" on="0"/>
        <pt x="549" y="613" on="0"/>
        <pt x="531" y="613" on="1"/>
      </contour>
    </TTGlyph>
    <TTGlyph name="G" xMin="55" yMin="-10" xMax="673" yMax="708">
      <contour>
        <pt x="418" y="76" on="1"/>
        <pt x="512" y="76" on="0"/>
        <pt x="593" y="120" on="1"/>
        <pt x="593" y="301" on="1"/>
        <pt x="428" y="301" on="1"/>
        <pt x="411" y="301" on="0"/>
        <pt x="387" y="325" on="0"/>
        <pt x="387" y="342" on="1"/>
        <pt x="387" y="359" on="0"/>
        <pt x="411" y="383" on="0"/>
        <pt x="428" y="383" on="1"/>
        <pt x="625" y="383" on="1"/>
        <pt x="645" y="383" on="0"/>
        <pt x="673" y="355" on="0"/>
        <pt x="673" y="335" on="1"/>
        <pt x="673" y="108" on="1"/>
        <pt x="673" y="87" on="0"/>
        <pt x="652" y="54" on="0"/>
        <pt x="635" y="46" on="1"/>
        <pt x="523" y="-10" on="0"/>
        <pt x="406" y="-10" on="1"/>
        <pt x="249" y="-10" on="0"/>
        <pt x="152" y="90" on="1"/>
        <pt x="55" y="191" on="0"/>
        <pt x="55" y="348" on="1"/>
        <pt x="55" y="507" on="0"/>
        <pt x="156" y="610" on="1"/>
        <pt x="253" y="708" on="0"/>
        <pt x="403" y="708" on="1"/>
        <pt x="488" y="708" on="0"/>
        <pt x="605" y="666" on="0"/>
        <pt x="652" y="636" on="1"/>
        <pt x="672" y="625" on="0"/>
        <pt x="672" y="584" on="0"/>
        <pt x="650" y="559" on="0"/>
        <pt x="619" y="559" on="0"/>
        <pt x="609" y="564" on="1"/>
        <pt x="512" y="620" on="0"/>
        <pt x="413" y="620" on="1"/>
        <pt x="297" y="620" on="0"/>
        <pt x="223" y="550" on="1"/>
        <pt x="146" y="476" on="0"/>
        <pt x="146" y="348" on="1"/>
        <pt x="146" y="230" on="0"/>
        <pt x="218" y="154" on="1"/>
        <pt x="292" y="76" on="0"/>
      </contour>
    </TTGlyph>
    <TTGlyph name="H" xMin="97" yMin="-5" xMax="658" yMax="703">
      <contour>
        <pt x="612" y="703" on="1"/>
        <pt x="631" y="703" on="0"/>
        <pt x="658" y="676" on="0"/>
        <pt x="658" y="657" on="1"/>
        <pt x="658" y="40" on="1"/>
        <pt x="658" y="21" on="0"/>
        <pt x="631" y="-5" on="0"/>
        <pt x="612" y="-5" on="1"/>
        <pt x="593" y="-5" on="0"/>
        <pt x="567" y="21" on="0"/>
        <pt x="567" y="40" on="1"/>
        <pt x="567" y="306" on="1"/>
        <pt x="188" y="306" on="1"/>
        <pt x="188" y="40" on="1"/>
        <pt x="188" y="21" on="0"/>
        <pt x="161" y="-5" on="0"/>
        <pt x="142" y="-5" on="1"/>
        <pt x="123" y="-5" on="0"/>
        <pt x="97" y="21" on="0"/>
        <pt x="97" y="40" on="1"/>
        <pt x="97" y="657" on="1"/>
        <pt x="97" y="676" on="0"/>
        <pt x="123" y="703" on="0"/>
        <pt x="142" y="703" on="1"/>
        <pt x="161" y="703" on="0"/>
        <pt x="188" y="676" on="0"/>
        <pt x="188" y="657" on="1"/>
        <pt x="188" y="391" on="1"/>
        <pt x="567" y="391" on="1"/>
        <pt x="567" y="657" on="1"/>
        <pt x="567" y="676" on="0"/>
        <pt x="593" y="703" on="0"/>
      </contour>
    </TTGlyph>
    <TTGlyph name="I" xMin="97" yMin="-5" xMax="188" yMax="703">
      <contour>
        <pt x="142" y="703" on="1"/>
        <pt x="161" y="703" on="0"/>
        <pt x="188" y="676" on="0"/>
        <pt x="188" y="657" on="1"/>
        <pt x="188" y="40" on="1"/>
        <pt x="188" y="21" on="0"/>
        <pt x="161" y="-5" on="0"/>
        <pt x="142" y="-5" on="1"/>
        <pt x="123" y="-5" on="0"/>
        <pt x="97" y="21" on="0"/>
        <pt x="97" y="40" on="1"/>
        <pt x="97" y="657" on="1"/>
        <pt x="97" y="676" on="0"/>
        <pt x="123" y="703" on="0"/>
      </contour>
    </TTGlyph>
    <TTGlyph name="Iacute" xMin="97" yMin="-5" xMax="229" yMax="894">
      <component glyphName="I" x="0" y="0" flags="0x1204"/>
      <component glyphName="acute" x="53" y="172" flags="0x1004"/>
    </TTGlyph>
    <TTGlyph name="Icircumflex" xMin="8" yMin="-5" xMax="278" yMax="877">
      <component glyphName="I" x="0" y="0" flags="0x1204"/>
      <component glyphName="circumflex" x="-60" y="172" flags="0x1004"/>
    </TTGlyph>
    <TTGlyph name="Idieresis" xMin="8" yMin="-5" xMax="279" yMax="849">
      <component glyphName="I" x="0" y="0" flags="0x1204"/>
      <component glyphName="dieresis" x="-55" y="172" flags="0x1004"/>
    </TTGlyph>
    <TTGlyph name="Igrave" xMin="57" yMin="-5" xMax="188" yMax="894">
      <component glyphName="I" x="0" y="0" flags="0x1204"/>
      <component glyphName="grave" x="-12" y="172" flags="0x1004"/>
    </TTGlyph>
    <TTGlyph name="J" xMin="12" yMin="-10" xMax="373" yMax="703">
      <contour>
        <pt x="327" y="703" on="1"/>
        <pt x="346" y="703" on="0"/>
        <pt x="373" y="676" on="0"/>
        <pt x="373" y="657" on="1"/>
        <pt x="373" y="230" on="1"/>
        <pt x="373" y="99" on="0"/>
        <pt x="308" y="38" on="1"/>
        <pt x="256" y="-10" on="0"/>
        <pt x="167" y="-10" on="1"/>
        <pt x="94" y="-10" on="0"/>
        <pt x="34" y="24" on="1"/>
        <pt x="12" y="36" on="0"/>
        <pt x="12" y="77" on="0"/>
        <pt x="33" y="102" on="0"/>
        <pt x="60" y="102" on="0"/>
        <pt x="74" y="95" on="1"/>
        <pt x="112" y="76" on="0"/>
        <pt x="183" y="76" on="0"/>
        <pt x="227" y="87" on="0"/>
        <pt x="244" y="103" on="1"/>
        <pt x="282" y="139" on="0"/>
        <pt x="282" y="224" on="1"/>
        <pt x="282" y="657" on="1"/>
        <pt x="282" y="676" on="0"/>
        <pt x="308" y="703" on="0"/>
      </contour>
    </TTGlyph>
    <TTGlyph name="K" xMin="97" yMin="-5" xMax="640" yMax="703">
      <contour>
        <pt x="629" y="68" on="1"/>
        <pt x="640" y="54" on="0"/>
        <pt x="640" y="20" on="0"/>
        <pt x="615" y="-5" on="0"/>
        <pt x="573" y="-5" on="0"/>
        <pt x="560" y="13" on="1"/>
        <pt x="302" y="342" on="1"/>
        <pt x="188" y="227" on="1"/>
        <pt x="188" y="40" on="1"/>
        <pt x="188" y="21" on="0"/>
        <pt x="161" y="-5" on="0"/>
        <pt x="142" y="-5" on="1"/>
        <pt x="123" y="-5" on="0"/>
        <pt x="97" y="21" on="0"/>
        <pt x="97" y="40" on="1"/>
        <pt x="97" y="657" on="1"/>
        <pt x="97" y="676" on="0"/>
        <pt x="123" y="703" on="0"/>
        <pt x="142" y="703" on="1"/>
        <pt x="161" y="703" on="0"/>
        <pt x="188" y="676" on="0"/>
        <pt x="188" y="657" on="1"/>
        <pt x="188" y="339" on="1"/>
        <pt x="530" y="687" on="1"/>
        <pt x="543" y="703" on="0"/>
        <pt x="582" y="703" on="0"/>
        <pt x="606" y="680" on="0"/>
        <pt x="606" y="643" on="0"/>
        <pt x="595" y="632" on="1"/>
        <pt x="364" y="402" on="1"/>
      </contour>
    </TTGlyph>
    <TTGlyph name="L" xMin="97" yMin="0" xMax="561" yMax="703">
      <contour>
        <pt x="534" y="91" on="0"/>
        <pt x="561" y="64" on="0"/>
        <pt x="561" y="45" on="1"/>
        <pt x="561" y="26" on="0"/>
        <pt x="534" y="0" on="0"/>
        <pt x="515" y="0" on="1"/>
        <pt x="160" y="0" on="1"/>
        <pt x="134" y="0" on="0"/>
        <pt x="97" y="37" on="0"/>
        <pt x="97" y="63" on="1"/>
        <pt x="97" y="657" on="1"/>
        <pt x="97" y="676" on="0"/>
        <pt x="123" y="703" on="0"/>
        <pt x="142" y="703" on="1"/>
        <pt x="161" y="703" on="0"/>
        <pt x="188" y="676" on="0"/>
        <pt x="188" y="657" on="1"/>
        <pt x="188" y="91" on="1"/>
        <pt x="515" y="91" on="1"/>
      </contour>
    </TTGlyph>
    <TTGlyph name="M" xMin="97" yMin="-5" xMax="869" yMax="703">
      <contour>
        <pt x="831" y="703" on="0"/>
        <pt x="869" y="664" on="0"/>
        <pt x="869" y="637" on="1"/>
        <pt x="869" y="40" on="1"/>
        <pt x="869" y="21" on="0"/>
        <pt x="843" y="-5" on="0"/>
        <pt x="824" y="-5" on="1"/>
        <pt x="805" y="-5" on="0"/>
        <pt x="778" y="21" on="0"/>
        <pt x="778" y="40" on="1"/>
        <pt x="778" y="608" on="1"/>
        <pt x="547" y="37" on="1"/>
        <pt x="539" y="18" on="0"/>
        <pt x="505" y="-5" on="0"/>
        <pt x="483" y="-5" on="1"/>
        <pt x="461" y="-5" on="0"/>
        <pt x="427" y="18" on="0"/>
        <pt x="419" y="37" on="1"/>
        <pt x="188" y="608" on="1"/>
        <pt x="188" y="40" on="1"/>
        <pt x="188" y="21" on="0"/>
        <pt x="161" y="-5" on="0"/>
        <pt x="142" y="-5" on="1"/>
        <pt x="123" y="-5" on="0"/>
        <pt x="97" y="21" on="0"/>
        <pt x="97" y="40" on="1"/>
        <pt x="97" y="637" on="1"/>
        <pt x="97" y="664" on="0"/>
        <pt x="135" y="703" on="0"/>
        <pt x="162" y="703" on="1"/>
        <pt x="195" y="703" on="1"/>
        <pt x="215" y="703" on="0"/>
        <pt x="248" y="679" on="0"/>
        <pt x="256" y="661" on="1"/>
        <pt x="483" y="95" on="1"/>
        <pt x="710" y="661" on="1"/>
        <pt x="718" y="679" on="0"/>
        <pt x="751" y="703" on="0"/>
        <pt x="771" y="703" on="1"/>
        <pt x="804" y="703" on="1"/>
      </contour>
    </TTGlyph>
    <TTGlyph name="N" xMin="97" yMin="-5" xMax="706" yMax="703">
      <contour>
        <pt x="660" y="703" on="1"/>
        <pt x="679" y="703" on="0"/>
        <pt x="706" y="676" on="0"/>
        <pt x="706" y="657" on="1"/>
        <pt x="706" y="60" on="1"/>
        <pt x="706" y="33" on="0"/>
        <pt x="667" y="-5" on="0"/>
        <pt x="640" y="-5" on="1"/>
        <pt x="628" y="-5" on="1"/>
        <pt x="595" y="-5" on="0"/>
        <pt x="575" y="22" on="1"/>
        <pt x="188" y="581" on="1"/>
        <pt x="188" y="40" on="1"/>
        <pt x="188" y="21" on="0"/>
        <pt x="161" y="-5" on="0"/>
        <pt x="142" y="-5" on="1"/>
        <pt x="123" y="-5" on="0"/>
        <pt x="97" y="21" on="0"/>
        <pt x="97" y="40" on="1"/>
        <pt x="97" y="637" on="1"/>
        <pt x="97" y="664" on="0"/>
        <pt x="135" y="703" on="0"/>
        <pt x="162" y="703" on="1"/>
        <pt x="175" y="703" on="1"/>
        <pt x="206" y="703" on="0"/>
        <pt x="230" y="673" on="1"/>
        <pt x="615" y="117" on="1"/>
        <pt x="615" y="657" on="1"/>
        <pt x="615" y="676" on="0"/>
        <pt x="641" y="703" on="0"/>
      </contour>
    </TTGlyph>
    <TTGlyph name="Ntilde" xMin="97" yMin="-5" xMax="706" yMax="862">
      <component glyphName="N" x="0" y="0" flags="0x1204"/>
      <component glyphName="tilde" x="190" y="172" flags="0x1004"/>
    </TTGlyph>
    <TTGlyph name="O" xMin="55" yMin="-10" xMax="757" yMax="708">
      <contour>
        <pt x="406" y="708" on="1"/>
        <pt x="564" y="708" on="0"/>
        <pt x="660" y="607" on="1"/>
        <pt x="753" y="508" on="0"/>
        <pt x="757" y="349" on="1"/>
        <pt x="753" y="190" on="0"/>
        <pt x="660" y="91" on="1"/>
        <pt x="564" y="-10" on="0"/>
        <pt x="406" y="-10" on="1"/>
        <pt x="247" y="-10" on="0"/>
        <pt x="152" y="91" on="1"/>
        <pt x="57" y="191" on="0"/>
        <pt x="55" y="349" on="1"/>
        <pt x="57" y="507" on="0"/>
        <pt x="152" y="607" on="1"/>
        <pt x="247" y="708" on="0"/>
      </contour>
      <contour>
        <pt x="406" y="75" on="1"/>
        <pt x="528" y="75" on="0"/>
        <pt x="598" y="154" on="1"/>
        <pt x="666" y="230" on="0"/>
        <pt x="666" y="349" on="1"/>
        <pt x="666" y="468" on="0"/>
        <pt x="598" y="544" on="1"/>
        <pt x="528" y="623" on="0"/>
        <pt x="406" y="623" on="1"/>
        <pt x="284" y="623" on="0"/>
        <pt x="214" y="544" on="1"/>
        <pt x="146" y="468" on="0"/>
        <pt x="146" y="349" on="1"/>
        <pt x="146" y="230" on="0"/>
        <pt x="214" y="154" on="1"/>
        <pt x="284" y="75" on="0"/>
      </contour>
    </TTGlyph>
    <TTGlyph name="Oacute" xMin="55" yMin="-10" xMax="757" yMax="894">
      <component glyphName="O" x="0" y="0" flags="0x1204"/>
      <component glyphName="acute" x="314" y="172" flags="0x1004"/>
    </TTGlyph>
    <TTGlyph name="Ocircumflex" xMin="55" yMin="-10" xMax="757" yMax="877">
      <component glyphName="O" x="0" y="0" flags="0x1204"/>
      <component glyphName="circumflex" x="203" y="172" flags="0x1004"/>
    </TTGlyph>
    <TTGlyph name="Odieresis" xMin="55" yMin="-10" xMax="757" yMax="849">
      <component glyphName="O" x="0" y="0" flags="0x1204"/>
      <component glyphName="dieresis" x="208" y="172" flags="0x1004"/>
    </TTGlyph>
    <TTGlyph name="Ograve" xMin="55" yMin="-10" xMax="757" yMax="894">
      <component glyphName="O" x="0" y="0" flags="0x1204"/>
      <component glyphName="grave" x="253" y="172" flags="0x1004"/>
    </TTGlyph>
    <TTGlyph name="Omega" xMin="54" yMin="0" xMax="736" yMax="708">
      <component glyphName="uni03A9" x="0" y="0" flags="0x1204"/>
    </TTGlyph>
    <TTGlyph name="Oslash" xMin="55" yMin="-30" xMax="757" yMax="727">
      <contour>
        <pt x="178" y="66" on="1"/>
        <pt x="59" y="164" on="0"/>
        <pt x="55" y="349" on="1"/>
        <pt x="57" y="507" on="0"/>
        <pt x="152" y="607" on="1"/>
        <pt x="247" y="708" on="0"/>
        <pt x="406" y="708" on="1"/>
        <pt x="511" y="708" on="0"/>
        <pt x="594" y="659" on="1"/>
        <pt x="634" y="717" on="1"/>
        <pt x="641" y="727" on="0"/>
        <pt x="666" y="727" on="0"/>
        <pt x="680" y="713" on="0"/>
        <pt x="680" y="695" on="0"/>
        <pt x="674" y="686" on="1"/>
        <pt x="635" y="630" on="1"/>
        <pt x="692" y="582" on="0"/>
        <pt x="755" y="438" on="0"/>
        <pt x="757" y="349" on="1"/>
        <pt x="753" y="190" on="0"/>
        <pt x="660" y="91" on="1"/>
        <pt x="564" y="-10" on="0"/>
        <pt x="406" y="-10" on="1"/>
        <pt x="299" y="-10" on="0"/>
        <pt x="219" y="37" on="1"/>
        <pt x="179" y="-20" on="1"/>
        <pt x="172" y="-30" on="0"/>
        <pt x="147" y="-30" on="0"/>
        <pt x="133" y="-16" on="0"/>
        <pt x="133" y="2" on="0"/>
        <pt x="139" y="11" on="1"/>
      </contour>
      <contour>
        <pt x="543" y="588" on="1"/>
        <pt x="483" y="623" on="0"/>
        <pt x="344" y="623" on="0"/>
        <pt x="247" y="581" on="0"/>
        <pt x="214" y="544" on="1"/>
        <pt x="146" y="468" on="0"/>
        <pt x="146" y="349" on="1"/>
        <pt x="146" y="216" on="0"/>
        <pt x="229" y="139" on="1"/>
      </contour>
      <contour>
        <pt x="269" y="109" on="1"/>
        <pt x="328" y="75" on="0"/>
        <pt x="468" y="75" on="0"/>
        <pt x="565" y="117" on="0"/>
        <pt x="598" y="154" on="1"/>
        <pt x="666" y="230" on="0"/>
        <pt x="666" y="349" on="1"/>
        <pt x="666" y="480" on="0"/>
        <pt x="584" y="558" on="1"/>
      </contour>
    </TTGlyph>
    <TTGlyph name="Oslashacute" xMin="55" yMin="-30" xMax="757" yMax="894">
      <component glyphName="Oslash" x="0" y="0" flags="0x1204"/>
      <component glyphName="acute" x="314" y="172" flags="0x1004"/>
    </TTGlyph>
    <TTGlyph name="Otilde" xMin="55" yMin="-10" xMax="757" yMax="862">
      <component glyphName="O" x="0" y="0" flags="0x1204"/>
      <component glyphName="tilde" x="190" y="172" flags="0x1004"/>
    </TTGlyph>
    <TTGlyph name="P" xMin="97" yMin="-5" xMax="637" yMax="698">
      <contour>
        <pt x="370" y="698" on="1"/>
        <pt x="509" y="698" on="0"/>
        <pt x="579" y="626" on="1"/>
        <pt x="637" y="568" on="0"/>
        <pt x="637" y="476" on="1"/>
        <pt x="637" y="384" on="0"/>
        <pt x="579" y="326" on="1"/>
        <pt x="509" y="254" on="0"/>
        <pt x="370" y="254" on="1"/>
        <pt x="188" y="254" on="1"/>
        <pt x="188" y="40" on="1"/>
        <pt x="188" y="21" on="0"/>
        <pt x="161" y="-5" on="0"/>
        <pt x="142" y="-5" on="1"/>
        <pt x="123" y="-5" on="0"/>
        <pt x="97" y="21" on="0"/>
        <pt x="97" y="40" on="1"/>
        <pt x="97" y="652" on="1"/>
        <pt x="97" y="671" on="0"/>
        <pt x="123" y="698" on="0"/>
        <pt x="142" y="698" on="1"/>
      </contour>
      <contour>
        <pt x="361" y="340" on="1"/>
        <pt x="464" y="340" on="0"/>
        <pt x="510" y="384" on="1"/>
        <pt x="546" y="418" on="0"/>
        <pt x="546" y="476" on="1"/>
        <pt x="546" y="569" on="0"/>
        <pt x="453" y="600" on="1"/>
        <pt x="417" y="612" on="0"/>
        <pt x="361" y="612" on="1"/>
        <pt x="188" y="612" on="1"/>
        <pt x="188" y="340" on="1"/>
      </contour>
    </TTGlyph>
    <TTGlyph name="Q" xMin="55" yMin="-152" xMax="757" yMax="708">
      <contour>
        <pt x="466" y="-6" on="1"/>
        <pt x="438" y="-10" on="0"/>
        <pt x="406" y="-10" on="1"/>
        <pt x="247" y="-10" on="0"/>
        <pt x="152" y="91" on="1"/>
        <pt x="57" y="191" on="0"/>
        <pt x="55" y="349" on="1"/>
        <pt x="57" y="507" on="0"/>
        <pt x="152" y="607" on="1"/>
        <pt x="247" y="708" on="0"/>
        <pt x="406" y="708" on="1"/>
        <pt x="564" y="708" on="0"/>
        <pt x="660" y="607" on="1"/>
        <pt x="753" y="508" on="0"/>
        <pt x="757" y="349" on="1"/>
        <pt x="755" y="231" on="0"/>
        <pt x="647" y="57" on="0"/>
        <pt x="550" y="17" on="1"/>
        <pt x="638" y="-80" on="1"/>
        <pt x="650" y="-92" on="0"/>
        <pt x="650" y="-127" on="0"/>
        <pt x="625" y="-152" on="0"/>
        <pt x="588" y="-152" on="0"/>
        <pt x="575" y="-136" on="1"/>
      </contour>
      <contour>
        <pt x="406" y="75" on="1"/>
        <pt x="528" y="75" on="0"/>
        <pt x="598" y="154" on="1"/>
        <pt x="666" y="230" on="0"/>
        <pt x="666" y="349" on="1"/>
        <pt x="666" y="468" on="0"/>
        <pt x="598" y="544" on="1"/>
        <pt x="528" y="623" on="0"/>
        <pt x="406" y="623" on="1"/>
        <pt x="284" y="623" on="0"/>
        <pt x="214" y="544" on="1"/>
        <pt x="146" y="468" on="0"/>
        <pt x="146" y="349" on="1"/>
        <pt x="146" y="230" on="0"/>
        <pt x="214" y="154" on="1"/>
        <pt x="284" y="75" on="0"/>
      </contour>
    </TTGlyph>
    <TTGlyph name="R" xMin="97" yMin="-5" xMax="647" yMax="698">
      <contour>
        <pt x="641" y="40" on="1"/>
        <pt x="641" y="21" on="0"/>
        <pt x="615" y="-5" on="0"/>
        <pt x="575" y="-5" on="0"/>
        <pt x="550" y="20" on="0"/>
        <pt x="550" y="40" on="1"/>
        <pt x="550" y="70" on="1"/>
        <pt x="550" y="151" on="0"/>
        <pt x="514" y="227" on="0"/>
        <pt x="452" y="272" on="0"/>
        <pt x="395" y="272" on="1"/>
        <pt x="188" y="272" on="1"/>
        <pt x="188" y="40" on="1"/>
        <pt x="188" y="21" on="0"/>
        <pt x="161" y="-5" on="0"/>
        <pt x="142" y="-5" on="1"/>
        <pt x="123" y="-5" on="0"/>
        <pt x="97" y="21" on="0"/>
        <pt x="97" y="40" on="1"/>
        <pt x="97" y="652" on="1"/>
        <pt x="97" y="671" on="0"/>
        <pt x="123" y="698" on="0"/>
        <pt x="142" y="698" on="1"/>
        <pt x="375" y="698" on="1"/>
        <pt x="512" y="698" on="0"/>
        <pt x="582" y="640" on="1"/>
        <pt x="647" y="585" on="0"/>
        <pt x="647" y="495" on="1"/>
        <pt x="647" y="437" on="0"/>
        <pt x="582" y="337" on="0"/>
        <pt x="516" y="314" on="1"/>
        <pt x="588" y="295" on="0"/>
        <pt x="620" y="210" on="1"/>
        <pt x="641" y="153" on="0"/>
        <pt x="641" y="86" on="1"/>
      </contour>
      <contour>
        <pt x="369" y="358" on="1"/>
        <pt x="453" y="358" on="0"/>
        <pt x="556" y="424" on="0"/>
        <pt x="556" y="488" on="1"/>
        <pt x="556" y="548" on="0"/>
        <pt x="516" y="578" on="1"/>
        <pt x="468" y="612" on="0"/>
        <pt x="364" y="612" on="1"/>
        <pt x="188" y="612" on="1"/>
        <pt x="188" y="358" on="1"/>
      </contour>
    </TTGlyph>
    <TTGlyph name="S" xMin="51" yMin="-10" xMax="573" yMax="708">
      <contour>
        <pt x="308" y="76" on="1"/>
        <pt x="483" y="76" on="0"/>
        <pt x="483" y="191" on="1"/>
        <pt x="483" y="239" on="0"/>
        <pt x="416" y="268" on="1"/>
        <pt x="387" y="280" on="0"/>
        <pt x="310" y="299" on="0"/>
        <pt x="231" y="321" on="0"/>
        <pt x="154" y="349" on="0"/>
        <pt x="124" y="371" on="1"/>
        <pt x="58" y="421" on="0"/>
        <pt x="58" y="503" on="1"/>
        <pt x="58" y="591" on="0"/>
        <pt x="124" y="647" on="1"/>
        <pt x="196" y="708" on="0"/>
        <pt x="317" y="708" on="1"/>
        <pt x="426" y="708" on="0"/>
        <pt x="516" y="675" on="1"/>
        <pt x="544" y="665" on="0"/>
        <pt x="544" y="635" on="1"/>
        <pt x="544" y="620" on="0"/>
        <pt x="523" y="593" on="0"/>
        <pt x="498" y="593" on="0"/>
        <pt x="476" y="601" on="1"/>
        <pt x="411" y="624" on="0"/>
        <pt x="327" y="624" on="1"/>
        <pt x="250" y="624" on="0"/>
        <pt x="200" y="595" on="1"/>
        <pt x="149" y="565" on="0"/>
        <pt x="149" y="510" on="1"/>
        <pt x="149" y="453" on="0"/>
        <pt x="215" y="424" on="1"/>
        <pt x="245" y="410" on="0"/>
        <pt x="321" y="392" on="0"/>
        <pt x="401" y="372" on="0"/>
        <pt x="477" y="345" on="0"/>
        <pt x="507" y="323" on="1"/>
        <pt x="573" y="275" on="0"/>
        <pt x="573" y="185" on="1"/>
        <pt x="573" y="99" on="0"/>
        <pt x="504" y="45" on="1"/>
        <pt x="433" y="-10" on="0"/>
        <pt x="317" y="-10" on="1"/>
        <pt x="190" y="-10" on="0"/>
        <pt x="79" y="38" on="1"/>
        <pt x="68" y="43" on="0"/>
        <pt x="51" y="65" on="0"/>
        <pt x="51" y="96" on="0"/>
        <pt x="73" y="121" on="0"/>
        <pt x="102" y="121" on="0"/>
        <pt x="145" y="102" on="0"/>
        <pt x="243" y="76" on="0"/>
      </contour>
    </TTGlyph>
    <TTGlyph name="Scommaaccent" xMin="51" yMin="-286" xMax="573" yMax="708">
      <contour>
        <pt x="318" y="-47" on="1"/>
        <pt x="338" y="-47" on="0"/>
        <pt x="368" y="-77" on="0"/>
        <pt x="368" y="-98" on="1"/>
        <pt x="368" y="-150" on="1"/>
        <pt x="368" y="-235" on="0"/>
        <pt x="294" y="-281" on="1"/>
        <pt x="289" y="-286" on="0"/>
        <pt x="268" y="-286" on="0"/>
        <pt x="253" y="-270" on="0"/>
        <pt x="253" y="-245" on="0"/>
        <pt x="267" y="-236" on="1"/>
        <pt x="287" y="-225" on="0"/>
        <pt x="312" y="-190" on="0"/>
        <pt x="312" y="-153" on="1"/>
        <pt x="309" y="-153" on="1"/>
        <pt x="288" y="-153" on="0"/>
        <pt x="258" y="-124" on="0"/>
        <pt x="258" y="-103" on="1"/>
        <pt x="258" y="-98" on="1"/>
        <pt x="258" y="-77" on="0"/>
        <pt x="288" y="-47" on="0"/>
        <pt x="309" y="-47" on="1"/>
      </contour>
      <contour>
        <pt x="308" y="76" on="1"/>
        <pt x="483" y="76" on="0"/>
        <pt x="483" y="191" on="1"/>
        <pt x="483" y="239" on="0"/>
        <pt x="416" y="268" on="1"/>
        <pt x="387" y="280" on="0"/>
        <pt x="310" y="299" on="0"/>
        <pt x="231" y="321" on="0"/>
        <pt x="154" y="349" on="0"/>
        <pt x="124" y="371" on="1"/>
        <pt x="58" y="421" on="0"/>
        <pt x="58" y="503" on="1"/>
        <pt x="58" y="591" on="0"/>
        <pt x="124" y="647" on="1"/>
        <pt x="196" y="708" on="0"/>
        <pt x="317" y="708" on="1"/>
        <pt x="426" y="708" on="0"/>
        <pt x="516" y="675" on="1"/>
        <pt x="544" y="665" on="0"/>
        <pt x="544" y="635" on="1"/>
        <pt x="544" y="620" on="0"/>
        <pt x="523" y="593" on="0"/>
        <pt x="498" y="593" on="0"/>
        <pt x="476" y="601" on="1"/>
        <pt x="411" y="624" on="0"/>
        <pt x="327" y="624" on="1"/>
        <pt x="250" y="624" on="0"/>
        <pt x="200" y="595" on="1"/>
        <pt x="149" y="565" on="0"/>
        <pt x="149" y="510" on="1"/>
        <pt x="149" y="453" on="0"/>
        <pt x="215" y="424" on="1"/>
        <pt x="245" y="410" on="0"/>
        <pt x="321" y="392" on="0"/>
        <pt x="401" y="372" on="0"/>
        <pt x="477" y="345" on="0"/>
        <pt x="507" y="323" on="1"/>
        <pt x="573" y="275" on="0"/>
        <pt x="573" y="185" on="1"/>
        <pt x="573" y="99" on="0"/>
        <pt x="504" y="45" on="1"/>
        <pt x="433" y="-10" on="0"/>
        <pt x="317" y="-10" on="1"/>
        <pt x="190" y="-10" on="0"/>
        <pt x="79" y="38" on="1"/>
        <pt x="68" y="43" on="0"/>
        <pt x="51" y="65" on="0"/>
        <pt x="51" y="96" on="0"/>
        <pt x="73" y="121" on="0"/>
        <pt x="102" y="121" on="0"/>
        <pt x="145" y="102" on="0"/>
        <pt x="243" y="76" on="0"/>
      </contour>
    </TTGlyph>
    <TTGlyph name="T" xMin="14" yMin="-5" xMax="597" yMax="698">
      <contour>
        <pt x="572" y="698" on="0"/>
        <pt x="597" y="673" on="0"/>
        <pt x="597" y="655" on="1"/>
        <pt x="597" y="637" on="0"/>
        <pt x="572" y="613" on="0"/>
        <pt x="554" y="613" on="1"/>
        <pt x="351" y="613" on="1"/>
        <pt x="351" y="40" on="1"/>
        <pt x="351" y="21" on="0"/>
        <pt x="324" y="-5" on="0"/>
        <pt x="305" y="-5" on="1"/>
        <pt x="286" y="-5" on="0"/>
        <pt x="260" y="21" on="0"/>
        <pt x="260" y="40" on="1"/>
        <pt x="260" y="613" on="1"/>
        <pt x="56" y="613" on="1"/>
        <pt x="38" y="613" on="0"/>
        <pt x="14" y="637" on="0"/>
        <pt x="14" y="655" on="1"/>
        <pt x="14" y="673" on="0"/>
        <pt x="38" y="698" on="0"/>
        <pt x="56" y="698" on="1"/>
        <pt x="554" y="698" on="1"/>
      </contour>
    </TTGlyph>
    <TTGlyph name="Thorn" xMin="97" yMin="-5" xMax="637" yMax="703">
      <contour>
        <pt x="370" y="586" on="1"/>
        <pt x="509" y="586" on="0"/>
        <pt x="579" y="514" on="1"/>
        <pt x="637" y="456" on="0"/>
        <pt x="637" y="364" on="1"/>
        <pt x="637" y="272" on="0"/>
        <pt x="579" y="214" on="1"/>
        <pt x="509" y="142" on="0"/>
        <pt x="370" y="142" on="1"/>
        <pt x="188" y="142" on="1"/>
        <pt x="188" y="40" on="1"/>
        <pt x="188" y="21" on="0"/>
        <pt x="161" y="-5" on="0"/>
        <pt x="142" y="-5" on="1"/>
        <pt x="123" y="-5" on="0"/>
        <pt x="97" y="21" on="0"/>
        <pt x="97" y="40" on="1"/>
        <pt x="97" y="657" on="1"/>
        <pt x="97" y="676" on="0"/>
        <pt x="123" y="703" on="0"/>
        <pt x="142" y="703" on="1"/>
        <pt x="161" y="703" on="0"/>
        <pt x="188" y="676" on="0"/>
        <pt x="188" y="657" on="1"/>
        <pt x="188" y="586" on="1"/>
      </contour>
      <contour>
        <pt x="361" y="228" on="1"/>
        <pt x="464" y="228" on="0"/>
        <pt x="510" y="272" on="1"/>
        <pt x="546" y="306" on="0"/>
        <pt x="546" y="364" on="1"/>
        <pt x="546" y="457" on="0"/>
        <pt x="453" y="488" on="1"/>
        <pt x="417" y="500" on="0"/>
        <pt x="361" y="500" on="1"/>
        <pt x="188" y="500" on="1"/>
        <pt x="188" y="228" on="1"/>
      </contour>
    </TTGlyph>
    <TTGlyph name="U" xMin="92" yMin="-10" xMax="666" yMax="703">
      <contour>
        <pt x="620" y="703" on="1"/>
        <pt x="639" y="703" on="0"/>
        <pt x="666" y="676" on="0"/>
        <pt x="666" y="657" on="1"/>
        <pt x="666" y="262" on="1"/>
        <pt x="666" y="131" on="0"/>
        <pt x="572" y="56" on="1"/>
        <pt x="491" y="-10" on="0"/>
        <pt x="379" y="-10" on="1"/>
        <pt x="265" y="-10" on="0"/>
        <pt x="185" y="56" on="1"/>
        <pt x="92" y="131" on="0"/>
        <pt x="92" y="262" on="1"/>
        <pt x="92" y="657" on="1"/>
        <pt x="92" y="676" on="0"/>
        <pt x="118" y="703" on="0"/>
        <pt x="137" y="703" on="1"/>
        <pt x="156" y="703" on="0"/>
        <pt x="183" y="676" on="0"/>
        <pt x="183" y="657" on="1"/>
        <pt x="183" y="259" on="1"/>
        <pt x="183" y="170" on="0"/>
        <pt x="244" y="119" on="1"/>
        <pt x="300" y="73" on="0"/>
        <pt x="379" y="73" on="1"/>
        <pt x="458" y="73" on="0"/>
        <pt x="514" y="119" on="1"/>
        <pt x="575" y="170" on="0"/>
        <pt x="575" y="259" on="1"/>
        <pt x="575" y="657" on="1"/>
        <pt x="575" y="676" on="0"/>
        <pt x="601" y="703" on="0"/>
      </contour>
    </TTGlyph>
    <TTGlyph name="Uacute" xMin="92" yMin="-10" xMax="666" yMax="894">
      <component glyphName="U" x="0" y="0" flags="0x1204"/>
      <component glyphName="acute" x="281" y="172" flags="0x1004"/>
    </TTGlyph>
    <TTGlyph name="Ucircumflex" xMin="92" yMin="-10" xMax="666" yMax="877">
      <component glyphName="U" x="0" y="0" flags="0x1204"/>
      <component glyphName="circumflex" x="176" y="172" flags="0x1004"/>
    </TTGlyph>
    <TTGlyph name="Udieresis" xMin="92" yMin="-10" xMax="666" yMax="849">
      <component glyphName="U" x="0" y="0" flags="0x1204"/>
      <component glyphName="dieresis" x="181" y="172" flags="0x1004"/>
    </TTGlyph>
    <TTGlyph name="Ugrave" xMin="92" yMin="-10" xMax="666" yMax="894">
      <component glyphName="U" x="0" y="0" flags="0x1204"/>
      <component glyphName="grave" x="232" y="172" flags="0x1004"/>
    </TTGlyph>
    <TTGlyph name="V" xMin="24" yMin="-5" xMax="670" yMax="703">
      <contour>
        <pt x="347" y="86" on="1"/>
        <pt x="582" y="672" on="1"/>
        <pt x="595" y="703" on="0"/>
        <pt x="646" y="703" on="0"/>
        <pt x="670" y="677" on="0"/>
        <pt x="670" y="647" on="0"/>
        <pt x="667" y="640" on="1"/>
        <pt x="420" y="41" on="1"/>
        <pt x="399" y="-5" on="0"/>
        <pt x="358" y="-5" on="1"/>
        <pt x="336" y="-5" on="1"/>
        <pt x="295" y="-5" on="0"/>
        <pt x="274" y="41" on="1"/>
        <pt x="27" y="640" on="1"/>
        <pt x="24" y="647" on="0"/>
        <pt x="24" y="677" on="0"/>
        <pt x="48" y="703" on="0"/>
        <pt x="66" y="703" on="1"/>
        <pt x="99" y="703" on="0"/>
        <pt x="112" y="672" on="1"/>
      </contour>
    </TTGlyph>
    <TTGlyph name="W" xMin="26" yMin="-5" xMax="982" yMax="703">
      <contour>
        <pt x="504" y="703" on="1"/>
        <pt x="522" y="703" on="0"/>
        <pt x="551" y="682" on="0"/>
        <pt x="556" y="665" on="1"/>
        <pt x="725" y="115" on="1"/>
        <pt x="893" y="667" on="1"/>
        <pt x="904" y="703" on="0"/>
        <pt x="938" y="703" on="1"/>
        <pt x="958" y="703" on="0"/>
        <pt x="982" y="680" on="0"/>
        <pt x="982" y="653" on="0"/>
        <pt x="979" y="642" on="1"/>
        <pt x="783" y="40" on="1"/>
        <pt x="767" y="-5" on="0"/>
        <pt x="724" y="-5" on="1"/>
        <pt x="704" y="-5" on="0"/>
        <pt x="671" y="20" on="0"/>
        <pt x="665" y="40" on="1"/>
        <pt x="504" y="550" on="1"/>
        <pt x="343" y="40" on="1"/>
        <pt x="337" y="20" on="0"/>
        <pt x="304" y="-5" on="0"/>
        <pt x="284" y="-5" on="1"/>
        <pt x="241" y="-5" on="0"/>
        <pt x="225" y="40" on="1"/>
        <pt x="29" y="642" on="1"/>
        <pt x="26" y="653" on="0"/>
        <pt x="26" y="680" on="0"/>
        <pt x="50" y="703" on="0"/>
        <pt x="68" y="703" on="1"/>
        <pt x="104" y="703" on="0"/>
        <pt x="115" y="667" on="1"/>
        <pt x="283" y="115" on="1"/>
        <pt x="452" y="665" on="1"/>
        <pt x="457" y="682" on="0"/>
        <pt x="486" y="703" on="0"/>
      </contour>
    </TTGlyph>
    <TTGlyph name="X" xMin="43" yMin="-5" xMax="626" yMax="703">
      <contour>
        <pt x="617" y="66" on="1"/>
        <pt x="626" y="55" on="0"/>
        <pt x="626" y="22" on="0"/>
        <pt x="602" y="-5" on="0"/>
        <pt x="586" y="-5" on="1"/>
        <pt x="559" y="-5" on="0"/>
        <pt x="545" y="14" on="1"/>
        <pt x="331" y="283" on="1"/>
        <pt x="120" y="13" on="1"/>
        <pt x="105" y="-5" on="0"/>
        <pt x="68" y="-5" on="0"/>
        <pt x="43" y="20" on="0"/>
        <pt x="43" y="53" on="0"/>
        <pt x="52" y="65" on="1"/>
        <pt x="283" y="349" on="1"/>
        <pt x="54" y="631" on="1"/>
        <pt x="45" y="643" on="0"/>
        <pt x="45" y="678" on="0"/>
        <pt x="70" y="703" on="0"/>
        <pt x="113" y="703" on="0"/>
        <pt x="126" y="685" on="1"/>
        <pt x="337" y="417" on="1"/>
        <pt x="548" y="687" on="1"/>
        <pt x="559" y="703" on="0"/>
        <pt x="599" y="703" on="0"/>
        <pt x="625" y="678" on="0"/>
        <pt x="625" y="646" on="0"/>
        <pt x="617" y="635" on="1"/>
        <pt x="386" y="350" on="1"/>
      </contour>
    </TTGlyph>
    <TTGlyph name="Y" xMin="30" yMin="-5" xMax="616" yMax="703">
      <contour>
        <pt x="532" y="680" on="1"/>
        <pt x="547" y="703" on="0"/>
        <pt x="592" y="703" on="0"/>
        <pt x="616" y="677" on="0"/>
        <pt x="616" y="643" on="0"/>
        <pt x="608" y="630" on="1"/>
        <pt x="368" y="295" on="1"/>
        <pt x="368" y="40" on="1"/>
        <pt x="368" y="21" on="0"/>
        <pt x="342" y="-5" on="0"/>
        <pt x="323" y="-5" on="1"/>
        <pt x="304" y="-5" on="0"/>
        <pt x="277" y="21" on="0"/>
        <pt x="277" y="40" on="1"/>
        <pt x="277" y="295" on="1"/>
        <pt x="38" y="630" on="1"/>
        <pt x="30" y="643" on="0"/>
        <pt x="30" y="677" on="0"/>
        <pt x="54" y="703" on="0"/>
        <pt x="99" y="703" on="0"/>
        <pt x="114" y="680" on="1"/>
        <pt x="323" y="376" on="1"/>
      </contour>
    </TTGlyph>
    <TTGlyph name="Yacute" xMin="30" yMin="-5" xMax="616" yMax="894">
      <component glyphName="Y" x="0" y="0" flags="0x1204"/>
      <component glyphName="acute" x="234" y="172" flags="0x1004"/>
    </TTGlyph>
    <TTGlyph name="Z" xMin="47" yMin="0" xMax="593" yMax="698">
      <contour>
        <pt x="568" y="85" on="0"/>
        <pt x="593" y="60" on="0"/>
        <pt x="593" y="42" on="1"/>
        <pt x="593" y="24" on="0"/>
        <pt x="568" y="0" on="0"/>
        <pt x="550" y="0" on="1"/>
        <pt x="105" y="0" on="1"/>
        <pt x="81" y="0" on="0"/>
        <pt x="47" y="34" on="0"/>
        <pt x="47" y="80" on="0"/>
        <pt x="59" y="95" on="1"/>
        <pt x="477" y="611" on="1"/>
        <pt x="92" y="611" on="1"/>
        <pt x="74" y="611" on="0"/>
        <pt x="49" y="636" on="0"/>
        <pt x="49" y="654" on="1"/>
        <pt x="49" y="672" on="0"/>
        <pt x="74" y="698" on="0"/>
        <pt x="92" y="698" on="1"/>
        <pt x="526" y="698" on="1"/>
        <pt x="555" y="698" on="0"/>
        <pt x="587" y="661" on="0"/>
        <pt x="587" y="614" on="0"/>
        <pt x="571" y="596" on="1"/>
        <pt x="158" y="85" on="1"/>
        <pt x="550" y="85" on="1"/>
      </contour>
    </TTGlyph>
    <TTGlyph name="a" xMin="38" yMin="-10" xMax="480" yMax="520">
      <contour>
        <pt x="98" y="484" on="1"/>
        <pt x="182" y="520" on="0"/>
        <pt x="272" y="520" on="1"/>
        <pt x="374" y="520" on="0"/>
        <pt x="430" y="458" on="1"/>
        <pt x="480" y="404" on="0"/>
        <pt x="480" y="323" on="1"/>
        <pt x="480" y="40" on="1"/>
        <pt x="480" y="21" on="0"/>
        <pt x="453" y="-5" on="0"/>
        <pt x="434" y="-5" on="1"/>
        <pt x="415" y="-5" on="0"/>
        <pt x="389" y="21" on="0"/>
        <pt x="389" y="40" on="1"/>
        <pt x="389" y="66" on="1"/>
        <pt x="362" y="38" on="0"/>
        <pt x="271" y="-10" on="0"/>
        <pt x="201" y="-10" on="1"/>
        <pt x="132" y="-10" on="0"/>
        <pt x="86" y="30" on="1"/>
        <pt x="38" y="72" on="0"/>
        <pt x="38" y="140" on="1"/>
        <pt x="38" y="214" on="0"/>
        <pt x="94" y="256" on="1"/>
        <pt x="155" y="302" on="0"/>
        <pt x="268" y="302" on="1"/>
        <pt x="389" y="302" on="1"/>
        <pt x="389" y="310" on="1"/>
        <pt x="389" y="377" on="0"/>
        <pt x="323" y="434" on="0"/>
        <pt x="255" y="434" on="1"/>
        <pt x="197" y="434" on="0"/>
        <pt x="122" y="410" on="1"/>
        <pt x="114" y="408" on="0"/>
        <pt x="94" y="408" on="0"/>
        <pt x="72" y="429" on="0"/>
        <pt x="72" y="473" on="0"/>
      </contour>
      <contour>
        <pt x="129" y="150" on="1"/>
        <pt x="129" y="70" on="0"/>
        <pt x="235" y="70" on="1"/>
        <pt x="282" y="70" on="0"/>
        <pt x="363" y="116" on="0"/>
        <pt x="389" y="145" on="1"/>
        <pt x="389" y="229" on="1"/>
        <pt x="280" y="229" on="1"/>
        <pt x="209" y="229" on="0"/>
        <pt x="129" y="193" on="0"/>
      </contour>
    </TTGlyph>
    <TTGlyph name="aacute" xMin="38" yMin="-10" xMax="480" yMax="722">
      <component glyphName="a" x="0" y="0" flags="0x1204"/>
      <component glyphName="acute" x="176" y="0" flags="0x1004"/>
    </TTGlyph>
    <TTGlyph name="acircumflex" xMin="38" yMin="-10" xMax="480" yMax="705">
      <component glyphName="a" x="0" y="0" flags="0x1204"/>
      <component glyphName="circumflex" x="70" y="0" flags="0x1004"/>
    </TTGlyph>
    <TTGlyph name="acute" xMin="48" yMin="567" xMax="176" yMax="722">
      <contour>
        <pt x="106" y="703" on="1"/>
        <pt x="116" y="722" on="0"/>
        <pt x="136" y="722" on="1"/>
        <pt x="176" y="722" on="0"/>
        <pt x="176" y="685" on="1"/>
        <pt x="176" y="671" on="0"/>
        <pt x="166" y="660" on="1"/>
        <pt x="97" y="578" on="1"/>
        <pt x="88" y="567" on="0"/>
        <pt x="63" y="567" on="0"/>
        <pt x="48" y="582" on="0"/>
        <pt x="48" y="591" on="1"/>
        <pt x="48" y="606" on="0"/>
        <pt x="55" y="613" on="1"/>
      </contour>
    </TTGlyph>
    <TTGlyph name="adieresis" xMin="38" yMin="-10" xMax="480" yMax="677">
      <component glyphName="a" x="0" y="0" flags="0x1204"/>
      <component glyphName="dieresis" x="76" y="0" flags="0x1004"/>
    </TTGlyph>
    <TTGlyph name="ae" xMin="37" yMin="-10" xMax="861" yMax="520">
      <contour>
        <pt x="441" y="436" on="1"/>
        <pt x="505" y="520" on="0"/>
        <pt x="622" y="520" on="1"/>
        <pt x="732" y="520" on="0"/>
        <pt x="798" y="448" on="1"/>
        <pt x="861" y="379" on="0"/>
        <pt x="861" y="269" on="1"/>
        <pt x="861" y="252" on="0"/>
        <pt x="838" y="226" on="0"/>
        <pt x="817" y="226" on="1"/>
        <pt x="473" y="226" on="1"/>
        <pt x="491" y="75" on="0"/>
        <pt x="650" y="75" on="1"/>
        <pt x="723" y="75" on="0"/>
        <pt x="785" y="106" on="1"/>
        <pt x="793" y="110" on="0"/>
        <pt x="819" y="110" on="0"/>
        <pt x="843" y="88" on="0"/>
        <pt x="843" y="74" on="1"/>
        <pt x="843" y="48" on="0"/>
        <pt x="800" y="25" on="0"/>
        <pt x="766" y="9" on="0"/>
        <pt x="746" y="3" on="1"/>
        <pt x="701" y="-10" on="0"/>
        <pt x="642" y="-10" on="1"/>
        <pt x="505" y="-10" on="0"/>
        <pt x="439" y="77" on="1"/>
        <pt x="381" y="-10" on="0"/>
        <pt x="233" y="-10" on="1"/>
        <pt x="150" y="-10" on="0"/>
        <pt x="95" y="30" on="1"/>
        <pt x="37" y="71" on="0"/>
        <pt x="37" y="140" on="1"/>
        <pt x="37" y="253" on="0"/>
        <pt x="165" y="288" on="1"/>
        <pt x="208" y="299" on="0"/>
        <pt x="267" y="299" on="1"/>
        <pt x="388" y="299" on="1"/>
        <pt x="388" y="310" on="1"/>
        <pt x="388" y="377" on="0"/>
        <pt x="322" y="434" on="0"/>
        <pt x="254" y="434" on="1"/>
        <pt x="196" y="434" on="0"/>
        <pt x="121" y="410" on="1"/>
        <pt x="113" y="408" on="0"/>
        <pt x="93" y="408" on="0"/>
        <pt x="71" y="429" on="0"/>
        <pt x="71" y="473" on="0"/>
        <pt x="102" y="486" on="1"/>
        <pt x="181" y="520" on="0"/>
        <pt x="270" y="520" on="1"/>
        <pt x="389" y="520" on="0"/>
      </contour>
      <contour>
        <pt x="388" y="226" on="1"/>
        <pt x="279" y="226" on="1"/>
        <pt x="208" y="226" on="0"/>
        <pt x="128" y="193" on="0"/>
        <pt x="128" y="150" on="1"/>
        <pt x="128" y="118" on="0"/>
        <pt x="190" y="70" on="0"/>
        <pt x="251" y="70" on="1"/>
        <pt x="344" y="70" on="0"/>
        <pt x="376" y="120" on="1"/>
        <pt x="388" y="139" on="0"/>
        <pt x="388" y="169" on="1"/>
      </contour>
      <contour>
        <pt x="771" y="299" on="1"/>
        <pt x="767" y="371" on="0"/>
        <pt x="718" y="410" on="1"/>
        <pt x="677" y="443" on="0"/>
        <pt x="622" y="443" on="1"/>
        <pt x="567" y="443" on="0"/>
        <pt x="526" y="410" on="1"/>
        <pt x="477" y="371" on="0"/>
        <pt x="473" y="299" on="1"/>
      </contour>
    </TTGlyph>
    <TTGlyph name="aeacute" xMin="37" yMin="-10" xMax="861" yMax="722">
      <component glyphName="ae" x="0" y="0" flags="0x1204"/>
      <component glyphName="acute" x="354" y="0" flags="0x1004"/>
    </TTGlyph>
    <TTGlyph name="agrave" xMin="38" yMin="-10" xMax="480" yMax="722">
      <component glyphName="a" x="0" y="0" flags="0x1204"/>
      <component glyphName="grave" x="120" y="0" flags="0x1004"/>
    </TTGlyph>
    <TTGlyph name="ampersand" xMin="71" yMin="-10" xMax="660" yMax="708">
      <contour>
        <pt x="521" y="68" on="1"/>
        <pt x="430" y="-10" on="0"/>
        <pt x="316" y="-10" on="1"/>
        <pt x="193" y="-10" on="0"/>
        <pt x="127" y="56" on="1"/>
        <pt x="71" y="112" on="0"/>
        <pt x="71" y="196" on="1"/>
        <pt x="71" y="264" on="0"/>
        <pt x="112" y="321" on="1"/>
        <pt x="144" y="364" on="0"/>
        <pt x="184" y="388" on="1"/>
        <pt x="158" y="420" on="0"/>
        <pt x="123" y="485" on="0"/>
        <pt x="123" y="568" on="0"/>
        <pt x="149" y="632" on="0"/>
        <pt x="173" y="656" on="1"/>
        <pt x="225" y="708" on="0"/>
        <pt x="310" y="708" on="1"/>
        <pt x="377" y="708" on="0"/>
        <pt x="443" y="664" on="1"/>
        <pt x="461" y="654" on="0"/>
        <pt x="461" y="620" on="0"/>
        <pt x="441" y="599" on="0"/>
        <pt x="418" y="599" on="0"/>
        <pt x="403" y="607" on="1"/>
        <pt x="360" y="630" on="0"/>
        <pt x="288" y="630" on="0"/>
        <pt x="248" y="614" on="0"/>
        <pt x="234" y="601" on="1"/>
        <pt x="207" y="575" on="0"/>
        <pt x="207" y="515" on="0"/>
        <pt x="218" y="481" on="0"/>
        <pt x="230" y="464" on="1"/>
        <pt x="247" y="438" on="0"/>
        <pt x="307" y="383" on="1"/>
        <pt x="516" y="186" on="1"/>
        <pt x="533" y="212" on="0"/>
        <pt x="554" y="258" on="0"/>
        <pt x="575" y="272" on="0"/>
        <pt x="606" y="272" on="0"/>
        <pt x="630" y="249" on="0"/>
        <pt x="630" y="235" on="1"/>
        <pt x="630" y="203" on="0"/>
        <pt x="577" y="129" on="1"/>
        <pt x="644" y="65" on="1"/>
        <pt x="660" y="51" on="0"/>
        <pt x="660" y="17" on="0"/>
        <pt x="639" y="-8" on="0"/>
        <pt x="601" y="-8" on="0"/>
        <pt x="588" y="4" on="1"/>
      </contour>
      <contour>
        <pt x="239" y="332" on="1"/>
        <pt x="184" y="297" on="0"/>
        <pt x="164" y="240" on="1"/>
        <pt x="157" y="219" on="0"/>
        <pt x="157" y="165" on="0"/>
        <pt x="181" y="118" on="0"/>
        <pt x="201" y="102" on="1"/>
        <pt x="243" y="67" on="0"/>
        <pt x="357" y="67" on="0"/>
        <pt x="433" y="100" on="0"/>
        <pt x="462" y="123" on="1"/>
      </contour>
    </TTGlyph>
    <TTGlyph name="approxequal" xMin="83" yMin="126" xMax="595" yMax="451">
      <contour>
        <pt x="578" y="445" on="0"/>
        <pt x="595" y="428" on="0"/>
        <pt x="595" y="412" on="0"/>
        <pt x="593" y="406" on="1"/>
        <pt x="560" y="311" on="0"/>
        <pt x="469" y="311" on="1"/>
        <pt x="413" y="311" on="0"/>
        <pt x="330" y="348" on="1"/>
        <pt x="298" y="363" on="0"/>
        <pt x="238" y="386" on="0"/>
        <pt x="208" y="386" on="1"/>
        <pt x="154" y="386" on="0"/>
        <pt x="136" y="335" on="1"/>
        <pt x="129" y="317" on="0"/>
        <pt x="100" y="317" on="0"/>
        <pt x="83" y="334" on="0"/>
        <pt x="83" y="350" on="0"/>
        <pt x="86" y="356" on="1"/>
        <pt x="127" y="451" on="0"/>
        <pt x="209" y="451" on="1"/>
        <pt x="265" y="451" on="0"/>
        <pt x="348" y="414" on="1"/>
        <pt x="380" y="399" on="0"/>
        <pt x="440" y="376" on="0"/>
        <pt x="469" y="376" on="1"/>
        <pt x="523" y="376" on="0"/>
        <pt x="540" y="425" on="1"/>
        <pt x="548" y="445" on="0"/>
      </contour>
      <contour>
        <pt x="578" y="260" on="0"/>
        <pt x="595" y="243" on="0"/>
        <pt x="595" y="227" on="0"/>
        <pt x="593" y="221" on="1"/>
        <pt x="560" y="126" on="0"/>
        <pt x="469" y="126" on="1"/>
        <pt x="413" y="126" on="0"/>
        <pt x="330" y="164" on="1"/>
        <pt x="298" y="178" on="0"/>
        <pt x="238" y="201" on="0"/>
        <pt x="208" y="201" on="1"/>
        <pt x="154" y="201" on="0"/>
        <pt x="136" y="150" on="1"/>
        <pt x="129" y="132" on="0"/>
        <pt x="100" y="132" on="0"/>
        <pt x="83" y="149" on="0"/>
        <pt x="83" y="165" on="0"/>
        <pt x="86" y="171" on="1"/>
        <pt x="127" y="266" on="0"/>
        <pt x="209" y="266" on="1"/>
        <pt x="265" y="266" on="0"/>
        <pt x="348" y="228" on="1"/>
        <pt x="380" y="214" on="0"/>
        <pt x="440" y="191" on="0"/>
        <pt x="469" y="191" on="1"/>
        <pt x="523" y="191" on="0"/>
        <pt x="540" y="240" on="1"/>
        <pt x="548" y="260" on="0"/>
      </contour>
    </TTGlyph>
    <TTGlyph name="aring" xMin="38" yMin="-10" xMax="480" yMax="739">
      <component glyphName="a" x="0" y="0" flags="0x1204"/>
      <component glyphName="ring" x="132" y="0" flags="0x1004"/>
    </TTGlyph>
    <TTGlyph name="asciicircum" xMin="82" yMin="415" xMax="440" yMax="702">
      <contour>
        <pt x="280" y="702" on="1"/>
        <pt x="300" y="702" on="0"/>
        <pt x="321" y="682" on="0"/>
        <pt x="329" y="668" on="1"/>
        <pt x="434" y="469" on="1"/>
        <pt x="436" y="464" on="0"/>
        <pt x="440" y="456" on="0"/>
        <pt x="440" y="437" on="0"/>
        <pt x="420" y="415" on="0"/>
        <pt x="404" y="415" on="1"/>
        <pt x="384" y="415" on="0"/>
        <pt x="374" y="431" on="1"/>
        <pt x="372" y="435" on="0"/>
        <pt x="350" y="472" on="0"/>
        <pt x="303" y="548" on="0"/>
        <pt x="261" y="616" on="1"/>
        <pt x="219" y="548" on="0"/>
        <pt x="173" y="473" on="0"/>
        <pt x="150" y="436" on="0"/>
        <pt x="148" y="432" on="1"/>
        <pt x="138" y="415" on="0"/>
        <pt x="102" y="415" on="0"/>
        <pt x="82" y="437" on="0"/>
        <pt x="82" y="456" on="0"/>
        <pt x="86" y="464" on="0"/>
        <pt x="88" y="469" on="1"/>
        <pt x="193" y="668" on="1"/>
        <pt x="201" y="682" on="0"/>
        <pt x="222" y="702" on="0"/>
        <pt x="242" y="702" on="1"/>
      </contour>
    </TTGlyph>
    <TTGlyph name="asciitilde" xMin="74" yMin="206" xMax="568" yMax="367">
      <contour>
        <pt x="502" y="315" on="0"/>
        <pt x="511" y="337" on="0"/>
        <pt x="526" y="366" on="0"/>
        <pt x="540" y="366" on="1"/>
        <pt x="568" y="366" on="0"/>
        <pt x="568" y="343" on="1"/>
        <pt x="568" y="339" on="0"/>
        <pt x="567" y="335" on="1"/>
        <pt x="555" y="269" on="0"/>
        <pt x="486" y="206" on="0"/>
        <pt x="400" y="206" on="0"/>
        <pt x="334" y="230" on="0"/>
        <pt x="275" y="258" on="0"/>
        <pt x="221" y="282" on="0"/>
        <pt x="192" y="282" on="1"/>
        <pt x="140" y="282" on="0"/>
        <pt x="124" y="228" on="1"/>
        <pt x="119" y="209" on="0"/>
        <pt x="89" y="209" on="0"/>
        <pt x="74" y="224" on="0"/>
        <pt x="74" y="259" on="0"/>
        <pt x="94" y="306" on="0"/>
        <pt x="112" y="324" on="1"/>
        <pt x="152" y="367" on="0"/>
        <pt x="241" y="367" on="0"/>
        <pt x="308" y="343" on="0"/>
        <pt x="367" y="315" on="0"/>
        <pt x="421" y="291" on="0"/>
        <pt x="467" y="291" on="0"/>
        <pt x="488" y="300" on="0"/>
      </contour>
    </TTGlyph>
    <TTGlyph name="asterisk" xMin="66" yMin="384" xMax="350" yMax="702">
      <contour>
        <pt x="236" y="543" on="1"/>
        <pt x="336" y="504" on="1"/>
        <pt x="350" y="497" on="0"/>
        <pt x="350" y="484" on="1"/>
        <pt x="350" y="457" on="0"/>
        <pt x="328" y="450" on="1"/>
        <pt x="314" y="445" on="0"/>
        <pt x="303" y="454" on="1"/>
        <pt x="300" y="456" on="0"/>
        <pt x="252" y="495" on="0"/>
        <pt x="222" y="519" on="1"/>
        <pt x="228" y="481" on="0"/>
        <pt x="231" y="460" on="1"/>
        <pt x="236" y="428" on="1"/>
        <pt x="237" y="418" on="0"/>
        <pt x="238" y="414" on="0"/>
        <pt x="238" y="400" on="0"/>
        <pt x="219" y="384" on="0"/>
        <pt x="208" y="384" on="1"/>
        <pt x="197" y="384" on="0"/>
        <pt x="178" y="400" on="0"/>
        <pt x="178" y="407" on="1"/>
        <pt x="178" y="416" on="1"/>
        <pt x="178" y="421" on="0"/>
        <pt x="188" y="481" on="0"/>
        <pt x="194" y="519" on="1"/>
        <pt x="110" y="452" on="0"/>
        <pt x="99" y="446" on="0"/>
        <pt x="88" y="450" on="1"/>
        <pt x="66" y="457" on="0"/>
        <pt x="66" y="497" on="0"/>
        <pt x="80" y="504" on="1"/>
        <pt x="81" y="504" on="0"/>
        <pt x="85" y="506" on="0"/>
        <pt x="104" y="514" on="0"/>
        <pt x="144" y="529" on="0"/>
        <pt x="180" y="543" on="1"/>
        <pt x="80" y="582" on="1"/>
        <pt x="66" y="591" on="0"/>
        <pt x="66" y="603" on="1"/>
        <pt x="66" y="630" on="0"/>
        <pt x="88" y="637" on="1"/>
        <pt x="99" y="641" on="0"/>
        <pt x="110" y="634" on="1"/>
        <pt x="111" y="634" on="0"/>
        <pt x="164" y="591" on="0"/>
        <pt x="194" y="567" on="1"/>
        <pt x="178" y="668" on="0"/>
        <pt x="178" y="670" on="1"/>
        <pt x="178" y="673" on="1"/>
        <pt x="178" y="686" on="0"/>
        <pt x="197" y="702" on="0"/>
        <pt x="208" y="702" on="1"/>
        <pt x="219" y="702" on="0"/>
        <pt x="238" y="686" on="0"/>
        <pt x="238" y="672" on="0"/>
        <pt x="237" y="668" on="0"/>
        <pt x="236" y="658" on="1"/>
        <pt x="231" y="626" on="1"/>
        <pt x="228" y="605" on="0"/>
        <pt x="222" y="567" on="1"/>
        <pt x="306" y="634" on="0"/>
        <pt x="306" y="634" on="1"/>
        <pt x="317" y="641" on="0"/>
        <pt x="328" y="637" on="1"/>
        <pt x="350" y="630" on="0"/>
        <pt x="350" y="591" on="0"/>
        <pt x="336" y="582" on="1"/>
        <pt x="335" y="582" on="0"/>
        <pt x="331" y="580" on="0"/>
        <pt x="312" y="572" on="0"/>
        <pt x="272" y="557" on="0"/>
      </contour>
    </TTGlyph>
    <TTGlyph name="at" xMin="49" yMin="-83" xMax="854" yMax="688">
      <contour>
        <pt x="458" y="513" on="1"/>
        <pt x="532" y="513" on="0"/>
        <pt x="586" y="462" on="1"/>
        <pt x="589" y="479" on="1"/>
        <pt x="591" y="493" on="0"/>
        <pt x="612" y="510" on="0"/>
        <pt x="641" y="510" on="0"/>
        <pt x="662" y="489" on="0"/>
        <pt x="662" y="480" on="1"/>
        <pt x="662" y="469" on="1"/>
        <pt x="662" y="467" on="0"/>
        <pt x="661" y="462" on="1"/>
        <pt x="628" y="272" on="1"/>
        <pt x="621" y="230" on="0"/>
        <pt x="621" y="181" on="0"/>
        <pt x="644" y="142" on="0"/>
        <pt x="671" y="142" on="1"/>
        <pt x="734" y="142" on="0"/>
        <pt x="800" y="252" on="0"/>
        <pt x="800" y="414" on="0"/>
        <pt x="743" y="524" on="0"/>
        <pt x="696" y="561" on="1"/>
        <pt x="603" y="635" on="0"/>
        <pt x="473" y="635" on="1"/>
        <pt x="397" y="635" on="0"/>
        <pt x="262" y="575" on="0"/>
        <pt x="160" y="473" on="0"/>
        <pt x="101" y="338" on="0"/>
        <pt x="101" y="208" on="0"/>
        <pt x="140" y="103" on="0"/>
        <pt x="178" y="62" on="1"/>
        <pt x="263" y="-31" on="0"/>
        <pt x="400" y="-31" on="1"/>
        <pt x="465" y="-31" on="0"/>
        <pt x="502" y="-21" on="1"/>
        <pt x="548" y="-9" on="0"/>
        <pt x="615" y="17" on="0"/>
        <pt x="631" y="17" on="0"/>
        <pt x="645" y="4" on="0"/>
        <pt x="645" y="-23" on="0"/>
        <pt x="631" y="-30" on="1"/>
        <pt x="525" y="-83" on="0"/>
        <pt x="400" y="-83" on="1"/>
        <pt x="320" y="-83" on="0"/>
        <pt x="190" y="-26" on="0"/>
        <pt x="98" y="69" on="0"/>
        <pt x="49" y="194" on="0"/>
        <pt x="49" y="348" on="0"/>
        <pt x="117" y="502" on="0"/>
        <pt x="232" y="619" on="0"/>
        <pt x="386" y="688" on="0"/>
        <pt x="550" y="688" on="0"/>
        <pt x="689" y="637" on="0"/>
        <pt x="793" y="546" on="0"/>
        <pt x="854" y="419" on="0"/>
        <pt x="854" y="342" on="1"/>
        <pt x="854" y="242" on="0"/>
        <pt x="812" y="174" on="1"/>
        <pt x="761" y="95" on="0"/>
        <pt x="668" y="95" on="1"/>
        <pt x="593" y="95" on="0"/>
        <pt x="566" y="142" on="1"/>
        <pt x="559" y="156" on="0"/>
        <pt x="556" y="169" on="1"/>
        <pt x="494" y="94" on="0"/>
        <pt x="391" y="94" on="1"/>
        <pt x="311" y="94" on="0"/>
        <pt x="264" y="144" on="1"/>
        <pt x="221" y="192" on="0"/>
        <pt x="221" y="328" on="0"/>
        <pt x="262" y="419" on="0"/>
        <pt x="295" y="450" on="1"/>
        <pt x="362" y="513" on="0"/>
      </contour>
      <contour>
        <pt x="575" y="396" on="1"/>
        <pt x="532" y="442" on="0"/>
        <pt x="462" y="442" on="1"/>
        <pt x="394" y="442" on="0"/>
        <pt x="348" y="400" on="1"/>
        <pt x="298" y="354" on="0"/>
        <pt x="298" y="280" on="1"/>
        <pt x="298" y="221" on="0"/>
        <pt x="332" y="190" on="1"/>
        <pt x="362" y="163" on="0"/>
        <pt x="413" y="163" on="1"/>
        <pt x="498" y="163" on="0"/>
        <pt x="537" y="234" on="1"/>
        <pt x="552" y="261" on="0"/>
        <pt x="559" y="303" on="1"/>
      </contour>
    </TTGlyph>
    <TTGlyph name="atilde" xMin="38" yMin="-10" xMax="480" yMax="690">
      <component glyphName="a" x="0" y="0" flags="0x1204"/>
      <component glyphName="tilde" x="54" y="0" flags="0x1004"/>
    </TTGlyph>
    <TTGlyph name="b" xMin="79" yMin="-10" xMax="583" yMax="735">
      <contour>
        <pt x="170" y="444" on="1"/>
        <pt x="244" y="520" on="0"/>
        <pt x="438" y="520" on="0"/>
        <pt x="507" y="451" on="1"/>
        <pt x="583" y="375" on="0"/>
        <pt x="583" y="255" on="1"/>
        <pt x="583" y="133" on="0"/>
        <pt x="507" y="58" on="1"/>
        <pt x="437" y="-10" on="0"/>
        <pt x="244" y="-10" on="0"/>
        <pt x="170" y="66" on="1"/>
        <pt x="170" y="40" on="1"/>
        <pt x="170" y="21" on="0"/>
        <pt x="144" y="-5" on="0"/>
        <pt x="105" y="-5" on="0"/>
        <pt x="79" y="21" on="0"/>
        <pt x="79" y="40" on="1"/>
        <pt x="79" y="689" on="1"/>
        <pt x="79" y="709" on="0"/>
        <pt x="105" y="735" on="0"/>
        <pt x="144" y="735" on="0"/>
        <pt x="170" y="709" on="0"/>
        <pt x="170" y="689" on="1"/>
      </contour>
      <contour>
        <pt x="170" y="150" on="1"/>
        <pt x="238" y="75" on="0"/>
        <pt x="328" y="75" on="1"/>
        <pt x="442" y="75" on="0"/>
        <pt x="480" y="177" on="1"/>
        <pt x="492" y="211" on="0"/>
        <pt x="492" y="255" on="1"/>
        <pt x="492" y="341" on="0"/>
        <pt x="446" y="390" on="1"/>
        <pt x="402" y="435" on="0"/>
        <pt x="328" y="435" on="1"/>
        <pt x="238" y="435" on="0"/>
        <pt x="170" y="360" on="1"/>
      </contour>
    </TTGlyph>
    <TTGlyph name="backslash" xMin="47" yMin="-95" xMax="395" yMax="764">
      <contour>
        <pt x="47" y="740" on="0"/>
        <pt x="70" y="764" on="0"/>
        <pt x="86" y="764" on="1"/>
        <pt x="118" y="764" on="0"/>
        <pt x="127" y="736" on="1"/>
        <pt x="392" y="-39" on="1"/>
        <pt x="395" y="-45" on="0"/>
        <pt x="395" y="-71" on="0"/>
        <pt x="372" y="-95" on="0"/>
        <pt x="356" y="-95" on="1"/>
        <pt x="324" y="-95" on="0"/>
        <pt x="315" y="-67" on="1"/>
        <pt x="50" y="708" on="1"/>
        <pt x="47" y="714" on="0"/>
      </contour>
    </TTGlyph>
    <TTGlyph name="bar" xMin="86" yMin="-196" xMax="167" yMax="741">
      <contour>
        <pt x="126" y="741" on="1"/>
        <pt x="143" y="741" on="0"/>
        <pt x="167" y="717" on="0"/>
        <pt x="167" y="700" on="1"/>
        <pt x="167" y="-156" on="1"/>
        <pt x="167" y="-173" on="0"/>
        <pt x="143" y="-196" on="0"/>
        <pt x="126" y="-196" on="1"/>
        <pt x="109" y="-196" on="0"/>
        <pt x="86" y="-173" on="0"/>
        <pt x="86" y="-156" on="1"/>
        <pt x="86" y="700" on="1"/>
        <pt x="86" y="717" on="0"/>
        <pt x="109" y="741" on="0"/>
      </contour>
    </TTGlyph>
    <TTGlyph name="braceleft" xMin="3" yMin="-145" xMax="316" yMax="759">
      <contour>
        <pt x="117" y="307" on="1"/>
        <pt x="207" y="274" on="0"/>
        <pt x="207" y="189" on="1"/>
        <pt x="207" y="-33" on="1"/>
        <pt x="207" y="-52" on="0"/>
        <pt x="214" y="-59" on="1"/>
        <pt x="228" y="-75" on="0"/>
        <pt x="266" y="-75" on="1"/>
        <pt x="281" y="-75" on="1"/>
        <pt x="295" y="-75" on="0"/>
        <pt x="316" y="-96" on="0"/>
        <pt x="316" y="-110" on="1"/>
        <pt x="316" y="-124" on="0"/>
        <pt x="295" y="-145" on="0"/>
        <pt x="281" y="-145" on="1"/>
        <pt x="269" y="-145" on="1"/>
        <pt x="202" y="-145" on="0"/>
        <pt x="169" y="-122" on="1"/>
        <pt x="129" y="-93" on="0"/>
        <pt x="129" y="-25" on="1"/>
        <pt x="129" y="186" on="1"/>
        <pt x="129" y="218" on="0"/>
        <pt x="118" y="231" on="1"/>
        <pt x="97" y="256" on="0"/>
        <pt x="37" y="267" on="1"/>
        <pt x="3" y="273" on="0"/>
        <pt x="3" y="307" on="1"/>
        <pt x="3" y="341" on="0"/>
        <pt x="70" y="353" on="0"/>
        <pt x="107" y="370" on="0"/>
        <pt x="116" y="380" on="1"/>
        <pt x="129" y="396" on="0"/>
        <pt x="129" y="428" on="1"/>
        <pt x="129" y="639" on="1"/>
        <pt x="129" y="737" on="0"/>
        <pt x="214" y="754" on="1"/>
        <pt x="239" y="759" on="0"/>
        <pt x="269" y="759" on="1"/>
        <pt x="281" y="759" on="1"/>
        <pt x="295" y="759" on="0"/>
        <pt x="316" y="738" on="0"/>
        <pt x="316" y="724" on="1"/>
        <pt x="316" y="710" on="0"/>
        <pt x="295" y="689" on="0"/>
        <pt x="281" y="689" on="1"/>
        <pt x="266" y="689" on="1"/>
        <pt x="212" y="689" on="0"/>
        <pt x="208" y="660" on="1"/>
        <pt x="207" y="653" on="0"/>
        <pt x="207" y="647" on="1"/>
        <pt x="207" y="425" on="1"/>
        <pt x="207" y="340" on="0"/>
      </contour>
    </TTGlyph>
    <TTGlyph name="braceright" xMin="28" yMin="-145" xMax="341" yMax="759">
      <contour>
        <pt x="227" y="307" on="1"/>
        <pt x="137" y="340" on="0"/>
        <pt x="137" y="425" on="1"/>
        <pt x="137" y="647" on="1"/>
        <pt x="137" y="666" on="0"/>
        <pt x="130" y="673" on="1"/>
        <pt x="116" y="689" on="0"/>
        <pt x="78" y="689" on="1"/>
        <pt x="63" y="689" on="1"/>
        <pt x="49" y="689" on="0"/>
        <pt x="28" y="710" on="0"/>
        <pt x="28" y="724" on="1"/>
        <pt x="28" y="738" on="0"/>
        <pt x="49" y="759" on="0"/>
        <pt x="63" y="759" on="1"/>
        <pt x="75" y="759" on="1"/>
        <pt x="142" y="759" on="0"/>
        <pt x="175" y="736" on="1"/>
        <pt x="215" y="707" on="0"/>
        <pt x="215" y="639" on="1"/>
        <pt x="215" y="428" on="1"/>
        <pt x="215" y="396" on="0"/>
        <pt x="226" y="383" on="1"/>
        <pt x="247" y="358" on="0"/>
        <pt x="307" y="347" on="1"/>
        <pt x="341" y="341" on="0"/>
        <pt x="341" y="307" on="1"/>
        <pt x="341" y="273" on="0"/>
        <pt x="274" y="261" on="0"/>
        <pt x="237" y="244" on="0"/>
        <pt x="228" y="234" on="1"/>
        <pt x="215" y="218" on="0"/>
        <pt x="215" y="186" on="1"/>
        <pt x="215" y="-25" on="1"/>
        <pt x="215" y="-123" on="0"/>
        <pt x="130" y="-140" on="1"/>
        <pt x="105" y="-145" on="0"/>
        <pt x="75" y="-145" on="1"/>
        <pt x="63" y="-145" on="1"/>
        <pt x="49" y="-145" on="0"/>
        <pt x="28" y="-124" on="0"/>
        <pt x="28" y="-110" on="1"/>
        <pt x="28" y="-96" on="0"/>
        <pt x="49" y="-75" on="0"/>
        <pt x="63" y="-75" on="1"/>
        <pt x="78" y="-75" on="1"/>
        <pt x="132" y="-75" on="0"/>
        <pt x="136" y="-46" on="1"/>
        <pt x="137" y="-39" on="0"/>
        <pt x="137" y="-33" on="1"/>
        <pt x="137" y="189" on="1"/>
        <pt x="137" y="274" on="0"/>
      </contour>
    </TTGlyph>
    <TTGlyph name="bracketleft" xMin="87" yMin="-132" xMax="294" yMax="732">
      <contour>
        <pt x="273" y="-61" on="0"/>
        <pt x="294" y="-82" on="0"/>
        <pt x="294" y="-96" on="1"/>
        <pt x="294" y="-110" on="0"/>
        <pt x="273" y="-132" on="0"/>
        <pt x="258" y="-132" on="1"/>
        <pt x="131" y="-132" on="1"/>
        <pt x="113" y="-132" on="0"/>
        <pt x="87" y="-106" on="0"/>
        <pt x="87" y="-88" on="1"/>
        <pt x="87" y="688" on="1"/>
        <pt x="87" y="706" on="0"/>
        <pt x="113" y="732" on="0"/>
        <pt x="131" y="732" on="1"/>
        <pt x="258" y="732" on="1"/>
        <pt x="273" y="732" on="0"/>
        <pt x="294" y="711" on="0"/>
        <pt x="294" y="696" on="1"/>
        <pt x="294" y="681" on="0"/>
        <pt x="273" y="660" on="0"/>
        <pt x="258" y="660" on="1"/>
        <pt x="166" y="660" on="1"/>
        <pt x="166" y="-61" on="1"/>
        <pt x="258" y="-61" on="1"/>
      </contour>
    </TTGlyph>
    <TTGlyph name="bracketright" xMin="28" yMin="-132" xMax="235" yMax="732">
      <contour>
        <pt x="156" y="-61" on="1"/>
        <pt x="156" y="660" on="1"/>
        <pt x="64" y="660" on="1"/>
        <pt x="49" y="660" on="0"/>
        <pt x="28" y="681" on="0"/>
        <pt x="28" y="696" on="1"/>
        <pt x="28" y="711" on="0"/>
        <pt x="49" y="732" on="0"/>
        <pt x="64" y="732" on="1"/>
        <pt x="191" y="732" on="1"/>
        <pt x="209" y="732" on="0"/>
        <pt x="235" y="706" on="0"/>
        <pt x="235" y="688" on="1"/>
        <pt x="235" y="-88" on="1"/>
        <pt x="235" y="-106" on="0"/>
        <pt x="209" y="-132" on="0"/>
        <pt x="191" y="-132" on="1"/>
        <pt x="64" y="-132" on="1"/>
        <pt x="49" y="-132" on="0"/>
        <pt x="28" y="-110" on="0"/>
        <pt x="28" y="-96" on="1"/>
        <pt x="28" y="-82" on="0"/>
        <pt x="49" y="-61" on="0"/>
        <pt x="64" y="-61" on="1"/>
      </contour>
    </TTGlyph>
    <TTGlyph name="breve" xMin="49" yMin="576" xMax="335" yMax="702">
      <contour>
        <pt x="192" y="634" on="1"/>
        <pt x="253" y="634" on="0"/>
        <pt x="276" y="683" on="1"/>
        <pt x="285" y="702" on="0"/>
        <pt x="318" y="702" on="0"/>
        <pt x="335" y="684" on="0"/>
        <pt x="335" y="663" on="0"/>
        <pt x="332" y="657" on="1"/>
        <pt x="315" y="619" on="0"/>
        <pt x="240" y="576" on="0"/>
        <pt x="192" y="576" on="1"/>
        <pt x="144" y="576" on="0"/>
        <pt x="69" y="619" on="0"/>
        <pt x="52" y="657" on="1"/>
        <pt x="49" y="663" on="0"/>
        <pt x="49" y="684" on="0"/>
        <pt x="66" y="702" on="0"/>
        <pt x="99" y="702" on="0"/>
        <pt x="119" y="660" on="0"/>
        <pt x="163" y="634" on="0"/>
      </contour>
    </TTGlyph>
    <TTGlyph name="bullet" xMin="56" yMin="260" xMax="321" yMax="526">
      <contour>
        <pt x="188" y="526" on="1"/>
        <pt x="216" y="526" on="0"/>
        <pt x="264" y="505" on="0"/>
        <pt x="282" y="487" on="1"/>
        <pt x="321" y="448" on="0"/>
        <pt x="321" y="393" on="1"/>
        <pt x="321" y="338" on="0"/>
        <pt x="243" y="260" on="0"/>
        <pt x="189" y="260" on="1"/>
        <pt x="134" y="260" on="0"/>
        <pt x="56" y="338" on="0"/>
        <pt x="56" y="393" on="1"/>
        <pt x="56" y="448" on="0"/>
        <pt x="134" y="526" on="0"/>
      </contour>
    </TTGlyph>
    <TTGlyph name="c" xMin="46" yMin="-10" xMax="496" yMax="520">
      <contour>
        <pt x="321" y="75" on="1"/>
        <pt x="377" y="75" on="0"/>
        <pt x="428" y="103" on="1"/>
        <pt x="446" y="113" on="0"/>
        <pt x="474" y="113" on="0"/>
        <pt x="496" y="87" on="0"/>
        <pt x="496" y="51" on="0"/>
        <pt x="473" y="36" on="1"/>
        <pt x="402" y="-10" on="0"/>
        <pt x="313" y="-10" on="1"/>
        <pt x="202" y="-10" on="0"/>
        <pt x="126" y="60" on="1"/>
        <pt x="46" y="134" on="0"/>
        <pt x="46" y="255" on="1"/>
        <pt x="46" y="376" on="0"/>
        <pt x="126" y="450" on="1"/>
        <pt x="202" y="520" on="0"/>
        <pt x="313" y="520" on="1"/>
        <pt x="373" y="520" on="0"/>
        <pt x="450" y="489" on="0"/>
        <pt x="496" y="459" on="0"/>
        <pt x="496" y="423" on="0"/>
        <pt x="474" y="397" on="0"/>
        <pt x="463" y="397" on="1"/>
        <pt x="446" y="397" on="0"/>
        <pt x="428" y="407" on="1"/>
        <pt x="377" y="435" on="0"/>
        <pt x="321" y="435" on="1"/>
        <pt x="233" y="435" on="0"/>
        <pt x="137" y="336" on="0"/>
        <pt x="137" y="255" on="1"/>
        <pt x="137" y="174" on="0"/>
        <pt x="233" y="75" on="0"/>
      </contour>
    </TTGlyph>
    <TTGlyph name="caron" xMin="68" yMin="566" xMax="338" yMax="705">
      <contour>
        <pt x="330" y="656" on="1"/>
        <pt x="262" y="586" on="1"/>
        <pt x="242" y="566" on="0"/>
        <pt x="222" y="566" on="1"/>
        <pt x="184" y="566" on="1"/>
        <pt x="164" y="566" on="0"/>
        <pt x="144" y="586" on="1"/>
        <pt x="76" y="656" on="1"/>
        <pt x="68" y="664" on="0"/>
        <pt x="68" y="687" on="0"/>
        <pt x="85" y="705" on="0"/>
        <pt x="109" y="705" on="0"/>
        <pt x="116" y="698" on="1"/>
        <pt x="203" y="624" on="1"/>
        <pt x="290" y="698" on="1"/>
        <pt x="297" y="705" on="0"/>
        <pt x="321" y="705" on="0"/>
        <pt x="338" y="687" on="0"/>
        <pt x="338" y="664" on="0"/>
      </contour>
    </TTGlyph>
    <TTGlyph name="ccedilla" xMin="46" yMin="-221" xMax="496" yMax="520">
      <contour>
        <pt x="272" y="-178" on="1"/>
        <pt x="329" y="-178" on="0"/>
        <pt x="329" y="-132" on="1"/>
        <pt x="329" y="-117" on="0"/>
        <pt x="308" y="-101" on="0"/>
        <pt x="295" y="-101" on="1"/>
        <pt x="271" y="-101" on="0"/>
        <pt x="259" y="-107" on="1"/>
        <pt x="243" y="-115" on="0"/>
        <pt x="232" y="-115" on="0"/>
        <pt x="221" y="-106" on="0"/>
        <pt x="221" y="-91" on="0"/>
        <pt x="225" y="-85" on="1"/>
        <pt x="273" y="-7" on="1"/>
        <pt x="175" y="6" on="0"/>
        <pt x="112" y="73" on="1"/>
        <pt x="46" y="145" on="0"/>
        <pt x="46" y="255" on="1"/>
        <pt x="46" y="376" on="0"/>
        <pt x="126" y="450" on="1"/>
        <pt x="202" y="520" on="0"/>
        <pt x="313" y="520" on="1"/>
        <pt x="373" y="520" on="0"/>
        <pt x="450" y="489" on="0"/>
        <pt x="496" y="459" on="0"/>
        <pt x="496" y="423" on="0"/>
        <pt x="474" y="397" on="0"/>
        <pt x="463" y="397" on="1"/>
        <pt x="446" y="397" on="0"/>
        <pt x="428" y="407" on="1"/>
        <pt x="377" y="435" on="0"/>
        <pt x="321" y="435" on="1"/>
        <pt x="233" y="435" on="0"/>
        <pt x="137" y="336" on="0"/>
        <pt x="137" y="255" on="1"/>
        <pt x="137" y="174" on="0"/>
        <pt x="233" y="75" on="0"/>
        <pt x="321" y="75" on="1"/>
        <pt x="360" y="75" on="0"/>
        <pt x="410" y="93" on="0"/>
        <pt x="426" y="102" on="1"/>
        <pt x="447" y="113" on="0"/>
        <pt x="474" y="113" on="0"/>
        <pt x="496" y="87" on="0"/>
        <pt x="496" y="51" on="0"/>
        <pt x="473" y="36" on="1"/>
        <pt x="405" y="-8" on="0"/>
        <pt x="315" y="-10" on="1"/>
        <pt x="285" y="-63" on="1"/>
        <pt x="301" y="-59" on="0"/>
        <pt x="353" y="-59" on="0"/>
        <pt x="396" y="-97" on="0"/>
        <pt x="396" y="-129" on="1"/>
        <pt x="396" y="-221" on="0"/>
        <pt x="285" y="-221" on="1"/>
        <pt x="237" y="-221" on="0"/>
        <pt x="195" y="-195" on="1"/>
        <pt x="184" y="-190" on="0"/>
        <pt x="184" y="-178" on="1"/>
        <pt x="184" y="-158" on="0"/>
        <pt x="203" y="-158" on="1"/>
        <pt x="207" y="-158" on="0"/>
        <pt x="213" y="-161" on="1"/>
        <pt x="244" y="-178" on="0"/>
      </contour>
    </TTGlyph>
    <TTGlyph name="cedilla" xMin="45" yMin="-221" xMax="257" yMax="17">
      <contour>
        <pt x="133" y="-178" on="1"/>
        <pt x="190" y="-178" on="0"/>
        <pt x="190" y="-132" on="1"/>
        <pt x="190" y="-117" on="0"/>
        <pt x="169" y="-101" on="0"/>
        <pt x="156" y="-101" on="1"/>
        <pt x="132" y="-101" on="0"/>
        <pt x="120" y="-107" on="1"/>
        <pt x="104" y="-115" on="0"/>
        <pt x="93" y="-115" on="0"/>
        <pt x="82" y="-106" on="0"/>
        <pt x="82" y="-91" on="0"/>
        <pt x="86" y="-85" on="1"/>
        <pt x="150" y="17" on="1"/>
        <pt x="192" y="17" on="1"/>
        <pt x="146" y="-63" on="1"/>
        <pt x="162" y="-59" on="0"/>
        <pt x="214" y="-59" on="0"/>
        <pt x="257" y="-97" on="0"/>
        <pt x="257" y="-129" on="1"/>
        <pt x="257" y="-221" on="0"/>
        <pt x="146" y="-221" on="1"/>
        <pt x="98" y="-221" on="0"/>
        <pt x="56" y="-195" on="1"/>
        <pt x="45" y="-190" on="0"/>
        <pt x="45" y="-178" on="1"/>
        <pt x="45" y="-158" on="0"/>
        <pt x="64" y="-158" on="1"/>
        <pt x="68" y="-158" on="0"/>
        <pt x="74" y="-161" on="1"/>
        <pt x="105" y="-178" on="0"/>
      </contour>
    </TTGlyph>
    <TTGlyph name="cent" xMin="44" yMin="-123" xMax="494" yMax="620">
      <contour>
        <pt x="161" y="484" on="0"/>
        <pt x="258" y="520" on="0"/>
        <pt x="339" y="520" on="0"/>
        <pt x="363" y="516" on="1"/>
        <pt x="392" y="601" on="1"/>
        <pt x="399" y="620" on="0"/>
        <pt x="432" y="620" on="0"/>
        <pt x="447" y="602" on="0"/>
        <pt x="447" y="587" on="0"/>
        <pt x="445" y="581" on="1"/>
        <pt x="418" y="501" on="1"/>
        <pt x="449" y="490" on="0"/>
        <pt x="474" y="472" on="1"/>
        <pt x="494" y="459" on="0"/>
        <pt x="494" y="423" on="0"/>
        <pt x="472" y="397" on="0"/>
        <pt x="461" y="397" on="1"/>
        <pt x="444" y="397" on="0"/>
        <pt x="434" y="403" on="1"/>
        <pt x="391" y="423" on="1"/>
        <pt x="273" y="79" on="1"/>
        <pt x="292" y="75" on="0"/>
        <pt x="358" y="75" on="0"/>
        <pt x="408" y="93" on="0"/>
        <pt x="424" y="102" on="1"/>
        <pt x="445" y="113" on="0"/>
        <pt x="472" y="113" on="0"/>
        <pt x="494" y="87" on="0"/>
        <pt x="494" y="51" on="0"/>
        <pt x="471" y="36" on="1"/>
        <pt x="400" y="-10" on="0"/>
        <pt x="311" y="-10" on="1"/>
        <pt x="279" y="-10" on="0"/>
        <pt x="245" y="-2" on="1"/>
        <pt x="210" y="-105" on="1"/>
        <pt x="204" y="-123" on="0"/>
        <pt x="171" y="-123" on="0"/>
        <pt x="155" y="-106" on="0"/>
        <pt x="155" y="-99" on="1"/>
        <pt x="155" y="-88" on="0"/>
        <pt x="158" y="-82" on="1"/>
        <pt x="191" y="15" on="1"/>
        <pt x="126" y="44" on="0"/>
        <pt x="44" y="166" on="0"/>
        <pt x="44" y="255" on="1"/>
        <pt x="44" y="376" on="0"/>
        <pt x="124" y="450" on="1"/>
      </contour>
      <contour>
        <pt x="135" y="255" on="1"/>
        <pt x="135" y="143" on="0"/>
        <pt x="220" y="98" on="1"/>
        <pt x="335" y="434" on="1"/>
        <pt x="331" y="435" on="0"/>
        <pt x="323" y="435" on="0"/>
        <pt x="319" y="435" on="1"/>
        <pt x="231" y="435" on="0"/>
        <pt x="135" y="336" on="0"/>
      </contour>
    </TTGlyph>
    <TTGlyph name="circumflex" xMin="68" yMin="566" xMax="338" yMax="705">
      <contour>
        <pt x="330" y="615" on="1"/>
        <pt x="338" y="607" on="0"/>
        <pt x="338" y="584" on="0"/>
        <pt x="321" y="566" on="0"/>
        <pt x="297" y="566" on="0"/>
        <pt x="290" y="573" on="1"/>
        <pt x="203" y="647" on="1"/>
        <pt x="116" y="573" on="1"/>
        <pt x="109" y="566" on="0"/>
        <pt x="85" y="566" on="0"/>
        <pt x="68" y="584" on="0"/>
        <pt x="68" y="595" on="0"/>
        <pt x="68" y="607" on="0"/>
        <pt x="76" y="615" on="1"/>
        <pt x="144" y="685" on="1"/>
        <pt x="164" y="705" on="0"/>
        <pt x="184" y="705" on="1"/>
        <pt x="222" y="705" on="1"/>
        <pt x="242" y="705" on="0"/>
        <pt x="262" y="685" on="1"/>
      </contour>
    </TTGlyph>
    <TTGlyph name="colon" xMin="69" yMin="-3" xMax="191" yMax="513">
      <contour>
        <pt x="135" y="115" on="1"/>
        <pt x="158" y="115" on="0"/>
        <pt x="191" y="82" on="0"/>
        <pt x="191" y="59" on="1"/>
        <pt x="191" y="53" on="1"/>
        <pt x="191" y="30" on="0"/>
        <pt x="158" y="-3" on="0"/>
        <pt x="135" y="-3" on="1"/>
        <pt x="125" y="-3" on="1"/>
        <pt x="102" y="-3" on="0"/>
        <pt x="69" y="30" on="0"/>
        <pt x="69" y="53" on="1"/>
        <pt x="69" y="59" on="1"/>
        <pt x="69" y="82" on="0"/>
        <pt x="102" y="115" on="0"/>
        <pt x="125" y="115" on="1"/>
      </contour>
      <contour>
        <pt x="135" y="513" on="1"/>
        <pt x="158" y="513" on="0"/>
        <pt x="191" y="480" on="0"/>
        <pt x="191" y="457" on="1"/>
        <pt x="191" y="451" on="1"/>
        <pt x="191" y="428" on="0"/>
        <pt x="158" y="395" on="0"/>
        <pt x="135" y="395" on="1"/>
        <pt x="125" y="395" on="1"/>
        <pt x="102" y="395" on="0"/>
        <pt x="69" y="428" on="0"/>
        <pt x="69" y="451" on="1"/>
        <pt x="69" y="457" on="1"/>
        <pt x="69" y="480" on="0"/>
        <pt x="102" y="513" on="0"/>
        <pt x="125" y="513" on="1"/>
      </contour>
    </TTGlyph>
    <TTGlyph name="comma" xMin="63" yMin="-151" xMax="191" yMax="115">
      <contour>
        <pt x="158" y="115" on="0"/>
        <pt x="191" y="82" on="0"/>
        <pt x="191" y="59" on="1"/>
        <pt x="191" y="0" on="1"/>
        <pt x="191" y="-53" on="0"/>
        <pt x="164" y="-94" on="1"/>
        <pt x="145" y="-124" on="0"/>
        <pt x="109" y="-146" on="1"/>
        <pt x="104" y="-151" on="0"/>
        <pt x="79" y="-151" on="0"/>
        <pt x="63" y="-133" on="0"/>
        <pt x="63" y="-105" on="0"/>
        <pt x="78" y="-96" on="1"/>
        <pt x="100" y="-83" on="0"/>
        <pt x="129" y="-44" on="0"/>
        <pt x="129" y="-3" on="1"/>
        <pt x="125" y="-3" on="1"/>
        <pt x="102" y="-3" on="0"/>
        <pt x="69" y="30" on="0"/>
        <pt x="69" y="53" on="1"/>
        <pt x="69" y="59" on="1"/>
        <pt x="69" y="82" on="0"/>
        <pt x="102" y="115" on="0"/>
        <pt x="125" y="115" on="1"/>
        <pt x="135" y="115" on="1"/>
      </contour>
    </TTGlyph>
    <TTGlyph name="copyright" xMin="51" yMin="-9" xMax="769" yMax="707">
      <contour>
        <pt x="410" y="-9" on="1"/>
        <pt x="336" y="-9" on="0"/>
        <pt x="205" y="47" on="0"/>
        <pt x="107" y="145" on="0"/>
        <pt x="51" y="275" on="0"/>
        <pt x="51" y="349" on="1"/>
        <pt x="51" y="423" on="0"/>
        <pt x="107" y="553" on="0"/>
        <pt x="205" y="651" on="0"/>
        <pt x="336" y="707" on="0"/>
        <pt x="410" y="707" on="1"/>
        <pt x="484" y="707" on="0"/>
        <pt x="615" y="651" on="0"/>
        <pt x="712" y="553" on="0"/>
        <pt x="769" y="423" on="0"/>
        <pt x="769" y="349" on="1"/>
        <pt x="769" y="275" on="0"/>
        <pt x="712" y="145" on="0"/>
        <pt x="615" y="47" on="0"/>
        <pt x="484" y="-9" on="0"/>
      </contour>
      <contour>
        <pt x="410" y="655" on="1"/>
        <pt x="346" y="655" on="0"/>
        <pt x="235" y="607" on="0"/>
        <pt x="193" y="565" on="1"/>
        <pt x="103" y="475" on="0"/>
        <pt x="103" y="349" on="1"/>
        <pt x="103" y="223" on="0"/>
        <pt x="283" y="43" on="0"/>
        <pt x="409" y="43" on="1"/>
        <pt x="537" y="43" on="0"/>
        <pt x="717" y="223" on="0"/>
        <pt x="717" y="349" on="1"/>
        <pt x="717" y="475" on="0"/>
        <pt x="537" y="655" on="0"/>
      </contour>
      <contour>
        <pt x="585" y="251" on="1"/>
        <pt x="561" y="202" on="0"/>
        <pt x="476" y="146" on="0"/>
        <pt x="373" y="146" on="0"/>
        <pt x="302" y="175" on="0"/>
        <pt x="276" y="202" on="1"/>
        <pt x="223" y="257" on="0"/>
        <pt x="223" y="349" on="1"/>
        <pt x="223" y="441" on="0"/>
        <pt x="330" y="552" on="0"/>
        <pt x="416" y="552" on="1"/>
        <pt x="476" y="552" on="0"/>
        <pt x="561" y="496" on="0"/>
        <pt x="585" y="447" on="1"/>
        <pt x="588" y="441" on="0"/>
        <pt x="588" y="420" on="0"/>
        <pt x="570" y="402" on="0"/>
        <pt x="548" y="402" on="0"/>
        <pt x="533" y="410" on="0"/>
        <pt x="508" y="453" on="0"/>
        <pt x="456" y="491" on="0"/>
        <pt x="384" y="491" on="0"/>
        <pt x="337" y="468" on="0"/>
        <pt x="322" y="448" on="1"/>
        <pt x="290" y="409" on="0"/>
        <pt x="290" y="349" on="1"/>
        <pt x="290" y="289" on="0"/>
        <pt x="322" y="250" on="1"/>
        <pt x="355" y="207" on="0"/>
        <pt x="416" y="207" on="1"/>
        <pt x="486" y="207" on="0"/>
        <pt x="525" y="274" on="1"/>
        <pt x="538" y="296" on="0"/>
        <pt x="570" y="296" on="0"/>
        <pt x="588" y="278" on="0"/>
        <pt x="588" y="257" on="0"/>
      </contour>
    </TTGlyph>
    <TTGlyph name="currency" xMin="66" yMin="81" xMax="602" yMax="617">
      <contour>
        <pt x="334" y="112" on="1"/>
        <pt x="257" y="112" on="0"/>
        <pt x="195" y="157" on="1"/>
        <pt x="129" y="92" on="1"/>
        <pt x="116" y="81" on="0"/>
        <pt x="86" y="81" on="0"/>
        <pt x="66" y="103" on="0"/>
        <pt x="66" y="118" on="1"/>
        <pt x="66" y="133" on="0"/>
        <pt x="77" y="144" on="1"/>
        <pt x="142" y="209" on="1"/>
        <pt x="97" y="273" on="0"/>
        <pt x="97" y="349" on="1"/>
        <pt x="97" y="425" on="0"/>
        <pt x="142" y="489" on="1"/>
        <pt x="77" y="554" on="1"/>
        <pt x="66" y="565" on="0"/>
        <pt x="66" y="580" on="1"/>
        <pt x="66" y="595" on="0"/>
        <pt x="86" y="617" on="0"/>
        <pt x="98" y="617" on="1"/>
        <pt x="116" y="617" on="0"/>
        <pt x="129" y="606" on="1"/>
        <pt x="195" y="541" on="1"/>
        <pt x="257" y="586" on="0"/>
        <pt x="334" y="586" on="1"/>
        <pt x="411" y="586" on="0"/>
        <pt x="473" y="541" on="1"/>
        <pt x="539" y="606" on="1"/>
        <pt x="552" y="617" on="0"/>
        <pt x="582" y="617" on="0"/>
        <pt x="602" y="595" on="0"/>
        <pt x="602" y="580" on="1"/>
        <pt x="602" y="565" on="0"/>
        <pt x="591" y="554" on="1"/>
        <pt x="526" y="489" on="1"/>
        <pt x="571" y="425" on="0"/>
        <pt x="571" y="349" on="1"/>
        <pt x="571" y="273" on="0"/>
        <pt x="526" y="209" on="1"/>
        <pt x="591" y="144" on="1"/>
        <pt x="602" y="133" on="0"/>
        <pt x="602" y="118" on="1"/>
        <pt x="602" y="103" on="0"/>
        <pt x="582" y="81" on="0"/>
        <pt x="570" y="81" on="1"/>
        <pt x="552" y="81" on="0"/>
        <pt x="539" y="92" on="1"/>
        <pt x="473" y="157" on="1"/>
        <pt x="411" y="112" on="0"/>
      </contour>
      <contour>
        <pt x="334" y="505" on="1"/>
        <pt x="270" y="505" on="0"/>
        <pt x="178" y="413" on="0"/>
        <pt x="178" y="349" on="1"/>
        <pt x="178" y="285" on="0"/>
        <pt x="270" y="193" on="0"/>
        <pt x="334" y="193" on="1"/>
        <pt x="398" y="193" on="0"/>
        <pt x="490" y="285" on="0"/>
        <pt x="490" y="349" on="1"/>
        <pt x="490" y="413" on="0"/>
        <pt x="398" y="505" on="0"/>
      </contour>
    </TTGlyph>
    <TTGlyph name="d" xMin="48" yMin="-10" xMax="552" yMax="735">
      <contour>
        <pt x="461" y="66" on="1"/>
        <pt x="387" y="-10" on="0"/>
        <pt x="290" y="-10" on="1"/>
        <pt x="194" y="-10" on="0"/>
        <pt x="124" y="58" on="1"/>
        <pt x="48" y="133" on="0"/>
        <pt x="48" y="255" on="1"/>
        <pt x="48" y="375" on="0"/>
        <pt x="124" y="451" on="1"/>
        <pt x="193" y="520" on="0"/>
        <pt x="387" y="520" on="0"/>
        <pt x="461" y="444" on="1"/>
        <pt x="461" y="689" on="1"/>
        <pt x="461" y="709" on="0"/>
        <pt x="487" y="735" on="0"/>
        <pt x="526" y="735" on="0"/>
        <pt x="552" y="709" on="0"/>
        <pt x="552" y="689" on="1"/>
        <pt x="552" y="40" on="1"/>
        <pt x="552" y="21" on="0"/>
        <pt x="526" y="-5" on="0"/>
        <pt x="487" y="-5" on="0"/>
        <pt x="461" y="21" on="0"/>
        <pt x="461" y="40" on="1"/>
      </contour>
      <contour>
        <pt x="461" y="360" on="1"/>
        <pt x="393" y="435" on="0"/>
        <pt x="303" y="435" on="1"/>
        <pt x="189" y="435" on="0"/>
        <pt x="152" y="333" on="1"/>
        <pt x="139" y="299" on="0"/>
        <pt x="139" y="255" on="1"/>
        <pt x="139" y="169" on="0"/>
        <pt x="186" y="120" on="1"/>
        <pt x="229" y="75" on="0"/>
        <pt x="303" y="75" on="1"/>
        <pt x="393" y="75" on="0"/>
        <pt x="461" y="150" on="1"/>
      </contour>
    </TTGlyph>
    <TTGlyph name="dagger" xMin="35" yMin="-93" xMax="471" yMax="673">
      <contour>
        <pt x="417" y="485" on="1"/>
        <pt x="471" y="485" on="0"/>
        <pt x="471" y="454" on="1"/>
        <pt x="471" y="423" on="0"/>
        <pt x="417" y="423" on="1"/>
        <pt x="378" y="423" on="1"/>
        <pt x="353" y="423" on="0"/>
        <pt x="293" y="433" on="1"/>
        <pt x="285" y="435" on="0"/>
        <pt x="274" y="424" on="0"/>
        <pt x="278" y="400" on="0"/>
        <pt x="280" y="385" on="1"/>
        <pt x="285" y="348" on="0"/>
        <pt x="285" y="331" on="1"/>
        <pt x="274" y="-39" on="1"/>
        <pt x="274" y="-93" on="0"/>
        <pt x="253" y="-93" on="1"/>
        <pt x="232" y="-93" on="0"/>
        <pt x="232" y="-39" on="1"/>
        <pt x="221" y="331" on="1"/>
        <pt x="221" y="368" on="0"/>
        <pt x="230" y="416" on="1"/>
        <pt x="232" y="424" on="0"/>
        <pt x="221" y="435" on="0"/>
        <pt x="213" y="433" on="1"/>
        <pt x="153" y="423" on="0"/>
        <pt x="128" y="423" on="1"/>
        <pt x="89" y="423" on="1"/>
        <pt x="35" y="423" on="0"/>
        <pt x="35" y="454" on="1"/>
        <pt x="35" y="485" on="0"/>
        <pt x="89" y="485" on="1"/>
        <pt x="128" y="485" on="1"/>
        <pt x="159" y="485" on="0"/>
        <pt x="213" y="476" on="1"/>
        <pt x="221" y="474" on="0"/>
        <pt x="232" y="485" on="0"/>
        <pt x="230" y="493" on="1"/>
        <pt x="220" y="553" on="0"/>
        <pt x="220" y="578" on="1"/>
        <pt x="220" y="619" on="1"/>
        <pt x="220" y="652" on="0"/>
        <pt x="236" y="667" on="1"/>
        <pt x="243" y="673" on="0"/>
        <pt x="253" y="673" on="1"/>
        <pt x="269" y="673" on="0"/>
        <pt x="279" y="652" on="1"/>
        <pt x="286" y="638" on="0"/>
        <pt x="286" y="619" on="1"/>
        <pt x="286" y="578" on="1"/>
        <pt x="286" y="553" on="0"/>
        <pt x="276" y="493" on="1"/>
        <pt x="274" y="485" on="0"/>
        <pt x="285" y="474" on="0"/>
        <pt x="293" y="476" on="1"/>
        <pt x="347" y="485" on="0"/>
        <pt x="378" y="485" on="1"/>
      </contour>
    </TTGlyph>
    <TTGlyph name="daggerdbl" xMin="48" yMin="-94" xMax="484" yMax="674">
      <contour>
        <pt x="430" y="156" on="1"/>
        <pt x="484" y="156" on="0"/>
        <pt x="484" y="125" on="1"/>
        <pt x="484" y="94" on="0"/>
        <pt x="430" y="94" on="1"/>
        <pt x="391" y="94" on="1"/>
        <pt x="360" y="94" on="0"/>
        <pt x="306" y="103" on="1"/>
        <pt x="298" y="105" on="0"/>
        <pt x="287" y="94" on="0"/>
        <pt x="289" y="86" on="1"/>
        <pt x="299" y="26" on="0"/>
        <pt x="299" y="1" on="1"/>
        <pt x="299" y="-40" on="1"/>
        <pt x="299" y="-71" on="0"/>
        <pt x="282" y="-88" on="1"/>
        <pt x="276" y="-94" on="0"/>
        <pt x="266" y="-94" on="1"/>
        <pt x="241" y="-94" on="0"/>
        <pt x="234" y="-56" on="1"/>
        <pt x="233" y="-47" on="0"/>
        <pt x="233" y="-40" on="1"/>
        <pt x="233" y="1" on="1"/>
        <pt x="233" y="26" on="0"/>
        <pt x="243" y="86" on="1"/>
        <pt x="245" y="94" on="0"/>
        <pt x="234" y="105" on="0"/>
        <pt x="226" y="103" on="1"/>
        <pt x="172" y="94" on="0"/>
        <pt x="141" y="94" on="1"/>
        <pt x="102" y="94" on="1"/>
        <pt x="48" y="94" on="0"/>
        <pt x="48" y="125" on="1"/>
        <pt x="48" y="156" on="0"/>
        <pt x="102" y="156" on="1"/>
        <pt x="141" y="156" on="1"/>
        <pt x="166" y="156" on="0"/>
        <pt x="226" y="146" on="1"/>
        <pt x="234" y="144" on="0"/>
        <pt x="245" y="155" on="0"/>
        <pt x="240" y="191" on="0"/>
        <pt x="238" y="214" on="1"/>
        <pt x="234" y="260" on="0"/>
        <pt x="234" y="290" on="1"/>
        <pt x="234" y="333" on="0"/>
        <pt x="243" y="417" on="1"/>
        <pt x="245" y="425" on="0"/>
        <pt x="234" y="436" on="0"/>
        <pt x="226" y="434" on="1"/>
        <pt x="166" y="424" on="0"/>
        <pt x="141" y="424" on="1"/>
        <pt x="102" y="424" on="1"/>
        <pt x="48" y="424" on="0"/>
        <pt x="48" y="455" on="1"/>
        <pt x="48" y="486" on="0"/>
        <pt x="102" y="486" on="1"/>
        <pt x="141" y="486" on="1"/>
        <pt x="172" y="486" on="0"/>
        <pt x="226" y="477" on="1"/>
        <pt x="234" y="475" on="0"/>
        <pt x="245" y="486" on="0"/>
        <pt x="243" y="494" on="1"/>
        <pt x="233" y="554" on="0"/>
        <pt x="233" y="579" on="1"/>
        <pt x="233" y="620" on="1"/>
        <pt x="233" y="653" on="0"/>
        <pt x="250" y="668" on="1"/>
        <pt x="256" y="674" on="0"/>
        <pt x="266" y="674" on="1"/>
        <pt x="282" y="674" on="0"/>
        <pt x="292" y="654" on="1"/>
        <pt x="299" y="639" on="0"/>
        <pt x="299" y="620" on="1"/>
        <pt x="299" y="579" on="1"/>
        <pt x="299" y="554" on="0"/>
        <pt x="289" y="494" on="1"/>
        <pt x="287" y="486" on="0"/>
        <pt x="298" y="475" on="0"/>
        <pt x="306" y="477" on="1"/>
        <pt x="360" y="486" on="0"/>
        <pt x="391" y="486" on="1"/>
        <pt x="430" y="486" on="1"/>
        <pt x="484" y="486" on="0"/>
        <pt x="484" y="455" on="1"/>
        <pt x="484" y="424" on="0"/>
        <pt x="430" y="424" on="1"/>
        <pt x="391" y="424" on="1"/>
        <pt x="366" y="424" on="0"/>
        <pt x="306" y="434" on="1"/>
        <pt x="298" y="436" on="0"/>
        <pt x="287" y="425" on="0"/>
        <pt x="291" y="389" on="0"/>
        <pt x="293" y="366" on="1"/>
        <pt x="298" y="308" on="0"/>
        <pt x="298" y="290" on="1"/>
        <pt x="298" y="268" on="0"/>
        <pt x="291" y="191" on="0"/>
        <pt x="287" y="155" on="0"/>
        <pt x="298" y="144" on="0"/>
        <pt x="306" y="146" on="1"/>
        <pt x="366" y="156" on="0"/>
        <pt x="391" y="156" on="1"/>
      </contour>
    </TTGlyph>
    <TTGlyph name="degree" xMin="52" yMin="434" xMax="326" yMax="708">
      <contour>
        <pt x="189" y="708" on="1"/>
        <pt x="246" y="708" on="0"/>
        <pt x="326" y="628" on="0"/>
        <pt x="326" y="571" on="1"/>
        <pt x="326" y="513" on="0"/>
        <pt x="286" y="474" on="1"/>
        <pt x="244" y="434" on="0"/>
        <pt x="189" y="434" on="1"/>
        <pt x="133" y="434" on="0"/>
        <pt x="52" y="515" on="0"/>
        <pt x="52" y="571" on="1"/>
        <pt x="52" y="626" on="0"/>
        <pt x="92" y="668" on="1"/>
        <pt x="131" y="708" on="0"/>
      </contour>
      <contour>
        <pt x="189" y="486" on="1"/>
        <pt x="224" y="486" on="0"/>
        <pt x="274" y="536" on="0"/>
        <pt x="274" y="571" on="1"/>
        <pt x="274" y="606" on="0"/>
        <pt x="224" y="656" on="0"/>
        <pt x="189" y="656" on="1"/>
        <pt x="154" y="656" on="0"/>
        <pt x="104" y="606" on="0"/>
        <pt x="104" y="571" on="1"/>
        <pt x="104" y="536" on="0"/>
        <pt x="154" y="486" on="0"/>
      </contour>
    </TTGlyph>
    <TTGlyph name="dieresis" xMin="63" yMin="575" xMax="334" yMax="677">
      <contour>
        <pt x="114" y="677" on="1"/>
        <pt x="135" y="677" on="0"/>
        <pt x="165" y="647" on="0"/>
        <pt x="165" y="626" on="1"/>
        <pt x="165" y="605" on="0"/>
        <pt x="135" y="575" on="0"/>
        <pt x="114" y="575" on="1"/>
        <pt x="93" y="575" on="0"/>
        <pt x="63" y="605" on="0"/>
        <pt x="63" y="626" on="1"/>
        <pt x="63" y="647" on="0"/>
        <pt x="93" y="677" on="0"/>
      </contour>
      <contour>
        <pt x="283" y="677" on="1"/>
        <pt x="304" y="677" on="0"/>
        <pt x="334" y="647" on="0"/>
        <pt x="334" y="626" on="1"/>
        <pt x="334" y="605" on="0"/>
        <pt x="304" y="575" on="0"/>
        <pt x="283" y="575" on="1"/>
        <pt x="262" y="575" on="0"/>
        <pt x="232" y="605" on="0"/>
        <pt x="232" y="626" on="1"/>
        <pt x="232" y="647" on="0"/>
        <pt x="262" y="677" on="0"/>
      </contour>
    </TTGlyph>
    <TTGlyph name="divide" xMin="73" yMin="95" xMax="639" yMax="567">
      <contour>
        <pt x="356" y="197" on="1"/>
        <pt x="377" y="197" on="0"/>
        <pt x="407" y="167" on="0"/>
        <pt x="407" y="146" on="1"/>
        <pt x="407" y="125" on="0"/>
        <pt x="377" y="95" on="0"/>
        <pt x="356" y="95" on="1"/>
        <pt x="335" y="95" on="0"/>
        <pt x="305" y="125" on="0"/>
        <pt x="305" y="146" on="1"/>
        <pt x="305" y="167" on="0"/>
        <pt x="335" y="197" on="0"/>
      </contour>
      <contour>
        <pt x="356" y="465" on="1"/>
        <pt x="335" y="465" on="0"/>
        <pt x="305" y="495" on="0"/>
        <pt x="305" y="516" on="1"/>
        <pt x="305" y="537" on="0"/>
        <pt x="335" y="567" on="0"/>
        <pt x="356" y="567" on="1"/>
        <pt x="377" y="567" on="0"/>
        <pt x="407" y="537" on="0"/>
        <pt x="407" y="516" on="1"/>
        <pt x="407" y="495" on="0"/>
        <pt x="377" y="465" on="0"/>
      </contour>
      <contour>
        <pt x="598" y="372" on="1"/>
        <pt x="615" y="372" on="0"/>
        <pt x="639" y="348" on="0"/>
        <pt x="639" y="331" on="1"/>
        <pt x="639" y="314" on="0"/>
        <pt x="615" y="291" on="0"/>
        <pt x="598" y="291" on="1"/>
        <pt x="113" y="291" on="1"/>
        <pt x="96" y="291" on="0"/>
        <pt x="73" y="314" on="0"/>
        <pt x="73" y="331" on="1"/>
        <pt x="73" y="348" on="0"/>
        <pt x="96" y="372" on="0"/>
        <pt x="113" y="372" on="1"/>
      </contour>
    </TTGlyph>
    <TTGlyph name="dollar" xMin="47" yMin="-110" xMax="569" yMax="808">
      <contour>
        <pt x="334" y="387" on="1"/>
        <pt x="376" y="377" on="0"/>
        <pt x="460" y="351" on="0"/>
        <pt x="494" y="329" on="1"/>
        <pt x="569" y="279" on="0"/>
        <pt x="569" y="185" on="1"/>
        <pt x="569" y="104" on="0"/>
        <pt x="505" y="50" on="1"/>
        <pt x="441" y="-4" on="0"/>
        <pt x="334" y="-10" on="1"/>
        <pt x="334" y="-88" on="1"/>
        <pt x="334" y="-98" on="0"/>
        <pt x="321" y="-110" on="0"/>
        <pt x="311" y="-110" on="1"/>
        <pt x="289" y="-110" on="0"/>
        <pt x="289" y="-88" on="1"/>
        <pt x="289" y="-10" on="1"/>
        <pt x="176" y="-5" on="0"/>
        <pt x="75" y="38" on="1"/>
        <pt x="47" y="51" on="0"/>
        <pt x="47" y="94" on="0"/>
        <pt x="69" y="118" on="0"/>
        <pt x="98" y="118" on="0"/>
        <pt x="118" y="109" on="1"/>
        <pt x="188" y="78" on="0"/>
        <pt x="289" y="75" on="1"/>
        <pt x="289" y="304" on="1"/>
        <pt x="178" y="333" on="0"/>
        <pt x="96" y="387" on="0"/>
        <pt x="54" y="453" on="0"/>
        <pt x="54" y="543" on="0"/>
        <pt x="84" y="614" on="0"/>
        <pt x="114" y="642" on="1"/>
        <pt x="178" y="701" on="0"/>
        <pt x="289" y="707" on="1"/>
        <pt x="289" y="785" on="1"/>
        <pt x="289" y="795" on="0"/>
        <pt x="301" y="808" on="0"/>
        <pt x="311" y="808" on="1"/>
        <pt x="321" y="808" on="0"/>
        <pt x="334" y="795" on="0"/>
        <pt x="334" y="785" on="1"/>
        <pt x="334" y="708" on="1"/>
        <pt x="435" y="704" on="0"/>
        <pt x="512" y="675" on="1"/>
        <pt x="540" y="665" on="0"/>
        <pt x="540" y="635" on="1"/>
        <pt x="540" y="620" on="0"/>
        <pt x="519" y="594" on="0"/>
        <pt x="494" y="594" on="0"/>
        <pt x="473" y="602" on="1"/>
        <pt x="412" y="623" on="0"/>
        <pt x="334" y="625" on="1"/>
      </contour>
      <contour>
        <pt x="144" y="510" on="1"/>
        <pt x="144" y="444" on="0"/>
        <pt x="232" y="414" on="1"/>
        <pt x="259" y="405" on="0"/>
        <pt x="289" y="398" on="1"/>
        <pt x="289" y="623" on="1"/>
        <pt x="226" y="617" on="0"/>
        <pt x="144" y="560" on="0"/>
      </contour>
      <contour>
        <pt x="334" y="76" on="1"/>
        <pt x="437" y="83" on="0"/>
        <pt x="468" y="141" on="1"/>
        <pt x="479" y="162" on="0"/>
        <pt x="479" y="213" on="0"/>
        <pt x="456" y="244" on="0"/>
        <pt x="436" y="256" on="1"/>
        <pt x="407" y="274" on="0"/>
        <pt x="334" y="293" on="1"/>
      </contour>
    </TTGlyph>
    <TTGlyph name="dotaccent" xMin="63" yMin="575" xMax="165" yMax="677">
      <contour>
        <pt x="114" y="677" on="1"/>
        <pt x="135" y="677" on="0"/>
        <pt x="165" y="647" on="0"/>
        <pt x="165" y="626" on="1"/>
        <pt x="165" y="605" on="0"/>
        <pt x="135" y="575" on="0"/>
        <pt x="114" y="575" on="1"/>
        <pt x="93" y="575" on="0"/>
        <pt x="63" y="605" on="0"/>
        <pt x="63" y="626" on="1"/>
        <pt x="63" y="647" on="0"/>
        <pt x="93" y="677" on="0"/>
      </contour>
    </TTGlyph>
    <TTGlyph name="dotlessj" xMin="-46" yMin="-240" xMax="174" yMax="514">
      <contour>
        <pt x="-8" y="-157" on="1"/>
        <pt x="22" y="-160" on="1"/>
        <pt x="53" y="-160" on="0"/>
        <pt x="63" y="-152" on="1"/>
        <pt x="83" y="-139" on="0"/>
        <pt x="83" y="-101" on="1"/>
        <pt x="83" y="468" on="1"/>
        <pt x="83" y="488" on="0"/>
        <pt x="109" y="514" on="0"/>
        <pt x="148" y="514" on="0"/>
        <pt x="174" y="488" on="0"/>
        <pt x="174" y="468" on="1"/>
        <pt x="174" y="-103" on="1"/>
        <pt x="174" y="-200" on="0"/>
        <pt x="104" y="-230" on="1"/>
        <pt x="79" y="-240" on="0"/>
        <pt x="43" y="-240" on="1"/>
        <pt x="7" y="-240" on="0"/>
        <pt x="-46" y="-223" on="0"/>
        <pt x="-46" y="-195" on="1"/>
        <pt x="-46" y="-180" on="0"/>
        <pt x="-25" y="-157" on="0"/>
      </contour>
    </TTGlyph>
    <TTGlyph name="e" xMin="49" yMin="-10" xMax="526" yMax="520">
      <contour>
        <pt x="149" y="155" on="0"/>
        <pt x="235" y="75" on="0"/>
        <pt x="389" y="75" on="0"/>
        <pt x="441" y="101" on="1"/>
        <pt x="459" y="110" on="0"/>
        <pt x="485" y="110" on="0"/>
        <pt x="509" y="88" on="0"/>
        <pt x="509" y="74" on="1"/>
        <pt x="509" y="48" on="0"/>
        <pt x="466" y="25" on="0"/>
        <pt x="432" y="9" on="0"/>
        <pt x="412" y="3" on="1"/>
        <pt x="367" y="-10" on="0"/>
        <pt x="308" y="-10" on="1"/>
        <pt x="185" y="-10" on="0"/>
        <pt x="49" y="128" on="0"/>
        <pt x="49" y="255" on="1"/>
        <pt x="49" y="365" on="0"/>
        <pt x="106" y="438" on="1"/>
        <pt x="170" y="520" on="0"/>
        <pt x="288" y="520" on="1"/>
        <pt x="400" y="520" on="0"/>
        <pt x="465" y="444" on="1"/>
        <pt x="526" y="373" on="0"/>
        <pt x="526" y="268" on="1"/>
        <pt x="526" y="249" on="0"/>
        <pt x="501" y="223" on="0"/>
        <pt x="480" y="223" on="1"/>
        <pt x="141" y="223" on="1"/>
      </contour>
      <contour>
        <pt x="288" y="443" on="1"/>
        <pt x="199" y="443" on="0"/>
        <pt x="158" y="364" on="1"/>
        <pt x="143" y="336" on="0"/>
        <pt x="141" y="297" on="1"/>
        <pt x="436" y="297" on="1"/>
        <pt x="432" y="368" on="0"/>
        <pt x="384" y="409" on="1"/>
        <pt x="344" y="443" on="0"/>
      </contour>
    </TTGlyph>
    <TTGlyph name="eacute" xMin="49" yMin="-10" xMax="526" yMax="722">
      <component glyphName="e" x="0" y="0" flags="0x1204"/>
      <component glyphName="acute" x="190" y="0" flags="0x1004"/>
    </TTGlyph>
    <TTGlyph name="ecircumflex" xMin="49" yMin="-10" xMax="526" yMax="705">
      <component glyphName="e" x="0" y="0" flags="0x1204"/>
      <component glyphName="circumflex" x="84" y="0" flags="0x1004"/>
    </TTGlyph>
    <TTGlyph name="edieresis" xMin="49" yMin="-10" xMax="526" yMax="677">
      <component glyphName="e" x="0" y="0" flags="0x1204"/>
      <component glyphName="dieresis" x="89" y="0" flags="0x1004"/>
    </TTGlyph>
    <TTGlyph name="egrave" xMin="49" yMin="-10" xMax="526" yMax="722">
      <component glyphName="e" x="0" y="0" flags="0x1204"/>
      <component glyphName="grave" x="140" y="0" flags="0x1004"/>
    </TTGlyph>
    <TTGlyph name="eight" xMin="47" yMin="-10" xMax="581" yMax="708">
      <contour>
        <pt x="548" y="525" on="1"/>
        <pt x="548" y="495" on="0"/>
        <pt x="529" y="446" on="0"/>
        <pt x="513" y="427" on="1"/>
        <pt x="483" y="392" on="0"/>
        <pt x="432" y="374" on="1"/>
        <pt x="499" y="351" on="0"/>
        <pt x="581" y="262" on="0"/>
        <pt x="581" y="185" on="1"/>
        <pt x="581" y="106" on="0"/>
        <pt x="522" y="54" on="1"/>
        <pt x="450" y="-10" on="0"/>
        <pt x="314" y="-10" on="1"/>
        <pt x="178" y="-10" on="0"/>
        <pt x="106" y="54" on="1"/>
        <pt x="47" y="106" on="0"/>
        <pt x="47" y="262" on="0"/>
        <pt x="129" y="351" on="0"/>
        <pt x="196" y="374" on="1"/>
        <pt x="116" y="402" on="0"/>
        <pt x="90" y="470" on="1"/>
        <pt x="80" y="495" on="0"/>
        <pt x="80" y="555" on="0"/>
        <pt x="104" y="619" on="0"/>
        <pt x="132" y="646" on="1"/>
        <pt x="195" y="708" on="0"/>
        <pt x="314" y="708" on="1"/>
        <pt x="433" y="708" on="0"/>
        <pt x="496" y="646" on="1"/>
        <pt x="548" y="595" on="0"/>
      </contour>
      <contour>
        <pt x="314" y="70" on="1"/>
        <pt x="405" y="70" on="0"/>
        <pt x="452" y="116" on="1"/>
        <pt x="490" y="151" on="0"/>
        <pt x="490" y="229" on="0"/>
        <pt x="461" y="279" on="0"/>
        <pt x="436" y="296" on="1"/>
        <pt x="388" y="330" on="0"/>
        <pt x="241" y="330" on="0"/>
        <pt x="192" y="296" on="1"/>
        <pt x="138" y="259" on="0"/>
        <pt x="138" y="195" on="1"/>
        <pt x="138" y="151" on="0"/>
        <pt x="176" y="116" on="1"/>
        <pt x="223" y="70" on="0"/>
      </contour>
      <contour>
        <pt x="314" y="412" on="1"/>
        <pt x="388" y="412" on="0"/>
        <pt x="426" y="449" on="1"/>
        <pt x="457" y="479" on="0"/>
        <pt x="457" y="564" on="0"/>
        <pt x="387" y="628" on="0"/>
        <pt x="314" y="628" on="1"/>
        <pt x="241" y="628" on="0"/>
        <pt x="171" y="564" on="0"/>
        <pt x="171" y="479" on="0"/>
        <pt x="240" y="412" on="0"/>
      </contour>
    </TTGlyph>
    <TTGlyph name="ellipsis" xMin="69" yMin="-3" xMax="898" yMax="115">
      <contour>
        <pt x="135" y="115" on="1"/>
        <pt x="158" y="115" on="0"/>
        <pt x="191" y="82" on="0"/>
        <pt x="191" y="59" on="1"/>
        <pt x="191" y="53" on="1"/>
        <pt x="191" y="30" on="0"/>
        <pt x="158" y="-3" on="0"/>
        <pt x="135" y="-3" on="1"/>
        <pt x="125" y="-3" on="1"/>
        <pt x="102" y="-3" on="0"/>
        <pt x="69" y="30" on="0"/>
        <pt x="69" y="53" on="1"/>
        <pt x="69" y="59" on="1"/>
        <pt x="69" y="82" on="0"/>
        <pt x="102" y="115" on="0"/>
        <pt x="125" y="115" on="1"/>
      </contour>
      <contour>
        <pt x="490" y="115" on="1"/>
        <pt x="513" y="115" on="0"/>
        <pt x="546" y="82" on="0"/>
        <pt x="546" y="59" on="1"/>
        <pt x="546" y="53" on="1"/>
        <pt x="546" y="30" on="0"/>
        <pt x="513" y="-3" on="0"/>
        <pt x="490" y="-3" on="1"/>
        <pt x="480" y="-3" on="1"/>
        <pt x="457" y="-3" on="0"/>
        <pt x="424" y="30" on="0"/>
        <pt x="424" y="53" on="1"/>
        <pt x="424" y="59" on="1"/>
        <pt x="424" y="82" on="0"/>
        <pt x="457" y="115" on="0"/>
        <pt x="480" y="115" on="1"/>
      </contour>
      <contour>
        <pt x="842" y="115" on="1"/>
        <pt x="865" y="115" on="0"/>
        <pt x="898" y="82" on="0"/>
        <pt x="898" y="59" on="1"/>
        <pt x="898" y="53" on="1"/>
        <pt x="898" y="30" on="0"/>
        <pt x="865" y="-3" on="0"/>
        <pt x="842" y="-3" on="1"/>
        <pt x="832" y="-3" on="1"/>
        <pt x="809" y="-3" on="0"/>
        <pt x="776" y="30" on="0"/>
        <pt x="776" y="53" on="1"/>
        <pt x="776" y="59" on="1"/>
        <pt x="776" y="82" on="0"/>
        <pt x="809" y="115" on="0"/>
        <pt x="832" y="115" on="1"/>
      </contour>
    </TTGlyph>
    <TTGlyph name="emdash" xMin="69" yMin="240" xMax="822" yMax="321">
      <contour>
        <pt x="798" y="321" on="0"/>
        <pt x="822" y="297" on="0"/>
        <pt x="822" y="280" on="1"/>
        <pt x="822" y="263" on="0"/>
        <pt x="798" y="240" on="0"/>
        <pt x="781" y="240" on="1"/>
        <pt x="109" y="240" on="1"/>
        <pt x="92" y="240" on="0"/>
        <pt x="69" y="263" on="0"/>
        <pt x="69" y="280" on="1"/>
        <pt x="69" y="297" on="0"/>
        <pt x="92" y="321" on="0"/>
        <pt x="109" y="321" on="1"/>
        <pt x="781" y="321" on="1"/>
      </contour>
    </TTGlyph>
    <TTGlyph name="endash" xMin="69" yMin="240" xMax="615" yMax="321">
      <contour>
        <pt x="591" y="321" on="0"/>
        <pt x="615" y="297" on="0"/>
        <pt x="615" y="280" on="1"/>
        <pt x="615" y="263" on="0"/>
        <pt x="591" y="240" on="0"/>
        <pt x="574" y="240" on="1"/>
        <pt x="109" y="240" on="1"/>
        <pt x="92" y="240" on="0"/>
        <pt x="69" y="263" on="0"/>
        <pt x="69" y="280" on="1"/>
        <pt x="69" y="297" on="0"/>
        <pt x="92" y="321" on="0"/>
        <pt x="109" y="321" on="1"/>
        <pt x="574" y="321" on="1"/>
      </contour>
    </TTGlyph>
    <TTGlyph name="equal" xMin="73" yMin="180" xMax="639" yMax="482">
      <contour>
        <pt x="112" y="404" on="1"/>
        <pt x="95" y="404" on="0"/>
        <pt x="73" y="426" on="0"/>
        <pt x="73" y="443" on="1"/>
        <pt x="73" y="460" on="0"/>
        <pt x="95" y="482" on="0"/>
        <pt x="112" y="482" on="1"/>
        <pt x="600" y="482" on="1"/>
        <pt x="617" y="482" on="0"/>
        <pt x="639" y="460" on="0"/>
        <pt x="639" y="443" on="1"/>
        <pt x="639" y="426" on="0"/>
        <pt x="617" y="404" on="0"/>
        <pt x="600" y="404" on="1"/>
      </contour>
      <contour>
        <pt x="600" y="258" on="1"/>
        <pt x="617" y="258" on="0"/>
        <pt x="639" y="236" on="0"/>
        <pt x="639" y="219" on="1"/>
        <pt x="639" y="202" on="0"/>
        <pt x="617" y="180" on="0"/>
        <pt x="600" y="180" on="1"/>
        <pt x="112" y="180" on="1"/>
        <pt x="95" y="180" on="0"/>
        <pt x="73" y="202" on="0"/>
        <pt x="73" y="219" on="1"/>
        <pt x="73" y="236" on="0"/>
        <pt x="95" y="258" on="0"/>
        <pt x="112" y="258" on="1"/>
      </contour>
    </TTGlyph>
    <TTGlyph name="eth" xMin="49" yMin="-10" xMax="546" yMax="752">
      <contour>
        <pt x="396" y="477" on="1"/>
        <pt x="355" y="537" on="0"/>
        <pt x="289" y="594" on="1"/>
        <pt x="205" y="545" on="1"/>
        <pt x="193" y="539" on="0"/>
        <pt x="177" y="539" on="0"/>
        <pt x="163" y="553" on="0"/>
        <pt x="163" y="579" on="0"/>
        <pt x="178" y="587" on="1"/>
        <pt x="246" y="627" on="1"/>
        <pt x="200" y="659" on="0"/>
        <pt x="161" y="680" on="0"/>
        <pt x="150" y="699" on="0"/>
        <pt x="150" y="728" on="0"/>
        <pt x="175" y="752" on="0"/>
        <pt x="203" y="752" on="0"/>
        <pt x="219" y="742" on="1"/>
        <pt x="273" y="710" on="0"/>
        <pt x="322" y="671" on="1"/>
        <pt x="390" y="712" on="1"/>
        <pt x="398" y="717" on="0"/>
        <pt x="416" y="717" on="0"/>
        <pt x="430" y="703" on="0"/>
        <pt x="430" y="677" on="0"/>
        <pt x="418" y="670" on="1"/>
        <pt x="362" y="637" on="1"/>
        <pt x="546" y="469" on="0"/>
        <pt x="546" y="274" on="1"/>
        <pt x="546" y="76" on="0"/>
        <pt x="412" y="12" on="1"/>
        <pt x="364" y="-10" on="0"/>
        <pt x="241" y="-10" on="0"/>
        <pt x="149" y="27" on="0"/>
        <pt x="116" y="61" on="1"/>
        <pt x="49" y="132" on="0"/>
        <pt x="49" y="248" on="1"/>
        <pt x="49" y="354" on="0"/>
        <pt x="110" y="426" on="1"/>
        <pt x="176" y="505" on="0"/>
        <pt x="283" y="505" on="1"/>
        <pt x="342" y="505" on="0"/>
      </contour>
      <contour>
        <pt x="297" y="70" on="1"/>
        <pt x="361" y="70" on="0"/>
        <pt x="405" y="112" on="1"/>
        <pt x="458" y="161" on="0"/>
        <pt x="458" y="252" on="1"/>
        <pt x="458" y="341" on="0"/>
        <pt x="405" y="390" on="1"/>
        <pt x="362" y="431" on="0"/>
        <pt x="297" y="431" on="1"/>
        <pt x="232" y="431" on="0"/>
        <pt x="189" y="390" on="1"/>
        <pt x="137" y="342" on="0"/>
        <pt x="137" y="252" on="1"/>
        <pt x="137" y="160" on="0"/>
        <pt x="189" y="112" on="1"/>
        <pt x="233" y="70" on="0"/>
      </contour>
    </TTGlyph>
    <TTGlyph name="exclam" xMin="82" yMin="-4" xMax="201" yMax="703">
      <contour>
        <pt x="141" y="193" on="1"/>
        <pt x="109" y="193" on="0"/>
        <pt x="107" y="222" on="1"/>
        <pt x="89" y="552" on="1"/>
        <pt x="89" y="651" on="1"/>
        <pt x="89" y="673" on="0"/>
        <pt x="119" y="703" on="0"/>
        <pt x="141" y="703" on="1"/>
        <pt x="163" y="703" on="0"/>
        <pt x="192" y="673" on="0"/>
        <pt x="192" y="651" on="1"/>
        <pt x="192" y="552" on="1"/>
        <pt x="174" y="222" on="1"/>
        <pt x="172" y="193" on="0"/>
      </contour>
      <contour>
        <pt x="82" y="80" on="0"/>
        <pt x="117" y="115" on="0"/>
        <pt x="166" y="115" on="0"/>
        <pt x="201" y="80" on="0"/>
        <pt x="201" y="31" on="0"/>
        <pt x="166" y="-4" on="0"/>
        <pt x="117" y="-4" on="0"/>
        <pt x="82" y="31" on="0"/>
      </contour>
    </TTGlyph>
    <TTGlyph name="exclamdown" xMin="72" yMin="-193" xMax="191" yMax="514">
      <component glyphName="exclam" x="-10" y="510" scalex="1.0" scaley="-0.999938964844" flags="0x1004"/>
    </TTGlyph>
    <TTGlyph name="f" xMin="19" yMin="-5" xMax="377" yMax="740">
      <contour>
        <pt x="340" y="647" on="1"/>
        <pt x="290" y="653" on="1"/>
        <pt x="252" y="653" on="0"/>
        <pt x="208" y="618" on="0"/>
        <pt x="208" y="565" on="1"/>
        <pt x="208" y="510" on="1"/>
        <pt x="333" y="510" on="1"/>
        <pt x="350" y="510" on="0"/>
        <pt x="372" y="488" on="0"/>
        <pt x="372" y="471" on="1"/>
        <pt x="372" y="454" on="0"/>
        <pt x="350" y="432" on="0"/>
        <pt x="333" y="432" on="1"/>
        <pt x="208" y="432" on="1"/>
        <pt x="208" y="40" on="1"/>
        <pt x="208" y="21" on="0"/>
        <pt x="182" y="-5" on="0"/>
        <pt x="143" y="-5" on="0"/>
        <pt x="117" y="21" on="0"/>
        <pt x="117" y="40" on="1"/>
        <pt x="117" y="432" on="1"/>
        <pt x="58" y="432" on="1"/>
        <pt x="41" y="432" on="0"/>
        <pt x="19" y="454" on="0"/>
        <pt x="19" y="471" on="1"/>
        <pt x="19" y="488" on="0"/>
        <pt x="41" y="510" on="0"/>
        <pt x="58" y="510" on="1"/>
        <pt x="117" y="510" on="1"/>
        <pt x="117" y="568" on="1"/>
        <pt x="117" y="655" on="0"/>
        <pt x="166" y="702" on="1"/>
        <pt x="206" y="740" on="0"/>
        <pt x="267" y="740" on="1"/>
        <pt x="314" y="740" on="0"/>
        <pt x="354" y="720" on="1"/>
        <pt x="377" y="707" on="0"/>
        <pt x="377" y="671" on="0"/>
        <pt x="356" y="647" on="0"/>
      </contour>
    </TTGlyph>
    <TTGlyph name="f_f" xMin="19" yMin="-5" xMax="771" yMax="740">
      <contour>
        <pt x="734" y="647" on="1"/>
        <pt x="684" y="653" on="1"/>
        <pt x="646" y="653" on="0"/>
        <pt x="602" y="618" on="0"/>
        <pt x="602" y="565" on="1"/>
        <pt x="602" y="510" on="1"/>
        <pt x="727" y="510" on="1"/>
        <pt x="744" y="510" on="0"/>
        <pt x="766" y="488" on="0"/>
        <pt x="766" y="471" on="1"/>
        <pt x="766" y="454" on="0"/>
        <pt x="744" y="432" on="0"/>
        <pt x="727" y="432" on="1"/>
        <pt x="602" y="432" on="1"/>
        <pt x="602" y="40" on="1"/>
        <pt x="602" y="21" on="0"/>
        <pt x="576" y="-5" on="0"/>
        <pt x="537" y="-5" on="0"/>
        <pt x="511" y="21" on="0"/>
        <pt x="511" y="40" on="1"/>
        <pt x="511" y="432" on="1"/>
        <pt x="208" y="432" on="1"/>
        <pt x="208" y="40" on="1"/>
        <pt x="208" y="21" on="0"/>
        <pt x="182" y="-5" on="0"/>
        <pt x="143" y="-5" on="0"/>
        <pt x="117" y="21" on="0"/>
        <pt x="117" y="40" on="1"/>
        <pt x="117" y="432" on="1"/>
        <pt x="58" y="432" on="1"/>
        <pt x="41" y="432" on="0"/>
        <pt x="19" y="454" on="0"/>
        <pt x="19" y="471" on="1"/>
        <pt x="19" y="488" on="0"/>
        <pt x="41" y="510" on="0"/>
        <pt x="58" y="510" on="1"/>
        <pt x="117" y="510" on="1"/>
        <pt x="117" y="568" on="1"/>
        <pt x="117" y="655" on="0"/>
        <pt x="166" y="702" on="1"/>
        <pt x="206" y="740" on="0"/>
        <pt x="267" y="740" on="1"/>
        <pt x="314" y="740" on="0"/>
        <pt x="354" y="720" on="1"/>
        <pt x="377" y="707" on="0"/>
        <pt x="377" y="671" on="0"/>
        <pt x="356" y="647" on="0"/>
        <pt x="340" y="647" on="1"/>
        <pt x="290" y="653" on="1"/>
        <pt x="252" y="653" on="0"/>
        <pt x="208" y="618" on="0"/>
        <pt x="208" y="565" on="1"/>
        <pt x="208" y="510" on="1"/>
        <pt x="511" y="510" on="1"/>
        <pt x="511" y="568" on="1"/>
        <pt x="511" y="655" on="0"/>
        <pt x="560" y="702" on="1"/>
        <pt x="600" y="740" on="0"/>
        <pt x="661" y="740" on="1"/>
        <pt x="708" y="740" on="0"/>
        <pt x="748" y="720" on="1"/>
        <pt x="771" y="707" on="0"/>
        <pt x="771" y="671" on="0"/>
        <pt x="750" y="647" on="0"/>
      </contour>
    </TTGlyph>
    <TTGlyph name="f_f_i" xMin="19" yMin="-5" xMax="961" yMax="740">
      <contour>
        <pt x="734" y="647" on="1"/>
        <pt x="684" y="653" on="1"/>
        <pt x="646" y="653" on="0"/>
        <pt x="602" y="618" on="0"/>
        <pt x="602" y="565" on="1"/>
        <pt x="602" y="510" on="1"/>
        <pt x="906" y="510" on="1"/>
        <pt x="926" y="510" on="0"/>
        <pt x="952" y="484" on="0"/>
        <pt x="952" y="464" on="1"/>
        <pt x="952" y="40" on="1"/>
        <pt x="952" y="21" on="0"/>
        <pt x="926" y="-5" on="0"/>
        <pt x="887" y="-5" on="0"/>
        <pt x="861" y="21" on="0"/>
        <pt x="861" y="40" on="1"/>
        <pt x="861" y="432" on="1"/>
        <pt x="602" y="432" on="1"/>
        <pt x="602" y="40" on="1"/>
        <pt x="602" y="21" on="0"/>
        <pt x="576" y="-5" on="0"/>
        <pt x="537" y="-5" on="0"/>
        <pt x="511" y="21" on="0"/>
        <pt x="511" y="40" on="1"/>
        <pt x="511" y="432" on="1"/>
        <pt x="208" y="432" on="1"/>
        <pt x="208" y="40" on="1"/>
        <pt x="208" y="21" on="0"/>
        <pt x="182" y="-5" on="0"/>
        <pt x="143" y="-5" on="0"/>
        <pt x="117" y="21" on="0"/>
        <pt x="117" y="40" on="1"/>
        <pt x="117" y="432" on="1"/>
        <pt x="58" y="432" on="1"/>
        <pt x="41" y="432" on="0"/>
        <pt x="19" y="454" on="0"/>
        <pt x="19" y="471" on="1"/>
        <pt x="19" y="488" on="0"/>
        <pt x="41" y="510" on="0"/>
        <pt x="58" y="510" on="1"/>
        <pt x="117" y="510" on="1"/>
        <pt x="117" y="568" on="1"/>
        <pt x="117" y="655" on="0"/>
        <pt x="166" y="702" on="1"/>
        <pt x="206" y="740" on="0"/>
        <pt x="267" y="740" on="1"/>
        <pt x="314" y="740" on="0"/>
        <pt x="354" y="720" on="1"/>
        <pt x="377" y="707" on="0"/>
        <pt x="377" y="671" on="0"/>
        <pt x="356" y="647" on="0"/>
        <pt x="340" y="647" on="1"/>
        <pt x="290" y="653" on="1"/>
        <pt x="252" y="653" on="0"/>
        <pt x="208" y="618" on="0"/>
        <pt x="208" y="565" on="1"/>
        <pt x="208" y="510" on="1"/>
        <pt x="511" y="510" on="1"/>
        <pt x="511" y="568" on="1"/>
        <pt x="511" y="655" on="0"/>
        <pt x="560" y="702" on="1"/>
        <pt x="600" y="740" on="0"/>
        <pt x="661" y="740" on="1"/>
        <pt x="708" y="740" on="0"/>
        <pt x="748" y="720" on="1"/>
        <pt x="771" y="707" on="0"/>
        <pt x="771" y="671" on="0"/>
        <pt x="750" y="647" on="0"/>
      </contour>
      <contour>
        <pt x="961" y="665" on="1"/>
        <pt x="961" y="644" on="0"/>
        <pt x="931" y="614" on="0"/>
        <pt x="910" y="614" on="1"/>
        <pt x="904" y="614" on="1"/>
        <pt x="883" y="614" on="0"/>
        <pt x="853" y="644" on="0"/>
        <pt x="853" y="665" on="1"/>
        <pt x="853" y="669" on="1"/>
        <pt x="853" y="690" on="0"/>
        <pt x="883" y="720" on="0"/>
        <pt x="904" y="720" on="1"/>
        <pt x="910" y="720" on="1"/>
        <pt x="931" y="720" on="0"/>
        <pt x="961" y="690" on="0"/>
        <pt x="961" y="669" on="1"/>
      </contour>
    </TTGlyph>
    <TTGlyph name="f_f_l" xMin="19" yMin="-5" xMax="951" yMax="740">
      <component glyphName="l" x="773" y="0" flags="0x1004"/>
      <component glyphName="f_f" x="0" y="0" flags="0x1004"/>
    </TTGlyph>
    <TTGlyph name="f_j" xMin="19" yMin="-240" xMax="567" yMax="740">
      <contour>
        <pt x="340" y="647" on="1"/>
        <pt x="290" y="653" on="1"/>
        <pt x="252" y="653" on="0"/>
        <pt x="208" y="618" on="0"/>
        <pt x="208" y="565" on="1"/>
        <pt x="208" y="510" on="1"/>
        <pt x="515" y="510" on="1"/>
        <pt x="534" y="508" on="0"/>
        <pt x="558" y="483" on="0"/>
        <pt x="558" y="464" on="1"/>
        <pt x="558" y="-103" on="1"/>
        <pt x="558" y="-200" on="0"/>
        <pt x="488" y="-230" on="1"/>
        <pt x="463" y="-240" on="0"/>
        <pt x="427" y="-240" on="1"/>
        <pt x="391" y="-240" on="0"/>
        <pt x="338" y="-223" on="0"/>
        <pt x="338" y="-195" on="1"/>
        <pt x="338" y="-180" on="0"/>
        <pt x="359" y="-157" on="0"/>
        <pt x="376" y="-157" on="1"/>
        <pt x="406" y="-160" on="1"/>
        <pt x="437" y="-160" on="0"/>
        <pt x="447" y="-152" on="1"/>
        <pt x="467" y="-139" on="0"/>
        <pt x="467" y="-101" on="1"/>
        <pt x="467" y="432" on="1"/>
        <pt x="208" y="432" on="1"/>
        <pt x="208" y="40" on="1"/>
        <pt x="208" y="21" on="0"/>
        <pt x="182" y="-5" on="0"/>
        <pt x="143" y="-5" on="0"/>
        <pt x="117" y="21" on="0"/>
        <pt x="117" y="40" on="1"/>
        <pt x="117" y="432" on="1"/>
        <pt x="58" y="432" on="1"/>
        <pt x="41" y="432" on="0"/>
        <pt x="19" y="454" on="0"/>
        <pt x="19" y="471" on="1"/>
        <pt x="19" y="488" on="0"/>
        <pt x="41" y="510" on="0"/>
        <pt x="58" y="510" on="1"/>
        <pt x="117" y="510" on="1"/>
        <pt x="117" y="568" on="1"/>
        <pt x="117" y="655" on="0"/>
        <pt x="166" y="702" on="1"/>
        <pt x="206" y="740" on="0"/>
        <pt x="267" y="740" on="1"/>
        <pt x="314" y="740" on="0"/>
        <pt x="354" y="720" on="1"/>
        <pt x="377" y="707" on="0"/>
        <pt x="377" y="671" on="0"/>
        <pt x="356" y="647" on="0"/>
      </contour>
      <contour>
        <pt x="567" y="665" on="1"/>
        <pt x="567" y="644" on="0"/>
        <pt x="537" y="614" on="0"/>
        <pt x="516" y="614" on="1"/>
        <pt x="510" y="614" on="1"/>
        <pt x="489" y="614" on="0"/>
        <pt x="459" y="644" on="0"/>
        <pt x="459" y="665" on="1"/>
        <pt x="459" y="669" on="1"/>
        <pt x="459" y="690" on="0"/>
        <pt x="489" y="720" on="0"/>
        <pt x="510" y="720" on="1"/>
        <pt x="516" y="720" on="1"/>
        <pt x="537" y="720" on="0"/>
        <pt x="567" y="690" on="0"/>
        <pt x="567" y="669" on="1"/>
      </contour>
    </TTGlyph>
    <TTGlyph name="fi" xMin="19" yMin="-5" xMax="567" yMax="740">
      <contour>
        <pt x="340" y="647" on="1"/>
        <pt x="290" y="653" on="1"/>
        <pt x="252" y="653" on="0"/>
        <pt x="208" y="618" on="0"/>
        <pt x="208" y="565" on="1"/>
        <pt x="208" y="510" on="1"/>
        <pt x="515" y="510" on="1"/>
        <pt x="534" y="508" on="0"/>
        <pt x="558" y="483" on="0"/>
        <pt x="558" y="464" on="1"/>
        <pt x="558" y="40" on="1"/>
        <pt x="558" y="21" on="0"/>
        <pt x="532" y="-5" on="0"/>
        <pt x="493" y="-5" on="0"/>
        <pt x="467" y="21" on="0"/>
        <pt x="467" y="40" on="1"/>
        <pt x="467" y="432" on="1"/>
        <pt x="208" y="432" on="1"/>
        <pt x="208" y="40" on="1"/>
        <pt x="208" y="21" on="0"/>
        <pt x="182" y="-5" on="0"/>
        <pt x="143" y="-5" on="0"/>
        <pt x="117" y="21" on="0"/>
        <pt x="117" y="40" on="1"/>
        <pt x="117" y="432" on="1"/>
        <pt x="58" y="432" on="1"/>
        <pt x="41" y="432" on="0"/>
        <pt x="19" y="454" on="0"/>
        <pt x="19" y="471" on="1"/>
        <pt x="19" y="488" on="0"/>
        <pt x="41" y="510" on="0"/>
        <pt x="58" y="510" on="1"/>
        <pt x="117" y="510" on="1"/>
        <pt x="117" y="568" on="1"/>
        <pt x="117" y="655" on="0"/>
        <pt x="166" y="702" on="1"/>
        <pt x="206" y="740" on="0"/>
        <pt x="267" y="740" on="1"/>
        <pt x="314" y="740" on="0"/>
        <pt x="354" y="720" on="1"/>
        <pt x="377" y="707" on="0"/>
        <pt x="377" y="671" on="0"/>
        <pt x="356" y="647" on="0"/>
      </contour>
      <contour>
        <pt x="567" y="665" on="1"/>
        <pt x="567" y="644" on="0"/>
        <pt x="537" y="614" on="0"/>
        <pt x="516" y="614" on="1"/>
        <pt x="510" y="614" on="1"/>
        <pt x="489" y="614" on="0"/>
        <pt x="459" y="644" on="0"/>
        <pt x="459" y="665" on="1"/>
        <pt x="459" y="669" on="1"/>
        <pt x="459" y="690" on="0"/>
        <pt x="489" y="720" on="0"/>
        <pt x="510" y="720" on="1"/>
        <pt x="516" y="720" on="1"/>
        <pt x="537" y="720" on="0"/>
        <pt x="567" y="690" on="0"/>
        <pt x="567" y="669" on="1"/>
      </contour>
    </TTGlyph>
    <TTGlyph name="five" xMin="64" yMin="-10" xMax="571" yMax="698">
      <contour>
        <pt x="169" y="401" on="1"/>
        <pt x="244" y="442" on="0"/>
        <pt x="338" y="442" on="1"/>
        <pt x="449" y="442" on="0"/>
        <pt x="512" y="378" on="1"/>
        <pt x="571" y="317" on="0"/>
        <pt x="571" y="216" on="1"/>
        <pt x="571" y="58" on="0"/>
        <pt x="420" y="8" on="1"/>
        <pt x="368" y="-10" on="0"/>
        <pt x="298" y="-10" on="1"/>
        <pt x="176" y="-10" on="0"/>
        <pt x="84" y="48" on="1"/>
        <pt x="64" y="60" on="0"/>
        <pt x="64" y="101" on="0"/>
        <pt x="86" y="127" on="0"/>
        <pt x="115" y="127" on="0"/>
        <pt x="136" y="116" on="1"/>
        <pt x="205" y="80" on="0"/>
        <pt x="285" y="80" on="1"/>
        <pt x="428" y="80" on="0"/>
        <pt x="466" y="153" on="1"/>
        <pt x="480" y="180" on="0"/>
        <pt x="480" y="221" on="1"/>
        <pt x="480" y="283" on="0"/>
        <pt x="397" y="355" on="0"/>
        <pt x="336" y="355" on="1"/>
        <pt x="243" y="355" on="0"/>
        <pt x="171" y="312" on="1"/>
        <pt x="150" y="300" on="0"/>
        <pt x="108" y="300" on="0"/>
        <pt x="70" y="331" on="0"/>
        <pt x="70" y="358" on="1"/>
        <pt x="70" y="372" on="0"/>
        <pt x="72" y="382" on="1"/>
        <pt x="117" y="648" on="1"/>
        <pt x="120" y="671" on="0"/>
        <pt x="149" y="698" on="0"/>
        <pt x="170" y="698" on="1"/>
        <pt x="491" y="698" on="1"/>
        <pt x="509" y="698" on="0"/>
        <pt x="534" y="673" on="0"/>
        <pt x="534" y="655" on="1"/>
        <pt x="534" y="637" on="0"/>
        <pt x="509" y="613" on="0"/>
        <pt x="491" y="613" on="1"/>
        <pt x="201" y="613" on="1"/>
      </contour>
    </TTGlyph>
    <TTGlyph name="fl" xMin="19" yMin="-5" xMax="557" yMax="740">
      <component glyphName="f" x="0" y="0" flags="0x1004"/>
      <component glyphName="l" x="379" y="0" flags="0x1004"/>
    </TTGlyph>
    <TTGlyph name="florin" xMin="-53" yMin="-156" xMax="444" yMax="746">
      <contour>
        <pt x="356" y="746" on="1"/>
        <pt x="395" y="746" on="0"/>
        <pt x="413" y="737" on="1"/>
        <pt x="444" y="722" on="0"/>
        <pt x="444" y="680" on="0"/>
        <pt x="421" y="657" on="0"/>
        <pt x="395" y="657" on="0"/>
        <pt x="371" y="663" on="0"/>
        <pt x="315" y="663" on="0"/>
        <pt x="266" y="628" on="0"/>
        <pt x="259" y="575" on="1"/>
        <pt x="238" y="427" on="1"/>
        <pt x="355" y="427" on="1"/>
        <pt x="369" y="427" on="0"/>
        <pt x="386" y="408" on="0"/>
        <pt x="386" y="382" on="0"/>
        <pt x="368" y="365" on="0"/>
        <pt x="355" y="365" on="1"/>
        <pt x="230" y="365" on="1"/>
        <pt x="180" y="12" on="1"/>
        <pt x="167" y="-76" on="0"/>
        <pt x="113" y="-120" on="1"/>
        <pt x="68" y="-156" on="0"/>
        <pt x="6" y="-156" on="1"/>
        <pt x="-12" y="-156" on="1"/>
        <pt x="-29" y="-156" on="0"/>
        <pt x="-53" y="-132" on="0"/>
        <pt x="-53" y="-115" on="1"/>
        <pt x="-53" y="-98" on="0"/>
        <pt x="-29" y="-73" on="0"/>
        <pt x="-12" y="-73" on="1"/>
        <pt x="-5" y="-73" on="1"/>
        <pt x="35" y="-73" on="0"/>
        <pt x="52" y="-60" on="1"/>
        <pt x="81" y="-36" on="0"/>
        <pt x="89" y="15" on="1"/>
        <pt x="138" y="365" on="1"/>
        <pt x="60" y="365" on="1"/>
        <pt x="46" y="365" on="0"/>
        <pt x="29" y="383" on="0"/>
        <pt x="29" y="396" on="1"/>
        <pt x="29" y="409" on="0"/>
        <pt x="47" y="427" on="0"/>
        <pt x="60" y="427" on="1"/>
        <pt x="147" y="427" on="1"/>
        <pt x="168" y="578" on="1"/>
        <pt x="181" y="666" on="0"/>
        <pt x="236" y="710" on="1"/>
        <pt x="281" y="746" on="0"/>
      </contour>
    </TTGlyph>
    <TTGlyph name="four" xMin="25" yMin="-5" xMax="596" yMax="703">
      <contour>
        <pt x="555" y="257" on="1"/>
        <pt x="572" y="257" on="0"/>
        <pt x="596" y="233" on="0"/>
        <pt x="596" y="216" on="1"/>
        <pt x="596" y="199" on="0"/>
        <pt x="572" y="176" on="0"/>
        <pt x="555" y="176" on="1"/>
        <pt x="479" y="176" on="1"/>
        <pt x="479" y="40" on="1"/>
        <pt x="479" y="21" on="0"/>
        <pt x="452" y="-5" on="0"/>
        <pt x="433" y="-5" on="1"/>
        <pt x="414" y="-5" on="0"/>
        <pt x="388" y="21" on="0"/>
        <pt x="388" y="40" on="1"/>
        <pt x="388" y="176" on="1"/>
        <pt x="83" y="176" on="1"/>
        <pt x="59" y="176" on="0"/>
        <pt x="25" y="209" on="0"/>
        <pt x="25" y="233" on="1"/>
        <pt x="25" y="242" on="1"/>
        <pt x="25" y="263" on="0"/>
        <pt x="37" y="278" on="1"/>
        <pt x="351" y="679" on="1"/>
        <pt x="368" y="703" on="0"/>
        <pt x="401" y="703" on="1"/>
        <pt x="421" y="703" on="1"/>
        <pt x="447" y="703" on="0"/>
        <pt x="479" y="669" on="0"/>
        <pt x="479" y="645" on="1"/>
        <pt x="479" y="257" on="1"/>
      </contour>
      <contour>
        <pt x="388" y="257" on="1"/>
        <pt x="388" y="600" on="1"/>
        <pt x="122" y="257" on="1"/>
      </contour>
    </TTGlyph>
    <TTGlyph name="fraction" xMin="-140" yMin="-24" xMax="341" yMax="724">
      <contour>
        <pt x="-78" y="-10" on="1"/>
        <pt x="-87" y="-24" on="0"/>
        <pt x="-120" y="-24" on="0"/>
        <pt x="-140" y="-5" on="0"/>
        <pt x="-140" y="18" on="0"/>
        <pt x="-135" y="28" on="1"/>
        <pt x="279" y="710" on="1"/>
        <pt x="288" y="724" on="0"/>
        <pt x="321" y="724" on="0"/>
        <pt x="341" y="705" on="0"/>
        <pt x="341" y="682" on="0"/>
        <pt x="336" y="672" on="1"/>
      </contour>
    </TTGlyph>
    <TTGlyph name="g" xMin="48" yMin="-240" xMax="552" yMax="520">
      <contour>
        <pt x="461" y="444" on="1"/>
        <pt x="461" y="469" on="1"/>
        <pt x="461" y="488" on="0"/>
        <pt x="487" y="515" on="0"/>
        <pt x="506" y="515" on="1"/>
        <pt x="525" y="515" on="0"/>
        <pt x="552" y="488" on="0"/>
        <pt x="552" y="469" on="1"/>
        <pt x="552" y="22" on="1"/>
        <pt x="552" y="-105" on="0"/>
        <pt x="430" y="-240" on="0"/>
        <pt x="317" y="-240" on="1"/>
        <pt x="197" y="-240" on="0"/>
        <pt x="103" y="-188" on="1"/>
        <pt x="85" y="-177" on="0"/>
        <pt x="85" y="-138" on="0"/>
        <pt x="108" y="-112" on="0"/>
        <pt x="133" y="-112" on="0"/>
        <pt x="143" y="-116" on="1"/>
        <pt x="219" y="-154" on="0"/>
        <pt x="308" y="-154" on="1"/>
        <pt x="461" y="-154" on="0"/>
        <pt x="461" y="9" on="1"/>
        <pt x="461" y="76" on="1"/>
        <pt x="390" y="0" on="0"/>
        <pt x="290" y="0" on="1"/>
        <pt x="195" y="0" on="0"/>
        <pt x="127" y="64" on="1"/>
        <pt x="48" y="137" on="0"/>
        <pt x="48" y="260" on="1"/>
        <pt x="48" y="383" on="0"/>
        <pt x="127" y="456" on="1"/>
        <pt x="195" y="520" on="0"/>
        <pt x="390" y="520" on="0"/>
      </contour>
      <contour>
        <pt x="461" y="363" on="1"/>
        <pt x="433" y="392" on="0"/>
        <pt x="361" y="437" on="0"/>
        <pt x="273" y="437" on="0"/>
        <pt x="211" y="415" on="0"/>
        <pt x="188" y="394" on="1"/>
        <pt x="139" y="348" on="0"/>
        <pt x="139" y="260" on="1"/>
        <pt x="139" y="131" on="0"/>
        <pt x="242" y="94" on="1"/>
        <pt x="273" y="83" on="0"/>
        <pt x="317" y="83" on="1"/>
        <pt x="390" y="83" on="0"/>
        <pt x="461" y="157" on="1"/>
      </contour>
    </TTGlyph>
    <TTGlyph name="germandbls" xMin="79" yMin="-10" xMax="563" yMax="708">
      <contour>
        <pt x="414" y="352" on="1"/>
        <pt x="477" y="336" on="0"/>
        <pt x="512" y="302" on="1"/>
        <pt x="563" y="253" on="0"/>
        <pt x="563" y="174" on="1"/>
        <pt x="563" y="87" on="0"/>
        <pt x="504" y="35" on="1"/>
        <pt x="452" y="-10" on="0"/>
        <pt x="373" y="-10" on="1"/>
        <pt x="309" y="-10" on="0"/>
        <pt x="262" y="7" on="1"/>
        <pt x="230" y="18" on="0"/>
        <pt x="230" y="45" on="1"/>
        <pt x="230" y="62" on="0"/>
        <pt x="252" y="84" on="0"/>
        <pt x="276" y="84" on="0"/>
        <pt x="314" y="71" on="0"/>
        <pt x="372" y="71" on="0"/>
        <pt x="411" y="80" on="0"/>
        <pt x="429" y="92" on="1"/>
        <pt x="472" y="122" on="0"/>
        <pt x="472" y="185" on="1"/>
        <pt x="472" y="242" on="0"/>
        <pt x="423" y="276" on="1"/>
        <pt x="376" y="309" on="0"/>
        <pt x="300" y="309" on="1"/>
        <pt x="282" y="309" on="0"/>
        <pt x="262" y="329" on="0"/>
        <pt x="262" y="361" on="0"/>
        <pt x="283" y="381" on="0"/>
        <pt x="300" y="383" on="1"/>
        <pt x="362" y="390" on="0"/>
        <pt x="433" y="454" on="0"/>
        <pt x="433" y="559" on="0"/>
        <pt x="364" y="623" on="0"/>
        <pt x="304" y="623" on="1"/>
        <pt x="213" y="623" on="0"/>
        <pt x="182" y="548" on="1"/>
        <pt x="170" y="520" on="0"/>
        <pt x="170" y="475" on="1"/>
        <pt x="170" y="41" on="1"/>
        <pt x="170" y="22" on="0"/>
        <pt x="143" y="-4" on="0"/>
        <pt x="124" y="-4" on="1"/>
        <pt x="105" y="-4" on="0"/>
        <pt x="79" y="22" on="0"/>
        <pt x="79" y="41" on="1"/>
        <pt x="79" y="486" on="1"/>
        <pt x="79" y="591" on="0"/>
        <pt x="142" y="650" on="1"/>
        <pt x="203" y="708" on="0"/>
        <pt x="305" y="708" on="1"/>
        <pt x="391" y="708" on="0"/>
        <pt x="452" y="661" on="1"/>
        <pt x="524" y="607" on="0"/>
        <pt x="524" y="512" on="1"/>
        <pt x="524" y="411" on="0"/>
        <pt x="454" y="370" on="1"/>
        <pt x="434" y="358" on="0"/>
      </contour>
    </TTGlyph>
    <TTGlyph name="grave" xMin="69" yMin="567" xMax="197" yMax="722">
      <contour>
        <pt x="69" y="685" on="1"/>
        <pt x="69" y="722" on="0"/>
        <pt x="109" y="722" on="1"/>
        <pt x="129" y="722" on="0"/>
        <pt x="139" y="703" on="1"/>
        <pt x="190" y="613" on="1"/>
        <pt x="197" y="606" on="0"/>
        <pt x="197" y="582" on="0"/>
        <pt x="182" y="567" on="0"/>
        <pt x="157" y="567" on="0"/>
        <pt x="148" y="578" on="1"/>
        <pt x="79" y="660" on="1"/>
        <pt x="69" y="671" on="0"/>
      </contour>
    </TTGlyph>
    <TTGlyph name="greater" xMin="54" yMin="58" xMax="545" yMax="534">
      <contour>
        <pt x="110" y="61" on="1"/>
        <pt x="102" y="58" on="0"/>
        <pt x="77" y="58" on="0"/>
        <pt x="54" y="81" on="0"/>
        <pt x="54" y="96" on="1"/>
        <pt x="54" y="125" on="0"/>
        <pt x="81" y="136" on="1"/>
        <pt x="441" y="296" on="1"/>
        <pt x="81" y="456" on="1"/>
        <pt x="69" y="461" on="0"/>
        <pt x="54" y="482" on="0"/>
        <pt x="54" y="511" on="0"/>
        <pt x="77" y="534" on="0"/>
        <pt x="102" y="534" on="0"/>
        <pt x="110" y="531" on="1"/>
        <pt x="509" y="352" on="1"/>
        <pt x="545" y="335" on="0"/>
        <pt x="545" y="300" on="1"/>
        <pt x="545" y="292" on="1"/>
        <pt x="545" y="257" on="0"/>
        <pt x="509" y="240" on="1"/>
      </contour>
    </TTGlyph>
    <TTGlyph name="greaterequal" xMin="76" yMin="0" xMax="572" yMax="589">
      <contour>
        <pt x="133" y="116" on="1"/>
        <pt x="125" y="113" on="0"/>
        <pt x="100" y="113" on="0"/>
        <pt x="77" y="136" on="0"/>
        <pt x="77" y="150" on="1"/>
        <pt x="77" y="180" on="0"/>
        <pt x="104" y="191" on="1"/>
        <pt x="464" y="351" on="1"/>
        <pt x="104" y="511" on="1"/>
        <pt x="92" y="516" on="0"/>
        <pt x="77" y="537" on="0"/>
        <pt x="77" y="566" on="0"/>
        <pt x="100" y="589" on="0"/>
        <pt x="125" y="589" on="0"/>
        <pt x="133" y="586" on="1"/>
        <pt x="532" y="407" on="1"/>
        <pt x="568" y="390" on="0"/>
        <pt x="568" y="355" on="1"/>
        <pt x="568" y="347" on="1"/>
        <pt x="568" y="312" on="0"/>
        <pt x="532" y="295" on="1"/>
      </contour>
      <contour>
        <pt x="536" y="73" on="1"/>
        <pt x="551" y="73" on="0"/>
        <pt x="572" y="51" on="0"/>
        <pt x="572" y="36" on="1"/>
        <pt x="572" y="21" on="0"/>
        <pt x="551" y="0" on="0"/>
        <pt x="536" y="0" on="1"/>
        <pt x="113" y="0" on="1"/>
        <pt x="98" y="0" on="0"/>
        <pt x="76" y="21" on="0"/>
        <pt x="76" y="36" on="1"/>
        <pt x="76" y="51" on="0"/>
        <pt x="98" y="73" on="0"/>
        <pt x="113" y="73" on="1"/>
      </contour>
    </TTGlyph>
    <TTGlyph name="guillemotleft" xMin="54" yMin="20" xMax="511" yMax="490">
      <contour>
        <pt x="294" y="85" on="1"/>
        <pt x="303" y="74" on="0"/>
        <pt x="303" y="42" on="0"/>
        <pt x="281" y="20" on="0"/>
        <pt x="245" y="20" on="0"/>
        <pt x="236" y="31" on="1"/>
        <pt x="72" y="212" on="1"/>
        <pt x="54" y="230" on="0"/>
        <pt x="54" y="255" on="1"/>
        <pt x="54" y="280" on="0"/>
        <pt x="72" y="298" on="1"/>
        <pt x="236" y="479" on="1"/>
        <pt x="245" y="490" on="0"/>
        <pt x="281" y="490" on="0"/>
        <pt x="303" y="468" on="0"/>
        <pt x="303" y="435" on="0"/>
        <pt x="294" y="425" on="1"/>
        <pt x="134" y="255" on="1"/>
      </contour>
      <contour>
        <pt x="502" y="85" on="1"/>
        <pt x="511" y="74" on="0"/>
        <pt x="511" y="42" on="0"/>
        <pt x="489" y="20" on="0"/>
        <pt x="453" y="20" on="0"/>
        <pt x="444" y="31" on="1"/>
        <pt x="280" y="212" on="1"/>
        <pt x="262" y="230" on="0"/>
        <pt x="262" y="255" on="1"/>
        <pt x="262" y="280" on="0"/>
        <pt x="280" y="298" on="1"/>
        <pt x="444" y="479" on="1"/>
        <pt x="453" y="490" on="0"/>
        <pt x="489" y="490" on="0"/>
        <pt x="511" y="468" on="0"/>
        <pt x="511" y="435" on="0"/>
        <pt x="502" y="425" on="1"/>
        <pt x="342" y="255" on="1"/>
      </contour>
    </TTGlyph>
    <TTGlyph name="guillemotright" xMin="74" yMin="20" xMax="531" yMax="490">
      <contour>
        <pt x="304" y="20" on="0"/>
        <pt x="282" y="42" on="0"/>
        <pt x="282" y="74" on="0"/>
        <pt x="291" y="85" on="1"/>
        <pt x="451" y="255" on="1"/>
        <pt x="291" y="425" on="1"/>
        <pt x="282" y="435" on="0"/>
        <pt x="282" y="468" on="0"/>
        <pt x="304" y="490" on="0"/>
        <pt x="340" y="490" on="0"/>
        <pt x="349" y="479" on="1"/>
        <pt x="513" y="298" on="1"/>
        <pt x="531" y="280" on="0"/>
        <pt x="531" y="255" on="1"/>
        <pt x="531" y="230" on="0"/>
        <pt x="513" y="212" on="1"/>
        <pt x="349" y="31" on="1"/>
        <pt x="340" y="20" on="0"/>
      </contour>
      <contour>
        <pt x="96" y="20" on="0"/>
        <pt x="74" y="42" on="0"/>
        <pt x="74" y="74" on="0"/>
        <pt x="83" y="85" on="1"/>
        <pt x="243" y="255" on="1"/>
        <pt x="83" y="425" on="1"/>
        <pt x="74" y="435" on="0"/>
        <pt x="74" y="468" on="0"/>
        <pt x="96" y="490" on="0"/>
        <pt x="132" y="490" on="0"/>
        <pt x="141" y="479" on="1"/>
        <pt x="305" y="298" on="1"/>
        <pt x="323" y="280" on="0"/>
        <pt x="323" y="255" on="1"/>
        <pt x="323" y="230" on="0"/>
        <pt x="305" y="212" on="1"/>
        <pt x="141" y="31" on="1"/>
        <pt x="132" y="20" on="0"/>
      </contour>
    </TTGlyph>
    <TTGlyph name="guilsinglleft" xMin="54" yMin="20" xMax="303" yMax="490">
      <contour>
        <pt x="294" y="85" on="1"/>
        <pt x="303" y="74" on="0"/>
        <pt x="303" y="42" on="0"/>
        <pt x="281" y="20" on="0"/>
        <pt x="245" y="20" on="0"/>
        <pt x="236" y="31" on="1"/>
        <pt x="72" y="212" on="1"/>
        <pt x="54" y="230" on="0"/>
        <pt x="54" y="255" on="1"/>
        <pt x="54" y="280" on="0"/>
        <pt x="72" y="298" on="1"/>
        <pt x="236" y="479" on="1"/>
        <pt x="245" y="490" on="0"/>
        <pt x="281" y="490" on="0"/>
        <pt x="303" y="468" on="0"/>
        <pt x="303" y="435" on="0"/>
        <pt x="294" y="425" on="1"/>
        <pt x="134" y="255" on="1"/>
      </contour>
    </TTGlyph>
    <TTGlyph name="guilsinglright" xMin="74" yMin="20" xMax="323" yMax="490">
      <contour>
        <pt x="96" y="20" on="0"/>
        <pt x="74" y="42" on="0"/>
        <pt x="74" y="74" on="0"/>
        <pt x="83" y="85" on="1"/>
        <pt x="243" y="255" on="1"/>
        <pt x="83" y="425" on="1"/>
        <pt x="74" y="435" on="0"/>
        <pt x="74" y="468" on="0"/>
        <pt x="96" y="490" on="0"/>
        <pt x="132" y="490" on="0"/>
        <pt x="141" y="479" on="1"/>
        <pt x="305" y="298" on="1"/>
        <pt x="323" y="280" on="0"/>
        <pt x="323" y="255" on="1"/>
        <pt x="323" y="230" on="0"/>
        <pt x="305" y="212" on="1"/>
        <pt x="141" y="31" on="1"/>
        <pt x="132" y="20" on="0"/>
      </contour>
    </TTGlyph>
    <TTGlyph name="h" xMin="79" yMin="-5" xMax="535" yMax="735">
      <contour>
        <pt x="334" y="436" on="1"/>
        <pt x="246" y="436" on="0"/>
        <pt x="170" y="340" on="1"/>
        <pt x="170" y="40" on="1"/>
        <pt x="170" y="21" on="0"/>
        <pt x="143" y="-5" on="0"/>
        <pt x="124" y="-5" on="1"/>
        <pt x="105" y="-5" on="0"/>
        <pt x="79" y="21" on="0"/>
        <pt x="79" y="40" on="1"/>
        <pt x="79" y="689" on="1"/>
        <pt x="79" y="709" on="0"/>
        <pt x="105" y="735" on="0"/>
        <pt x="124" y="735" on="1"/>
        <pt x="143" y="735" on="0"/>
        <pt x="170" y="709" on="0"/>
        <pt x="170" y="689" on="1"/>
        <pt x="170" y="428" on="1"/>
        <pt x="210" y="470" on="0"/>
        <pt x="239" y="487" on="1"/>
        <pt x="296" y="520" on="0"/>
        <pt x="399" y="520" on="0"/>
        <pt x="465" y="489" on="0"/>
        <pt x="488" y="462" on="1"/>
        <pt x="535" y="407" on="0"/>
        <pt x="535" y="324" on="1"/>
        <pt x="535" y="40" on="1"/>
        <pt x="535" y="21" on="0"/>
        <pt x="508" y="-5" on="0"/>
        <pt x="489" y="-5" on="1"/>
        <pt x="470" y="-5" on="0"/>
        <pt x="444" y="21" on="0"/>
        <pt x="444" y="40" on="1"/>
        <pt x="444" y="314" on="1"/>
        <pt x="444" y="371" on="0"/>
        <pt x="393" y="436" on="0"/>
      </contour>
    </TTGlyph>
    <TTGlyph name="hungarumlaut" xMin="48" yMin="567" xMax="330" yMax="722">
      <contour>
        <pt x="106" y="703" on="1"/>
        <pt x="116" y="722" on="0"/>
        <pt x="136" y="722" on="1"/>
        <pt x="176" y="722" on="0"/>
        <pt x="176" y="685" on="1"/>
        <pt x="176" y="671" on="0"/>
        <pt x="166" y="660" on="1"/>
        <pt x="97" y="578" on="1"/>
        <pt x="88" y="567" on="0"/>
        <pt x="63" y="567" on="0"/>
        <pt x="48" y="582" on="0"/>
        <pt x="48" y="591" on="1"/>
        <pt x="48" y="606" on="0"/>
        <pt x="55" y="613" on="1"/>
      </contour>
      <contour>
        <pt x="260" y="703" on="1"/>
        <pt x="270" y="722" on="0"/>
        <pt x="290" y="722" on="1"/>
        <pt x="330" y="722" on="0"/>
        <pt x="330" y="685" on="1"/>
        <pt x="330" y="671" on="0"/>
        <pt x="320" y="660" on="1"/>
        <pt x="251" y="578" on="1"/>
        <pt x="242" y="567" on="0"/>
        <pt x="217" y="567" on="0"/>
        <pt x="202" y="582" on="0"/>
        <pt x="202" y="591" on="1"/>
        <pt x="202" y="606" on="0"/>
        <pt x="209" y="613" on="1"/>
      </contour>
    </TTGlyph>
    <TTGlyph name="hyphen" xMin="69" yMin="240" xMax="339" yMax="321">
      <contour>
        <pt x="315" y="321" on="0"/>
        <pt x="339" y="297" on="0"/>
        <pt x="339" y="280" on="1"/>
        <pt x="339" y="263" on="0"/>
        <pt x="315" y="240" on="0"/>
        <pt x="298" y="240" on="1"/>
        <pt x="109" y="240" on="1"/>
        <pt x="92" y="240" on="0"/>
        <pt x="69" y="263" on="0"/>
        <pt x="69" y="280" on="1"/>
        <pt x="69" y="297" on="0"/>
        <pt x="92" y="321" on="0"/>
        <pt x="109" y="321" on="1"/>
        <pt x="298" y="321" on="1"/>
      </contour>
    </TTGlyph>
    <TTGlyph name="i" xMin="75" yMin="-5" xMax="183" yMax="720">
      <contour>
        <pt x="83" y="489" on="0"/>
        <pt x="109" y="515" on="0"/>
        <pt x="148" y="515" on="0"/>
        <pt x="174" y="489" on="0"/>
        <pt x="174" y="469" on="1"/>
        <pt x="174" y="40" on="1"/>
        <pt x="174" y="21" on="0"/>
        <pt x="148" y="-5" on="0"/>
        <pt x="109" y="-5" on="0"/>
        <pt x="83" y="21" on="0"/>
        <pt x="83" y="40" on="1"/>
        <pt x="83" y="469" on="1"/>
      </contour>
      <contour>
        <pt x="183" y="665" on="1"/>
        <pt x="183" y="644" on="0"/>
        <pt x="153" y="614" on="0"/>
        <pt x="132" y="614" on="1"/>
        <pt x="126" y="614" on="1"/>
        <pt x="105" y="614" on="0"/>
        <pt x="75" y="644" on="0"/>
        <pt x="75" y="665" on="1"/>
        <pt x="75" y="669" on="1"/>
        <pt x="75" y="690" on="0"/>
        <pt x="105" y="720" on="0"/>
        <pt x="126" y="720" on="1"/>
        <pt x="132" y="720" on="1"/>
        <pt x="153" y="720" on="0"/>
        <pt x="183" y="690" on="0"/>
        <pt x="183" y="669" on="1"/>
      </contour>
    </TTGlyph>
    <TTGlyph name="iacute" xMin="83" yMin="-5" xMax="215" yMax="722">
      <contour>
        <pt x="83" y="489" on="0"/>
        <pt x="109" y="515" on="0"/>
        <pt x="148" y="515" on="0"/>
        <pt x="174" y="489" on="0"/>
        <pt x="174" y="469" on="1"/>
        <pt x="174" y="40" on="1"/>
        <pt x="174" y="21" on="0"/>
        <pt x="148" y="-5" on="0"/>
        <pt x="109" y="-5" on="0"/>
        <pt x="83" y="21" on="0"/>
        <pt x="83" y="40" on="1"/>
        <pt x="83" y="469" on="1"/>
      </contour>
      <contour>
        <pt x="145" y="703" on="1"/>
        <pt x="155" y="722" on="0"/>
        <pt x="175" y="722" on="1"/>
        <pt x="215" y="722" on="0"/>
        <pt x="215" y="685" on="1"/>
        <pt x="215" y="671" on="0"/>
        <pt x="205" y="660" on="1"/>
        <pt x="136" y="578" on="1"/>
        <pt x="127" y="567" on="0"/>
        <pt x="102" y="567" on="0"/>
        <pt x="87" y="582" on="0"/>
        <pt x="87" y="591" on="1"/>
        <pt x="87" y="606" on="0"/>
        <pt x="94" y="613" on="1"/>
      </contour>
    </TTGlyph>
    <TTGlyph name="icircumflex" xMin="-7" yMin="-5" xMax="263" yMax="705">
      <contour>
        <pt x="83" y="489" on="0"/>
        <pt x="109" y="515" on="0"/>
        <pt x="148" y="515" on="0"/>
        <pt x="174" y="489" on="0"/>
        <pt x="174" y="469" on="1"/>
        <pt x="174" y="40" on="1"/>
        <pt x="174" y="21" on="0"/>
        <pt x="148" y="-5" on="0"/>
        <pt x="109" y="-5" on="0"/>
        <pt x="83" y="21" on="0"/>
        <pt x="83" y="40" on="1"/>
        <pt x="83" y="469" on="1"/>
      </contour>
      <contour>
        <pt x="255" y="615" on="1"/>
        <pt x="263" y="607" on="0"/>
        <pt x="263" y="584" on="0"/>
        <pt x="246" y="566" on="0"/>
        <pt x="222" y="566" on="0"/>
        <pt x="215" y="573" on="1"/>
        <pt x="128" y="647" on="1"/>
        <pt x="41" y="573" on="1"/>
        <pt x="34" y="566" on="0"/>
        <pt x="10" y="566" on="0"/>
        <pt x="-7" y="584" on="0"/>
        <pt x="-7" y="595" on="0"/>
        <pt x="-7" y="607" on="0"/>
        <pt x="1" y="615" on="1"/>
        <pt x="69" y="685" on="1"/>
        <pt x="89" y="705" on="0"/>
        <pt x="109" y="705" on="1"/>
        <pt x="147" y="705" on="1"/>
        <pt x="167" y="705" on="0"/>
        <pt x="187" y="685" on="1"/>
      </contour>
    </TTGlyph>
    <TTGlyph name="idieresis" xMin="-7" yMin="-5" xMax="264" yMax="677">
      <contour>
        <pt x="83" y="489" on="0"/>
        <pt x="109" y="515" on="0"/>
        <pt x="148" y="515" on="0"/>
        <pt x="174" y="489" on="0"/>
        <pt x="174" y="469" on="1"/>
        <pt x="174" y="40" on="1"/>
        <pt x="174" y="21" on="0"/>
        <pt x="148" y="-5" on="0"/>
        <pt x="109" y="-5" on="0"/>
        <pt x="83" y="21" on="0"/>
        <pt x="83" y="40" on="1"/>
        <pt x="83" y="469" on="1"/>
      </contour>
      <contour>
        <pt x="44" y="677" on="1"/>
        <pt x="65" y="677" on="0"/>
        <pt x="95" y="647" on="0"/>
        <pt x="95" y="626" on="1"/>
        <pt x="95" y="605" on="0"/>
        <pt x="65" y="575" on="0"/>
        <pt x="44" y="575" on="1"/>
        <pt x="23" y="575" on="0"/>
        <pt x="-7" y="605" on="0"/>
        <pt x="-7" y="626" on="1"/>
        <pt x="-7" y="647" on="0"/>
        <pt x="23" y="677" on="0"/>
      </contour>
      <contour>
        <pt x="213" y="677" on="1"/>
        <pt x="234" y="677" on="0"/>
        <pt x="264" y="647" on="0"/>
        <pt x="264" y="626" on="1"/>
        <pt x="264" y="605" on="0"/>
        <pt x="234" y="575" on="0"/>
        <pt x="213" y="575" on="1"/>
        <pt x="192" y="575" on="0"/>
        <pt x="162" y="605" on="0"/>
        <pt x="162" y="626" on="1"/>
        <pt x="162" y="647" on="0"/>
        <pt x="192" y="677" on="0"/>
      </contour>
    </TTGlyph>
    <TTGlyph name="igrave" xMin="42" yMin="-5" xMax="174" yMax="722">
      <contour>
        <pt x="83" y="489" on="0"/>
        <pt x="109" y="515" on="0"/>
        <pt x="148" y="515" on="0"/>
        <pt x="174" y="489" on="0"/>
        <pt x="174" y="469" on="1"/>
        <pt x="174" y="40" on="1"/>
        <pt x="174" y="21" on="0"/>
        <pt x="148" y="-5" on="0"/>
        <pt x="109" y="-5" on="0"/>
        <pt x="83" y="21" on="0"/>
        <pt x="83" y="40" on="1"/>
        <pt x="83" y="469" on="1"/>
      </contour>
      <contour>
        <pt x="42" y="685" on="1"/>
        <pt x="42" y="722" on="0"/>
        <pt x="82" y="722" on="1"/>
        <pt x="102" y="722" on="0"/>
        <pt x="112" y="703" on="1"/>
        <pt x="163" y="613" on="1"/>
        <pt x="170" y="606" on="0"/>
        <pt x="170" y="582" on="0"/>
        <pt x="155" y="567" on="0"/>
        <pt x="130" y="567" on="0"/>
        <pt x="121" y="578" on="1"/>
        <pt x="52" y="660" on="1"/>
        <pt x="42" y="671" on="0"/>
      </contour>
    </TTGlyph>
    <TTGlyph name="infinity" xMin="65" yMin="53" xMax="898" yMax="457">
      <contour>
        <pt x="599" y="432" on="0"/>
        <pt x="664" y="457" on="0"/>
        <pt x="762" y="457" on="0"/>
        <pt x="836" y="417" on="0"/>
        <pt x="858" y="387" on="1"/>
        <pt x="898" y="332" on="0"/>
        <pt x="898" y="255" on="1"/>
        <pt x="898" y="178" on="0"/>
        <pt x="858" y="123" on="1"/>
        <pt x="807" y="53" on="0"/>
        <pt x="705" y="53" on="1"/>
        <pt x="601" y="53" on="0"/>
        <pt x="524" y="143" on="1"/>
        <pt x="502" y="168" on="0"/>
        <pt x="483" y="193" on="1"/>
        <pt x="480" y="193" on="1"/>
        <pt x="435" y="131" on="0"/>
        <pt x="400" y="104" on="1"/>
        <pt x="330" y="53" on="0"/>
        <pt x="201" y="53" on="0"/>
        <pt x="127" y="93" on="0"/>
        <pt x="105" y="123" on="1"/>
        <pt x="65" y="178" on="0"/>
        <pt x="65" y="255" on="1"/>
        <pt x="65" y="332" on="0"/>
        <pt x="105" y="387" on="1"/>
        <pt x="156" y="457" on="0"/>
        <pt x="258" y="457" on="1"/>
        <pt x="361" y="457" on="0"/>
        <pt x="440" y="367" on="1"/>
        <pt x="462" y="342" on="0"/>
        <pt x="480" y="317" on="1"/>
        <pt x="483" y="317" on="1"/>
        <pt x="534" y="384" on="0"/>
      </contour>
      <contour>
        <pt x="604" y="157" on="0"/>
        <pt x="660" y="130" on="0"/>
        <pt x="726" y="130" on="0"/>
        <pt x="773" y="152" on="0"/>
        <pt x="788" y="170" on="1"/>
        <pt x="818" y="204" on="0"/>
        <pt x="818" y="255" on="1"/>
        <pt x="818" y="306" on="0"/>
        <pt x="788" y="340" on="1"/>
        <pt x="754" y="380" on="0"/>
        <pt x="695" y="380" on="1"/>
        <pt x="635" y="380" on="0"/>
        <pt x="582" y="334" on="1"/>
        <pt x="561" y="315" on="0"/>
        <pt x="529" y="271" on="0"/>
        <pt x="517" y="255" on="1"/>
        <pt x="529" y="239" on="0"/>
        <pt x="561" y="196" on="0"/>
      </contour>
      <contour>
        <pt x="270" y="130" on="1"/>
        <pt x="303" y="130" on="0"/>
        <pt x="359" y="157" on="0"/>
        <pt x="380" y="176" on="1"/>
        <pt x="411" y="204" on="0"/>
        <pt x="446" y="255" on="1"/>
        <pt x="409" y="309" on="0"/>
        <pt x="384" y="331" on="1"/>
        <pt x="328" y="380" on="0"/>
        <pt x="268" y="380" on="1"/>
        <pt x="209" y="380" on="0"/>
        <pt x="175" y="340" on="1"/>
        <pt x="145" y="306" on="0"/>
        <pt x="145" y="255" on="1"/>
        <pt x="145" y="204" on="0"/>
        <pt x="175" y="170" on="1"/>
        <pt x="209" y="130" on="0"/>
      </contour>
    </TTGlyph>
    <TTGlyph name="integral" xMin="1" yMin="-147" xMax="370" yMax="794">
      <contour>
        <pt x="37" y="-71" on="1"/>
        <pt x="58" y="-72" on="1"/>
        <pt x="83" y="-72" on="0"/>
        <pt x="117" y="-54" on="0"/>
        <pt x="119" y="-16" on="1"/>
        <pt x="167" y="665" on="1"/>
        <pt x="170" y="720" on="0"/>
        <pt x="232" y="794" on="0"/>
        <pt x="300" y="794" on="1"/>
        <pt x="348" y="794" on="0"/>
        <pt x="370" y="769" on="0"/>
        <pt x="370" y="755" on="1"/>
        <pt x="370" y="741" on="0"/>
        <pt x="348" y="719" on="0"/>
        <pt x="334" y="719" on="1"/>
        <pt x="314" y="720" on="1"/>
        <pt x="289" y="720" on="0"/>
        <pt x="255" y="701" on="0"/>
        <pt x="252" y="663" on="1"/>
        <pt x="205" y="-18" on="1"/>
        <pt x="198" y="-109" on="0"/>
        <pt x="130" y="-137" on="1"/>
        <pt x="106" y="-147" on="0"/>
        <pt x="84" y="-147" on="1"/>
        <pt x="50" y="-147" on="0"/>
        <pt x="34" y="-144" on="1"/>
        <pt x="1" y="-138" on="0"/>
        <pt x="1" y="-107" on="1"/>
        <pt x="1" y="-93" on="0"/>
        <pt x="20" y="-71" on="0"/>
      </contour>
    </TTGlyph>
    <TTGlyph name="j" xMin="-46" yMin="-240" xMax="183" yMax="720">
      <contour>
        <pt x="-8" y="-157" on="1"/>
        <pt x="22" y="-160" on="1"/>
        <pt x="53" y="-160" on="0"/>
        <pt x="63" y="-152" on="1"/>
        <pt x="83" y="-139" on="0"/>
        <pt x="83" y="-101" on="1"/>
        <pt x="83" y="468" on="1"/>
        <pt x="83" y="488" on="0"/>
        <pt x="109" y="514" on="0"/>
        <pt x="148" y="514" on="0"/>
        <pt x="174" y="488" on="0"/>
        <pt x="174" y="468" on="1"/>
        <pt x="174" y="-103" on="1"/>
        <pt x="174" y="-200" on="0"/>
        <pt x="104" y="-230" on="1"/>
        <pt x="79" y="-240" on="0"/>
        <pt x="43" y="-240" on="1"/>
        <pt x="7" y="-240" on="0"/>
        <pt x="-46" y="-223" on="0"/>
        <pt x="-46" y="-195" on="1"/>
        <pt x="-46" y="-180" on="0"/>
        <pt x="-25" y="-157" on="0"/>
      </contour>
      <contour>
        <pt x="183" y="665" on="1"/>
        <pt x="183" y="644" on="0"/>
        <pt x="153" y="614" on="0"/>
        <pt x="132" y="614" on="1"/>
        <pt x="126" y="614" on="1"/>
        <pt x="105" y="614" on="0"/>
        <pt x="75" y="644" on="0"/>
        <pt x="75" y="665" on="1"/>
        <pt x="75" y="669" on="1"/>
        <pt x="75" y="690" on="0"/>
        <pt x="105" y="720" on="0"/>
        <pt x="126" y="720" on="1"/>
        <pt x="132" y="720" on="1"/>
        <pt x="153" y="720" on="0"/>
        <pt x="183" y="690" on="0"/>
        <pt x="183" y="669" on="1"/>
      </contour>
    </TTGlyph>
    <TTGlyph name="k" xMin="79" yMin="-5" xMax="512" yMax="735">
      <contour>
        <pt x="502" y="66" on="1"/>
        <pt x="512" y="53" on="0"/>
        <pt x="512" y="19" on="0"/>
        <pt x="486" y="-5" on="0"/>
        <pt x="470" y="-5" on="1"/>
        <pt x="446" y="-5" on="0"/>
        <pt x="429" y="14" on="1"/>
        <pt x="257" y="248" on="1"/>
        <pt x="170" y="169" on="1"/>
        <pt x="170" y="40" on="1"/>
        <pt x="170" y="21" on="0"/>
        <pt x="143" y="-5" on="0"/>
        <pt x="124" y="-5" on="1"/>
        <pt x="105" y="-5" on="0"/>
        <pt x="79" y="21" on="0"/>
        <pt x="79" y="40" on="1"/>
        <pt x="79" y="689" on="1"/>
        <pt x="79" y="708" on="0"/>
        <pt x="105" y="735" on="0"/>
        <pt x="124" y="735" on="1"/>
        <pt x="143" y="735" on="0"/>
        <pt x="170" y="708" on="0"/>
        <pt x="170" y="689" on="1"/>
        <pt x="170" y="280" on="1"/>
        <pt x="408" y="500" on="1"/>
        <pt x="424" y="513" on="0"/>
        <pt x="464" y="513" on="0"/>
        <pt x="482" y="484" on="0"/>
        <pt x="482" y="474" on="1"/>
        <pt x="482" y="452" on="0"/>
        <pt x="465" y="435" on="1"/>
        <pt x="321" y="306" on="1"/>
      </contour>
    </TTGlyph>
    <TTGlyph name="l" xMin="87" yMin="-5" xMax="178" yMax="735">
      <contour>
        <pt x="87" y="709" on="0"/>
        <pt x="113" y="735" on="0"/>
        <pt x="152" y="735" on="0"/>
        <pt x="178" y="709" on="0"/>
        <pt x="178" y="689" on="1"/>
        <pt x="178" y="40" on="1"/>
        <pt x="178" y="21" on="0"/>
        <pt x="152" y="-5" on="0"/>
        <pt x="113" y="-5" on="0"/>
        <pt x="87" y="21" on="0"/>
        <pt x="87" y="40" on="1"/>
        <pt x="87" y="689" on="1"/>
      </contour>
    </TTGlyph>
    <TTGlyph name="less" xMin="35" yMin="58" xMax="526" yMax="534">
      <contour>
        <pt x="526" y="81" on="0"/>
        <pt x="503" y="58" on="0"/>
        <pt x="477" y="58" on="0"/>
        <pt x="470" y="61" on="1"/>
        <pt x="71" y="240" on="1"/>
        <pt x="35" y="257" on="0"/>
        <pt x="35" y="292" on="1"/>
        <pt x="35" y="300" on="1"/>
        <pt x="35" y="335" on="0"/>
        <pt x="71" y="352" on="1"/>
        <pt x="470" y="531" on="1"/>
        <pt x="477" y="534" on="0"/>
        <pt x="503" y="534" on="0"/>
        <pt x="526" y="511" on="0"/>
        <pt x="526" y="496" on="1"/>
        <pt x="526" y="467" on="0"/>
        <pt x="499" y="456" on="1"/>
        <pt x="139" y="296" on="1"/>
        <pt x="499" y="136" on="1"/>
        <pt x="511" y="131" on="0"/>
        <pt x="526" y="110" on="0"/>
      </contour>
    </TTGlyph>
    <TTGlyph name="lessequal" xMin="58" yMin="0" xMax="554" yMax="589">
      <contour>
        <pt x="553" y="136" on="0"/>
        <pt x="530" y="113" on="0"/>
        <pt x="504" y="113" on="0"/>
        <pt x="497" y="116" on="1"/>
        <pt x="98" y="295" on="1"/>
        <pt x="62" y="312" on="0"/>
        <pt x="62" y="347" on="1"/>
        <pt x="62" y="355" on="1"/>
        <pt x="62" y="390" on="0"/>
        <pt x="98" y="407" on="1"/>
        <pt x="497" y="586" on="1"/>
        <pt x="504" y="589" on="0"/>
        <pt x="530" y="589" on="0"/>
        <pt x="553" y="566" on="0"/>
        <pt x="553" y="552" on="1"/>
        <pt x="553" y="522" on="0"/>
        <pt x="526" y="511" on="1"/>
        <pt x="166" y="351" on="1"/>
        <pt x="526" y="191" on="1"/>
        <pt x="538" y="186" on="0"/>
        <pt x="553" y="165" on="0"/>
      </contour>
      <contour>
        <pt x="517" y="73" on="1"/>
        <pt x="532" y="73" on="0"/>
        <pt x="554" y="51" on="0"/>
        <pt x="554" y="36" on="1"/>
        <pt x="554" y="21" on="0"/>
        <pt x="532" y="0" on="0"/>
        <pt x="517" y="0" on="1"/>
        <pt x="94" y="0" on="1"/>
        <pt x="79" y="0" on="0"/>
        <pt x="58" y="21" on="0"/>
        <pt x="58" y="36" on="1"/>
        <pt x="58" y="51" on="0"/>
        <pt x="79" y="73" on="0"/>
        <pt x="94" y="73" on="1"/>
      </contour>
    </TTGlyph>
    <TTGlyph name="logicalnot" xMin="73" yMin="168" xMax="496" yMax="383">
      <contour>
        <pt x="471" y="383" on="0"/>
        <pt x="496" y="358" on="0"/>
        <pt x="496" y="341" on="1"/>
        <pt x="496" y="205" on="1"/>
        <pt x="496" y="189" on="0"/>
        <pt x="474" y="168" on="0"/>
        <pt x="458" y="168" on="1"/>
        <pt x="442" y="168" on="0"/>
        <pt x="421" y="189" on="0"/>
        <pt x="421" y="205" on="1"/>
        <pt x="421" y="311" on="1"/>
        <pt x="109" y="311" on="1"/>
        <pt x="94" y="311" on="0"/>
        <pt x="73" y="332" on="0"/>
        <pt x="73" y="347" on="1"/>
        <pt x="73" y="362" on="0"/>
        <pt x="94" y="383" on="0"/>
        <pt x="109" y="383" on="1"/>
        <pt x="454" y="383" on="1"/>
      </contour>
    </TTGlyph>
    <TTGlyph name="longs" xMin="19" yMin="-5" xMax="377" yMax="740">
      <contour>
        <pt x="340" y="647" on="1"/>
        <pt x="290" y="653" on="1"/>
        <pt x="252" y="653" on="0"/>
        <pt x="208" y="618" on="0"/>
        <pt x="208" y="565" on="1"/>
        <pt x="208" y="40" on="1"/>
        <pt x="208" y="21" on="0"/>
        <pt x="182" y="-5" on="0"/>
        <pt x="143" y="-5" on="0"/>
        <pt x="117" y="21" on="0"/>
        <pt x="117" y="40" on="1"/>
        <pt x="117" y="432" on="1"/>
        <pt x="58" y="432" on="1"/>
        <pt x="41" y="432" on="0"/>
        <pt x="19" y="454" on="0"/>
        <pt x="19" y="471" on="1"/>
        <pt x="19" y="488" on="0"/>
        <pt x="41" y="510" on="0"/>
        <pt x="58" y="510" on="1"/>
        <pt x="117" y="510" on="1"/>
        <pt x="117" y="568" on="1"/>
        <pt x="117" y="655" on="0"/>
        <pt x="166" y="702" on="1"/>
        <pt x="206" y="740" on="0"/>
        <pt x="267" y="740" on="1"/>
        <pt x="314" y="740" on="0"/>
        <pt x="354" y="720" on="1"/>
        <pt x="377" y="707" on="0"/>
        <pt x="377" y="671" on="0"/>
        <pt x="356" y="647" on="0"/>
      </contour>
    </TTGlyph>
    <TTGlyph name="lozenge" xMin="40" yMin="-105" xMax="586" yMax="703">
      <contour>
        <pt x="309" y="-105" on="1"/>
        <pt x="274" y="-105" on="0"/>
        <pt x="258" y="-77" on="1"/>
        <pt x="48" y="268" on="1"/>
        <pt x="40" y="282" on="0"/>
        <pt x="40" y="299" on="1"/>
        <pt x="40" y="316" on="0"/>
        <pt x="48" y="330" on="1"/>
        <pt x="258" y="675" on="1"/>
        <pt x="274" y="703" on="0"/>
        <pt x="309" y="703" on="1"/>
        <pt x="317" y="703" on="1"/>
        <pt x="352" y="703" on="0"/>
        <pt x="368" y="675" on="1"/>
        <pt x="578" y="330" on="1"/>
        <pt x="586" y="316" on="0"/>
        <pt x="586" y="299" on="1"/>
        <pt x="586" y="282" on="0"/>
        <pt x="578" y="268" on="1"/>
        <pt x="368" y="-77" on="1"/>
        <pt x="352" y="-105" on="0"/>
        <pt x="317" y="-105" on="1"/>
      </contour>
      <contour>
        <pt x="508" y="299" on="1"/>
        <pt x="313" y="627" on="1"/>
        <pt x="118" y="299" on="1"/>
        <pt x="313" y="-29" on="1"/>
      </contour>
    </TTGlyph>
    <TTGlyph name="m" xMin="79" yMin="-5" xMax="844" yMax="520">
      <contour>
        <pt x="170" y="428" on="1"/>
        <pt x="231" y="520" on="0"/>
        <pt x="340" y="520" on="1"/>
        <pt x="394" y="520" on="0"/>
        <pt x="438" y="488" on="1"/>
        <pt x="474" y="463" on="0"/>
        <pt x="493" y="417" on="1"/>
        <pt x="521" y="461" on="0"/>
        <pt x="548" y="479" on="1"/>
        <pt x="605" y="520" on="0"/>
        <pt x="677" y="520" on="1"/>
        <pt x="758" y="520" on="0"/>
        <pt x="804" y="458" on="1"/>
        <pt x="844" y="405" on="0"/>
        <pt x="844" y="328" on="1"/>
        <pt x="844" y="40" on="1"/>
        <pt x="844" y="21" on="0"/>
        <pt x="817" y="-5" on="0"/>
        <pt x="798" y="-5" on="1"/>
        <pt x="779" y="-5" on="0"/>
        <pt x="753" y="21" on="0"/>
        <pt x="753" y="40" on="1"/>
        <pt x="753" y="310" on="1"/>
        <pt x="753" y="373" on="0"/>
        <pt x="708" y="436" on="0"/>
        <pt x="651" y="436" on="1"/>
        <pt x="563" y="436" on="0"/>
        <pt x="507" y="340" on="1"/>
        <pt x="507" y="40" on="1"/>
        <pt x="507" y="21" on="0"/>
        <pt x="480" y="-5" on="0"/>
        <pt x="461" y="-5" on="1"/>
        <pt x="442" y="-5" on="0"/>
        <pt x="416" y="21" on="0"/>
        <pt x="416" y="40" on="1"/>
        <pt x="416" y="310" on="1"/>
        <pt x="416" y="373" on="0"/>
        <pt x="371" y="436" on="0"/>
        <pt x="314" y="436" on="1"/>
        <pt x="226" y="436" on="0"/>
        <pt x="170" y="340" on="1"/>
        <pt x="170" y="40" on="1"/>
        <pt x="170" y="21" on="0"/>
        <pt x="143" y="-5" on="0"/>
        <pt x="124" y="-5" on="1"/>
        <pt x="105" y="-5" on="0"/>
        <pt x="79" y="21" on="0"/>
        <pt x="79" y="40" on="1"/>
        <pt x="79" y="469" on="1"/>
        <pt x="79" y="488" on="0"/>
        <pt x="105" y="515" on="0"/>
        <pt x="124" y="515" on="1"/>
        <pt x="143" y="515" on="0"/>
        <pt x="170" y="488" on="0"/>
        <pt x="170" y="469" on="1"/>
      </contour>
    </TTGlyph>
    <TTGlyph name="macron" xMin="8" yMin="588" xMax="302" yMax="648">
      <contour>
        <pt x="285" y="648" on="0"/>
        <pt x="302" y="631" on="0"/>
        <pt x="302" y="618" on="1"/>
        <pt x="302" y="605" on="0"/>
        <pt x="285" y="588" on="0"/>
        <pt x="272" y="588" on="1"/>
        <pt x="38" y="588" on="1"/>
        <pt x="25" y="588" on="0"/>
        <pt x="8" y="605" on="0"/>
        <pt x="8" y="618" on="1"/>
        <pt x="8" y="631" on="0"/>
        <pt x="25" y="648" on="0"/>
        <pt x="38" y="648" on="1"/>
        <pt x="272" y="648" on="1"/>
      </contour>
    </TTGlyph>
    <TTGlyph name="minus" xMin="73" yMin="290" xMax="639" yMax="371">
      <contour>
        <pt x="615" y="371" on="0"/>
        <pt x="639" y="347" on="0"/>
        <pt x="639" y="330" on="1"/>
        <pt x="639" y="313" on="0"/>
        <pt x="615" y="290" on="0"/>
        <pt x="598" y="290" on="1"/>
        <pt x="113" y="290" on="1"/>
        <pt x="96" y="290" on="0"/>
        <pt x="73" y="313" on="0"/>
        <pt x="73" y="330" on="1"/>
        <pt x="73" y="347" on="0"/>
        <pt x="96" y="371" on="0"/>
        <pt x="113" y="371" on="1"/>
        <pt x="598" y="371" on="1"/>
      </contour>
    </TTGlyph>
    <TTGlyph name="mu" xMin="84" yMin="-218" xMax="540" yMax="515">
      <contour>
        <pt x="285" y="74" on="1"/>
        <pt x="373" y="74" on="0"/>
        <pt x="449" y="170" on="1"/>
        <pt x="449" y="470" on="1"/>
        <pt x="449" y="489" on="0"/>
        <pt x="476" y="515" on="0"/>
        <pt x="495" y="515" on="1"/>
        <pt x="514" y="515" on="0"/>
        <pt x="540" y="489" on="0"/>
        <pt x="540" y="470" on="1"/>
        <pt x="540" y="41" on="1"/>
        <pt x="540" y="21" on="0"/>
        <pt x="514" y="-5" on="0"/>
        <pt x="495" y="-5" on="1"/>
        <pt x="476" y="-5" on="0"/>
        <pt x="449" y="21" on="0"/>
        <pt x="449" y="41" on="1"/>
        <pt x="449" y="82" on="1"/>
        <pt x="407" y="37" on="0"/>
        <pt x="380" y="22" on="1"/>
        <pt x="327" y="-10" on="0"/>
        <pt x="217" y="-10" on="0"/>
        <pt x="175" y="17" on="1"/>
        <pt x="175" y="-173" on="1"/>
        <pt x="175" y="-192" on="0"/>
        <pt x="148" y="-218" on="0"/>
        <pt x="129" y="-218" on="1"/>
        <pt x="110" y="-218" on="0"/>
        <pt x="84" y="-192" on="0"/>
        <pt x="84" y="-173" on="1"/>
        <pt x="84" y="470" on="1"/>
        <pt x="84" y="489" on="0"/>
        <pt x="111" y="515" on="0"/>
        <pt x="130" y="515" on="1"/>
        <pt x="149" y="515" on="0"/>
        <pt x="175" y="489" on="0"/>
        <pt x="175" y="470" on="1"/>
        <pt x="175" y="196" on="1"/>
        <pt x="175" y="139" on="0"/>
        <pt x="226" y="74" on="0"/>
      </contour>
    </TTGlyph>
    <TTGlyph name="multiply" xMin="59" yMin="36" xMax="503" yMax="480">
      <contour>
        <pt x="59" y="457" on="0"/>
        <pt x="80" y="480" on="0"/>
        <pt x="112" y="480" on="0"/>
        <pt x="124" y="468" on="1"/>
        <pt x="281" y="311" on="1"/>
        <pt x="438" y="468" on="1"/>
        <pt x="450" y="480" on="0"/>
        <pt x="482" y="480" on="0"/>
        <pt x="503" y="457" on="0"/>
        <pt x="503" y="442" on="1"/>
        <pt x="503" y="427" on="0"/>
        <pt x="491" y="415" on="1"/>
        <pt x="334" y="258" on="1"/>
        <pt x="491" y="101" on="1"/>
        <pt x="503" y="89" on="0"/>
        <pt x="503" y="74" on="1"/>
        <pt x="503" y="59" on="0"/>
        <pt x="482" y="36" on="0"/>
        <pt x="450" y="36" on="0"/>
        <pt x="438" y="48" on="1"/>
        <pt x="281" y="205" on="1"/>
        <pt x="124" y="48" on="1"/>
        <pt x="112" y="36" on="0"/>
        <pt x="80" y="36" on="0"/>
        <pt x="59" y="59" on="0"/>
        <pt x="59" y="74" on="1"/>
        <pt x="59" y="89" on="0"/>
        <pt x="71" y="101" on="1"/>
        <pt x="228" y="258" on="1"/>
        <pt x="71" y="415" on="1"/>
        <pt x="59" y="427" on="0"/>
        <pt x="59" y="442" on="1"/>
      </contour>
    </TTGlyph>
    <TTGlyph name="n" xMin="79" yMin="-5" xMax="535" yMax="520">
      <contour>
        <pt x="334" y="436" on="1"/>
        <pt x="246" y="436" on="0"/>
        <pt x="170" y="340" on="1"/>
        <pt x="170" y="40" on="1"/>
        <pt x="170" y="21" on="0"/>
        <pt x="143" y="-5" on="0"/>
        <pt x="124" y="-5" on="1"/>
        <pt x="105" y="-5" on="0"/>
        <pt x="79" y="21" on="0"/>
        <pt x="79" y="40" on="1"/>
        <pt x="79" y="469" on="1"/>
        <pt x="79" y="489" on="0"/>
        <pt x="105" y="515" on="0"/>
        <pt x="124" y="515" on="1"/>
        <pt x="143" y="515" on="0"/>
        <pt x="170" y="489" on="0"/>
        <pt x="170" y="469" on="1"/>
        <pt x="170" y="428" on="1"/>
        <pt x="210" y="470" on="0"/>
        <pt x="239" y="487" on="1"/>
        <pt x="296" y="520" on="0"/>
        <pt x="399" y="520" on="0"/>
        <pt x="465" y="489" on="0"/>
        <pt x="488" y="462" on="1"/>
        <pt x="535" y="407" on="0"/>
        <pt x="535" y="324" on="1"/>
        <pt x="535" y="40" on="1"/>
        <pt x="535" y="21" on="0"/>
        <pt x="508" y="-5" on="0"/>
        <pt x="489" y="-5" on="1"/>
        <pt x="470" y="-5" on="0"/>
        <pt x="444" y="21" on="0"/>
        <pt x="444" y="40" on="1"/>
        <pt x="444" y="314" on="1"/>
        <pt x="444" y="371" on="0"/>
        <pt x="393" y="436" on="0"/>
      </contour>
    </TTGlyph>
    <TTGlyph name="nine" xMin="48" yMin="-10" xMax="569" yMax="708">
      <contour>
        <pt x="350" y="254" on="1"/>
        <pt x="318" y="246" on="0"/>
        <pt x="226" y="246" on="0"/>
        <pt x="142" y="279" on="0"/>
        <pt x="112" y="310" on="1"/>
        <pt x="48" y="375" on="0"/>
        <pt x="48" y="481" on="1"/>
        <pt x="48" y="579" on="0"/>
        <pt x="114" y="642" on="1"/>
        <pt x="184" y="708" on="0"/>
        <pt x="295" y="708" on="1"/>
        <pt x="409" y="708" on="0"/>
        <pt x="476" y="646" on="1"/>
        <pt x="555" y="571" on="0"/>
        <pt x="566" y="424" on="1"/>
        <pt x="569" y="384" on="0"/>
        <pt x="569" y="291" on="0"/>
        <pt x="540" y="164" on="0"/>
        <pt x="473" y="59" on="0"/>
        <pt x="361" y="-10" on="0"/>
        <pt x="216" y="-10" on="0"/>
        <pt x="132" y="17" on="0"/>
        <pt x="102" y="33" on="1"/>
        <pt x="81" y="45" on="0"/>
        <pt x="81" y="85" on="0"/>
        <pt x="103" y="110" on="0"/>
        <pt x="131" y="110" on="0"/>
        <pt x="148" y="102" on="1"/>
        <pt x="204" y="78" on="0"/>
        <pt x="336" y="78" on="0"/>
        <pt x="417" y="133" on="0"/>
        <pt x="440" y="172" on="1"/>
        <pt x="476" y="237" on="0"/>
        <pt x="482" y="334" on="1"/>
        <pt x="438" y="276" on="0"/>
      </contour>
      <contour>
        <pt x="374" y="608" on="1"/>
        <pt x="341" y="623" on="0"/>
        <pt x="258" y="623" on="0"/>
        <pt x="201" y="600" on="0"/>
        <pt x="181" y="580" on="1"/>
        <pt x="139" y="538" on="0"/>
        <pt x="139" y="413" on="0"/>
        <pt x="213" y="329" on="0"/>
        <pt x="288" y="329" on="1"/>
        <pt x="366" y="329" on="0"/>
        <pt x="418" y="369" on="1"/>
        <pt x="454" y="396" on="0"/>
        <pt x="477" y="439" on="1"/>
        <pt x="459" y="569" on="0"/>
      </contour>
    </TTGlyph>
    <TTGlyph name="notequal" xMin="59" yMin="27" xMax="625" yMax="631">
      <contour>
        <pt x="81" y="404" on="0"/>
        <pt x="59" y="426" on="0"/>
        <pt x="59" y="443" on="1"/>
        <pt x="59" y="460" on="0"/>
        <pt x="81" y="482" on="0"/>
        <pt x="98" y="482" on="1"/>
        <pt x="402" y="482" on="1"/>
        <pt x="488" y="618" on="1"/>
        <pt x="496" y="631" on="0"/>
        <pt x="525" y="631" on="0"/>
        <pt x="543" y="616" on="0"/>
        <pt x="543" y="593" on="0"/>
        <pt x="538" y="584" on="1"/>
        <pt x="473" y="482" on="1"/>
        <pt x="586" y="482" on="1"/>
        <pt x="603" y="482" on="0"/>
        <pt x="625" y="460" on="0"/>
        <pt x="625" y="443" on="1"/>
        <pt x="625" y="426" on="0"/>
        <pt x="603" y="404" on="0"/>
        <pt x="586" y="404" on="1"/>
        <pt x="423" y="404" on="1"/>
        <pt x="331" y="258" on="1"/>
        <pt x="586" y="258" on="1"/>
        <pt x="603" y="258" on="0"/>
        <pt x="625" y="236" on="0"/>
        <pt x="625" y="219" on="1"/>
        <pt x="625" y="202" on="0"/>
        <pt x="603" y="180" on="0"/>
        <pt x="586" y="180" on="1"/>
        <pt x="281" y="180" on="1"/>
        <pt x="193" y="40" on="1"/>
        <pt x="185" y="27" on="0"/>
        <pt x="156" y="27" on="0"/>
        <pt x="138" y="42" on="0"/>
        <pt x="138" y="65" on="0"/>
        <pt x="143" y="74" on="1"/>
        <pt x="210" y="180" on="1"/>
        <pt x="98" y="180" on="1"/>
        <pt x="81" y="180" on="0"/>
        <pt x="59" y="202" on="0"/>
        <pt x="59" y="219" on="1"/>
        <pt x="59" y="236" on="0"/>
        <pt x="81" y="258" on="0"/>
        <pt x="98" y="258" on="1"/>
        <pt x="260" y="258" on="1"/>
        <pt x="352" y="404" on="1"/>
        <pt x="98" y="404" on="1"/>
      </contour>
    </TTGlyph>
    <TTGlyph name="ntilde" xMin="79" yMin="-5" xMax="535" yMax="690">
      <component glyphName="n" x="0" y="0" flags="0x1204"/>
      <component glyphName="tilde" x="94" y="0" flags="0x1004"/>
    </TTGlyph>
    <TTGlyph name="numbersign" xMin="36" yMin="-5" xMax="575" yMax="660">
      <contour>
        <pt x="145" y="-5" on="0"/>
        <pt x="124" y="15" on="0"/>
        <pt x="124" y="33" on="0"/>
        <pt x="148" y="182" on="1"/>
        <pt x="71" y="182" on="1"/>
        <pt x="57" y="182" on="0"/>
        <pt x="36" y="203" on="0"/>
        <pt x="36" y="217" on="1"/>
        <pt x="36" y="231" on="0"/>
        <pt x="57" y="252" on="0"/>
        <pt x="71" y="252" on="1"/>
        <pt x="159" y="252" on="1"/>
        <pt x="183" y="404" on="1"/>
        <pt x="106" y="404" on="1"/>
        <pt x="92" y="404" on="0"/>
        <pt x="71" y="425" on="0"/>
        <pt x="71" y="439" on="1"/>
        <pt x="71" y="453" on="0"/>
        <pt x="92" y="474" on="0"/>
        <pt x="106" y="474" on="1"/>
        <pt x="194" y="474" on="1"/>
        <pt x="219" y="632" on="1"/>
        <pt x="221" y="643" on="0"/>
        <pt x="240" y="660" on="0"/>
        <pt x="270" y="660" on="0"/>
        <pt x="289" y="640" on="0"/>
        <pt x="289" y="624" on="0"/>
        <pt x="288" y="617" on="0"/>
        <pt x="284" y="588" on="0"/>
        <pt x="279" y="558" on="1"/>
        <pt x="265" y="474" on="1"/>
        <pt x="392" y="474" on="1"/>
        <pt x="417" y="632" on="1"/>
        <pt x="419" y="643" on="0"/>
        <pt x="438" y="660" on="0"/>
        <pt x="468" y="660" on="0"/>
        <pt x="487" y="640" on="0"/>
        <pt x="487" y="624" on="0"/>
        <pt x="486" y="617" on="0"/>
        <pt x="482" y="588" on="0"/>
        <pt x="477" y="558" on="1"/>
        <pt x="463" y="474" on="1"/>
        <pt x="540" y="474" on="1"/>
        <pt x="554" y="474" on="0"/>
        <pt x="575" y="453" on="0"/>
        <pt x="575" y="439" on="1"/>
        <pt x="575" y="425" on="0"/>
        <pt x="554" y="404" on="0"/>
        <pt x="540" y="404" on="1"/>
        <pt x="452" y="404" on="1"/>
        <pt x="428" y="252" on="1"/>
        <pt x="505" y="252" on="1"/>
        <pt x="519" y="252" on="0"/>
        <pt x="540" y="231" on="0"/>
        <pt x="540" y="217" on="1"/>
        <pt x="540" y="203" on="0"/>
        <pt x="519" y="182" on="0"/>
        <pt x="505" y="182" on="1"/>
        <pt x="417" y="182" on="1"/>
        <pt x="392" y="24" on="1"/>
        <pt x="390" y="13" on="0"/>
        <pt x="371" y="-5" on="0"/>
        <pt x="357" y="-5" on="1"/>
        <pt x="343" y="-5" on="0"/>
        <pt x="322" y="15" on="0"/>
        <pt x="322" y="33" on="0"/>
        <pt x="346" y="182" on="1"/>
        <pt x="219" y="182" on="1"/>
        <pt x="194" y="24" on="1"/>
        <pt x="192" y="13" on="0"/>
        <pt x="173" y="-5" on="0"/>
        <pt x="159" y="-5" on="1"/>
      </contour>
      <contour>
        <pt x="381" y="404" on="1"/>
        <pt x="254" y="404" on="1"/>
        <pt x="230" y="252" on="1"/>
        <pt x="357" y="252" on="1"/>
      </contour>
    </TTGlyph>
    <TTGlyph name="o" xMin="48" yMin="-10" xMax="560" yMax="520">
      <contour>
        <pt x="304" y="520" on="1"/>
        <pt x="420" y="520" on="0"/>
        <pt x="490" y="447" on="1"/>
        <pt x="560" y="373" on="0"/>
        <pt x="560" y="255" on="1"/>
        <pt x="560" y="137" on="0"/>
        <pt x="490" y="63" on="1"/>
        <pt x="420" y="-10" on="0"/>
        <pt x="304" y="-10" on="1"/>
        <pt x="187" y="-10" on="0"/>
        <pt x="118" y="63" on="1"/>
        <pt x="48" y="136" on="0"/>
        <pt x="48" y="255" on="1"/>
        <pt x="48" y="374" on="0"/>
        <pt x="118" y="447" on="1"/>
        <pt x="187" y="520" on="0"/>
      </contour>
      <contour>
        <pt x="216" y="93" on="0"/>
        <pt x="275" y="73" on="0"/>
        <pt x="332" y="73" on="0"/>
        <pt x="391" y="93" on="0"/>
        <pt x="415" y="114" on="1"/>
        <pt x="469" y="163" on="0"/>
        <pt x="469" y="256" on="1"/>
        <pt x="469" y="346" on="0"/>
        <pt x="415" y="396" on="1"/>
        <pt x="370" y="437" on="0"/>
        <pt x="304" y="437" on="1"/>
        <pt x="196" y="437" on="0"/>
        <pt x="154" y="340" on="1"/>
        <pt x="139" y="305" on="0"/>
        <pt x="139" y="206" on="0"/>
        <pt x="169" y="136" on="0"/>
      </contour>
    </TTGlyph>
    <TTGlyph name="oacute" xMin="48" yMin="-10" xMax="560" yMax="722">
      <component glyphName="o" x="0" y="0" flags="0x1204"/>
      <component glyphName="acute" x="214" y="0" flags="0x1004"/>
    </TTGlyph>
</ttFont>
